WaldbaZelan-Regular.ufo
<glyph name="quotesingle" format="2">
  <advance width="600"/>
  <unicode hex="0027"/>
  <outline>
    <contour>
      <point x="337" y="281" type="line"/>
      <point x="262" y="281" type="line"/>
      <point x="243" y="563" type="line"/>
      <point x="357" y="563" type="line"/>
    </contour>
  </outline>
</glyph>
<glyph name="parenleft" format="2">
  <advance width="1381"/>
  <unicode hex="0028"/>
  <outline>
    <contour>
      <point x="1066" y="1494" type="line"/>
      <point x="1028" y="1423"/>
      <point x="937" y="1236"/>
      <point x="854" y="1015"/>
      <point x="799" y="767"/>
      <point x="799" y="635" type="qcurve"/>
      <point x="799" y="505"/>
      <point x="854" y="255"/>
      <point x="937" y="35"/>
      <point x="1028" y="-152"/>
      <point x="1066" y="-221" type="qcurve"/>
      <point x="949" y="-221" type="line"/>
      <point x="883" y="-125"/>
      <point x="778" y="97"/>
      <point x="703" y="323"/>
      <point x="661" y="541"/>
      <point x="661" y="635" type="qcurve"/>
      <point x="661" y="727"/>
      <point x="700" y="946"/>
      <point x="776" y="1171"/>
      <point x="881" y="1395"/>
      <point x="949" y="1494" type="qcurve"/>
    </contour>
  </outline>
</glyph>
<glyph name="zero" format="2">
  <advance width="1381"/>
  <unicode hex="0030"/>
  <outline>
    <contour>
      <point x="690" y="1430" type="qcurve"/>
      <point x="831" y="1430"/>
      <point x="1004" y="1285"/>
      <point x="1096" y="1066"/>
      <point x="1128" y="810"/>
      <point x="1128" y="698" type="qcurve"/>
      <point x="1128" y="584"/>
      <point x="1096" y="329"/>
      <point x="1004" y="110"/>
      <point x="831" y="-33"/>
      <point x="690" y="-33" type="qcurve"/>
      <point x="550" y="-33"/>
      <point x="378" y="112"/>
      <point x="285" y="329"/>
      <point x="253" y="587"/>
      <point x="253" y="698" type="qcurve"/>
      <point x="253" y="810"/>
      <point x="285" y="1066"/>
      <point x="378" y="1285"/>
      <point x="550" y="1430"/>
    </contour>
    <contour>
      <point x="690" y="1326" type="qcurve"/>
      <point x="587" y="1326"/>
      <point x="463" y="1197"/>
      <point x="396" y="1008"/>
      <point x="375" y="789"/>
      <point x="375" y="700" type="qcurve"/>
      <point x="375" y="608"/>
      <point x="396" y="389"/>
      <point x="463" y="198"/>
      <point x="587" y="71"/>
      <point x="688" y="71" type="qcurve"/>
      <point x="792" y="71"/>
      <point x="916" y="200"/>
      <point x="986" y="389"/>
      <point x="1006" y="610"/>
      <point x="1006" y="700" type="qcurve"/>
      <point x="1006" y="792"/>
      <point x="986" y="1010"/>
      <point x="918" y="1199"/>
      <point x="795" y="1326"/>
    </contour>
  </outline>
</glyph>
<glyph name="one" format="2">
  <advance width="1381"/>
  <unicode hex="0031"/>
  <outline>
    <contour>
      <point x="769" y="1430" type="line"/>
      <point x="769" y="108" type="line"/>
      <point x="1162" y="108" type="line"/>
      <point x="1162" y="0" type="line"/>
      <point x="253" y="0" type="line"/>
      <point x="253" y="108" type="line"/>
      <point x="654" y="108" type="line"/>
      <point x="654" y="1296" type="line"/>
      <point x="285" y="1125" type="line"/>
      <point x="239" y="1227" type="line"/>
      <point x="695" y="1430" type="line"/>
    </contour>
  </outline>
</glyph>
<glyph name="seven" format="2">
  <advance width="600"/>
  <unicode hex="0037"/>
  <outline>
    <contour>
      <point x="488" y="559" type="line"/>
      <point x="294" y="0" type="line"/>
      <point x="236" y="0" type="line"/>
      <point x="438" y="559" type="line"/>
      <point x="144" y="559" type="line"/>
      <point x="144" y="467" type="line"/>
      <point x="95" y="467" type="line"/>
      <point x="95" y="606" type="line"/>
      <point x="488" y="606" type="line"/>
    </contour>
  </outline>
</glyph>
<glyph name="semicolon" format="2">
  <advance width="1381"/>
  <unicode hex="003B"/>
  <outline>
    <contour>
      <point x="580" y="-248" type="line"/>
      <point x="417" y="-248" type="line"/>
      <point x="593" y="308" type="line"/>
      <point x="831" y="308" type="line"/>
    </contour>
    <contour>
      <point x="690" y="898" type="qcurve"/>
      <point x="720" y="898"/>
      <point x="785" y="877"/>
      <point x="835" y="835"/>
      <point x="868" y="778"/>
      <point x="868" y="741" type="qcurve"/>
      <point x="868" y="705"/>
      <point x="835" y="646"/>
      <point x="785" y="606"/>
      <point x="720" y="584"/>
      <point x="690" y="584" type="qcurve"/>
      <point x="661" y="584"/>
      <point x="598" y="606"/>
      <point x="545" y="644"/>
      <point x="514" y="703"/>
      <point x="514" y="741" type="qcurve"/>
      <point x="514" y="778"/>
      <point x="545" y="835"/>
      <point x="596" y="877"/>
      <point x="659" y="898"/>
    </contour>
  </outline>
</glyph>
<glyph name="equal" format="2">
  <advance width="600"/>
  <unicode hex="003D"/>
  <outline>
    <contour>
      <point x="536" y="369" type="line"/>
      <point x="64" y="369" type="line"/>
      <point x="64" y="419" type="line"/>
      <point x="536" y="419" type="line"/>
    </contour>
    <contour>
      <point x="536" y="188" type="line"/>
      <point x="64" y="188" type="line"/>
      <point x="64" y="238" type="line"/>
      <point x="536" y="238" type="line"/>
    </contour>
  </outline>
</glyph>
<glyph name="D" format="2">
  <advance width="1381"/>
  <unicode hex="0044"/>
  <outline>
    <contour>
      <point x="654" y="1296" type="line"/>
      <point x="729" y="1296"/>
      <point x="861" y="1285"/>
      <point x="973" y="1250"/>
      <point x="1077" y="1181"/>
      <point x="1125" y="1123" type="qcurve"/>
      <point x="1177" y="1061"/>
      <point x="1234" y="927"/>
      <point x="1261" y="804"/>
      <point x="1268" y="703"/>
      <point x="1268" y="672" type="qcurve"/>
      <point x="1268" y="569"/>
      <point x="1236" y="400"/>
      <point x="1184" y="270"/>
      <point x="1114" y="169"/>
      <point x="1077" y="134" type="qcurve"/>
      <point x="1024" y="83"/>
      <point x="900" y="30"/>
      <point x="780" y="4"/>
      <point x="677" y="0"/>
      <point x="644" y="0" type="qcurve"/>
      <point x="79" y="0" type="line"/>
      <point x="79" y="108" type="line"/>
      <point x="260" y="108" type="line"/>
      <point x="260" y="1188" type="line"/>
      <point x="79" y="1188" type="line"/>
      <point x="79" y="1296" type="line"/>
    </contour>
    <contour>
      <point x="375" y="108" type="line"/>
      <point x="644" y="108" type="line"/>
      <point x="674" y="108"/>
      <point x="758" y="110"/>
      <point x="852" y="132"/>
      <point x="949" y="175"/>
      <point x="990" y="217" type="qcurve"/>
      <point x="1052" y="279"/>
      <point x="1144" y="507"/>
      <point x="1144" y="665" type="qcurve"/>
      <point x="1142" y="773"/>
      <point x="1103" y="925"/>
      <point x="1048" y="1032"/>
      <point x="986" y="1096"/>
      <point x="960" y="1116" type="qcurve"/>
      <point x="900" y="1162"/>
      <point x="755" y="1188"/>
      <point x="656" y="1188" type="qcurve"/>
      <point x="375" y="1188" type="line"/>
    </contour>
  </outline>
</glyph>
<glyph name="H" format="2">
  <advance width="1381"/>
  <unicode hex="0048"/>
  <outline>
    <contour>
      <point x="550" y="1188" type="line"/>
      <point x="378" y="1188" type="line"/>
      <point x="378" y="723" type="line"/>
      <point x="1004" y="723" type="line"/>
      <point x="1004" y="1188" type="line"/>
      <point x="831" y="1188" type="line"/>
      <point x="831" y="1296" type="line"/>
      <point x="1294" y="1296" type="line"/>
      <point x="1294" y="1188" type="line"/>
      <point x="1118" y="1188" type="line"/>
      <point x="1118" y="108" type="line"/>
      <point x="1294" y="108" type="line"/>
      <point x="1294" y="0" type="line"/>
      <point x="831" y="0" type="line"/>
      <point x="831" y="108" type="line"/>
      <point x="1004" y="108" type="line"/>
      <point x="1004" y="615" type="line"/>
      <point x="378" y="615" type="line"/>
      <point x="378" y="108" type="line"/>
      <point x="550" y="108" type="line"/>
      <point x="550" y="0" type="line"/>
      <point x="90" y="0" type="line"/>
      <point x="90" y="108" type="line"/>
      <point x="262" y="108" type="line"/>
      <point x="262" y="1188" type="line"/>
      <point x="90" y="1188" type="line"/>
      <point x="90" y="1296" type="line"/>
      <point x="550" y="1296" type="line"/>
    </contour>
  </outline>
</glyph>
<glyph name="I" format="2">
  <advance width="1381"/>
  <unicode hex="0049"/>
  <outline>
    <contour>
      <point x="1151" y="1188" type="line"/>
      <point x="749" y="1188" type="line"/>
      <point x="749" y="108" type="line"/>
      <point x="1151" y="108" type="line"/>
      <point x="1151" y="0" type="line"/>
      <point x="230" y="0" type="line"/>
      <point x="230" y="108" type="line"/>
      <point x="633" y="108" type="line"/>
      <point x="633" y="1188" type="line"/>
      <point x="230" y="1188" type="line"/>
      <point x="230" y="1296" type="line"/>
      <point x="1151" y="1296" type="line"/>
    </contour>
  </outline>
</glyph>
<glyph name="K" format="2">
  <advance width="600"/>
  <unicode hex="004B"/>
  <outline>
    <contour>
      <point x="279" y="516" type="line"/>
      <point x="194" y="516" type="line"/>
      <point x="194" y="271" type="line"/>
      <point x="446" y="516" type="line"/>
      <point x="364" y="516" type="line"/>
      <point x="364" y="563" type="line"/>
      <point x="559" y="563" type="line"/>
      <point x="559" y="516" type="line"/>
      <point x="514" y="516" type="line"/>
      <point x="297" y="305" type="line"/>
      <point x="316" y="295"/>
      <point x="361" y="263"/>
      <point x="411" y="205"/>
      <point x="466" y="115"/>
      <point x="496" y="47" type="qcurve"/>
      <point x="588" y="47" type="line"/>
      <point x="588" y="0" type="line"/>
      <point x="460" y="0" type="line"/>
      <point x="444" y="42"/>
      <point x="406" y="117"/>
      <point x="395" y="135" type="qcurve"/>
      <point x="366" y="185"/>
      <point x="307" y="249"/>
      <point x="263" y="271" type="qcurve"/>
      <point x="194" y="205" type="line"/>
      <point x="194" y="47" type="line"/>
      <point x="279" y="47" type="line"/>
      <point x="279" y="0" type="line"/>
      <point x="60" y="0" type="line"/>
      <point x="60" y="47" type="line"/>
      <point x="144" y="47" type="line"/>
      <point x="144" y="516" type="line"/>
      <point x="60" y="516" type="line"/>
      <point x="60" y="563" type="line"/>
      <point x="279" y="563" type="line"/>
    </contour>
  </outline>
</glyph>
<glyph name="L" format="2">
  <advance width="1381"/>
  <unicode hex="004C"/>
  <outline>
    <contour>
      <point x="764" y="1188" type="line"/>
      <point x="481" y="1188" type="line"/>
      <point x="481" y="108" type="line"/>
      <point x="1133" y="108" type="line"/>
      <point x="1164" y="573" type="line"/>
      <point x="1273" y="573" type="line"/>
      <point x="1248" y="0" type="line"/>
      <point x="136" y="0" type="line"/>
      <point x="136" y="108" type="line"/>
      <point x="366" y="108" type="line"/>
      <point x="366" y="1188" type="line"/>
      <point x="136" y="1188" type="line"/>
      <point x="136" y="1296" type="line"/>
      <point x="764" y="1296" type="line"/>
    </contour>
  </outline>
</glyph>
<glyph name="N" format="2">
  <advance width="1381"/>
  <unicode hex="004E"/>
  <outline>
    <contour>
      <point x="1063" y="97" type="line"/>
      <point x="1105" y="97" type="line"/>
      <point x="1105" y="1188" type="line"/>
      <point x="847" y="1188" type="line"/>
      <point x="847" y="1296" type="line"/>
      <point x="1360" y="1296" type="line"/>
      <point x="1360" y="1188" type="line"/>
      <point x="1211" y="1188" type="line"/>
      <point x="1211" y="-30" type="line"/>
      <point x="1006" y="-30" type="line"/>
      <point x="389" y="1188" type="line"/>
      <point x="350" y="1188" type="line"/>
      <point x="350" y="108" type="line"/>
      <point x="610" y="108" type="line"/>
      <point x="610" y="0" type="line"/>
      <point x="64" y="0" type="line"/>
      <point x="64" y="108" type="line"/>
      <point x="244" y="108" type="line"/>
      <point x="244" y="1188" type="line"/>
      <point x="64" y="1188" type="line"/>
      <point x="64" y="1296" type="line"/>
      <point x="459" y="1296" type="line"/>
    </contour>
  </outline>
</glyph>
<glyph name="R" format="2">
  <advance width="1381"/>
  <unicode hex="0052"/>
  <outline>
    <contour>
      <point x="695" y="1296" type="line"/>
      <point x="806" y="1296"/>
      <point x="949" y="1276"/>
      <point x="1068" y="1193"/>
      <point x="1149" y="1034"/>
      <point x="1149" y="949" type="qcurve"/>
      <point x="1149" y="898"/>
      <point x="1114" y="782"/>
      <point x="1032" y="681"/>
      <point x="896" y="606"/>
      <point x="797" y="596" type="qcurve"/>
      <point x="826" y="564"/>
      <point x="912" y="444"/>
      <point x="1001" y="306"/>
      <point x="1091" y="165"/>
      <point x="1125" y="108" type="qcurve"/>
      <point x="1329" y="108" type="line"/>
      <point x="1329" y="0" type="line"/>
      <point x="1041" y="0" type="line"/>
      <point x="1013" y="57"/>
      <point x="946" y="182"/>
      <point x="883" y="290"/>
      <point x="831" y="375"/>
      <point x="819" y="393" type="qcurve"/>
      <point x="785" y="446"/>
      <point x="734" y="523"/>
      <point x="681" y="571"/>
      <point x="619" y="593"/>
      <point x="573" y="593" type="qcurve"/>
      <point x="407" y="593" type="line"/>
      <point x="407" y="108" type="line"/>
      <point x="613" y="108" type="line"/>
      <point x="613" y="0" type="line"/>
      <point x="103" y="0" type="line"/>
      <point x="103" y="108" type="line"/>
      <point x="292" y="108" type="line"/>
      <point x="292" y="1188" type="line"/>
      <point x="103" y="1188" type="line"/>
      <point x="103" y="1296" type="line"/>
    </contour>
    <contour>
      <point x="407" y="703" type="line"/>
      <point x="622" y="703" type="line"/>
      <point x="668" y="703"/>
      <point x="806" y="709"/>
      <point x="932" y="755"/>
      <point x="1024" y="859"/>
      <point x="1024" y="955" type="qcurve"/>
      <point x="1024" y="1013"/>
      <point x="973" y="1116"/>
      <point x="927" y="1149" type="qcurve"/>
      <point x="914" y="1158"/>
      <point x="883" y="1171"/>
      <point x="833" y="1181"/>
      <point x="753" y="1188"/>
      <point x="690" y="1188" type="qcurve"/>
      <point x="407" y="1188" type="line"/>
    </contour>
  </outline>
</glyph>
<glyph name="Y" format="2">
  <advance width="1381"/>
  <unicode hex="0059"/>
  <outline>
    <contour>
      <point x="525" y="1188" type="line"/>
      <point x="350" y="1188" type="line"/>
      <point x="698" y="617" type="line"/>
      <point x="1041" y="1188" type="line"/>
      <point x="861" y="1188" type="line"/>
      <point x="861" y="1296" type="line"/>
      <point x="1307" y="1296" type="line"/>
      <point x="1307" y="1188" type="line"/>
      <point x="1162" y="1188" type="line"/>
      <point x="751" y="501" type="line"/>
      <point x="751" y="108" type="line"/>
      <point x="1022" y="108" type="line"/>
      <point x="1022" y="0" type="line"/>
      <point x="362" y="0" type="line"/>
      <point x="362" y="108" type="line"/>
      <point x="635" y="108" type="line"/>
      <point x="635" y="501" type="line"/>
      <point x="219" y="1188" type="line"/>
      <point x="74" y="1188" type="line"/>
      <point x="74" y="1296" type="line"/>
      <point x="525" y="1296" type="line"/>
    </contour>
  </outline>
</glyph>
<glyph name="backslash" format="2">
  <advance width="1381"/>
  <unicode hex="005C"/>
  <outline>
    <contour>
      <point x="1077" y="-320" type="line"/>
      <point x="214" y="1579" type="line"/>
      <point x="314" y="1623" type="line"/>
      <point x="1177" y="-274" type="line"/>
    </contour>
  </outline>
</glyph>
<glyph name="bracketright" format="2">
  <advance width="1381"/>
  <unicode hex="005D"/>
  <outline>
    <contour>
      <point x="265" y="-101" type="line"/>
      <point x="555" y="-101" type="line"/>
      <point x="555" y="1390" type="line"/>
      <point x="265" y="1390" type="line"/>
      <point x="265" y="1505" type="line"/>
      <point x="670" y="1505" type="line"/>
      <point x="670" y="-217" type="line"/>
      <point x="265" y="-217" type="line"/>
    </contour>
  </outline>
</glyph>
<glyph name="asciicircum" format="2">
  <advance width="1381"/>
  <unicode hex="005E"/>
  <outline>
    <contour>
      <point x="169" y="354" type="line"/>
      <point x="606" y="1296" type="line"/>
      <point x="776" y="1296" type="line"/>
      <point x="1213" y="354" type="line"/>
      <point x="1066" y="354" type="line"/>
      <point x="690" y="1158" type="line"/>
      <point x="316" y="354" type="line"/>
    </contour>
  </outline>
</glyph>
<glyph name="d" format="2">
  <advance width="1381"/>
  <unicode hex="0064"/>
  <outline>
    <contour>
      <point x="1142" y="108" type="line"/>
      <point x="1338" y="108" type="line"/>
      <point x="1338" y="0" type="line"/>
      <point x="1026" y="0" type="line"/>
      <point x="1026" y="171" type="line"/>
      <point x="1022" y="171" type="line"/>
      <point x="969" y="97"/>
      <point x="847" y="18"/>
      <point x="734" y="-18"/>
      <point x="650" y="-22"/>
      <point x="633" y="-22" type="qcurve"/>
      <point x="525" y="-22"/>
      <point x="338" y="60"/>
      <point x="200" y="198"/>
      <point x="123" y="384"/>
      <point x="123" y="488" type="qcurve"/>
      <point x="123" y="606"/>
      <point x="209" y="795"/>
      <point x="354" y="927"/>
      <point x="534" y="999"/>
      <point x="628" y="999" type="qcurve"/>
      <point x="738" y="999"/>
      <point x="958" y="898"/>
      <point x="1022" y="801" type="qcurve"/>
      <point x="1026" y="801" type="line"/>
      <point x="1026" y="1320" type="line"/>
      <point x="656" y="1296" type="line"/>
      <point x="650" y="1399" type="line"/>
      <point x="1142" y="1443" type="line"/>
    </contour>
    <contour>
      <point x="1022" y="483" type="qcurve"/>
      <point x="1022" y="553"/>
      <point x="971" y="692"/>
      <point x="874" y="810"/>
      <point x="729" y="883"/>
      <point x="633" y="883" type="qcurve"/>
      <point x="558" y="883"/>
      <point x="417" y="828"/>
      <point x="310" y="725"/>
      <point x="246" y="580"/>
      <point x="246" y="490" type="qcurve"/>
      <point x="246" y="402"/>
      <point x="308" y="255"/>
      <point x="415" y="149"/>
      <point x="555" y="92"/>
      <point x="633" y="92" type="qcurve"/>
      <point x="711" y="92"/>
      <point x="852" y="152"/>
      <point x="960" y="255"/>
      <point x="1022" y="398"/>
    </contour>
  </outline>
</glyph>
<glyph name="i" format="2">
  <advance width="600"/>
  <unicode hex="0069"/>
  <outline>
    <contour>
      <point x="327" y="47" type="line"/>
      <point x="500" y="47" type="line"/>
      <point x="500" y="0" type="line"/>
      <point x="101" y="0" type="line"/>
      <point x="101" y="47" type="line"/>
      <point x="277" y="47" type="line"/>
      <point x="277" y="383" type="line"/>
      <point x="130" y="383" type="line"/>
      <point x="130" y="430" type="line"/>
      <point x="327" y="430" type="line"/>
    </contour>
    <contour>
      <point x="327" y="656" type="line"/>
      <point x="327" y="537" type="line"/>
      <point x="255" y="537" type="line"/>
      <point x="255" y="656" type="line"/>
    </contour>
  </outline>
</glyph>
<glyph name="k" format="2">
  <advance width="1381"/>
  <unicode hex="006B"/>
  <outline>
    <contour>
      <point x="426" y="550" type="line"/>
      <point x="856" y="877" type="line"/>
      <point x="856" y="881" type="line"/>
      <point x="727" y="881" type="line"/>
      <point x="727" y="990" type="line"/>
      <point x="1208" y="990" type="line"/>
      <point x="1208" y="881" type="line"/>
      <point x="1028" y="881" type="line"/>
      <point x="642" y="584" type="line"/>
      <point x="711" y="523"/>
      <point x="850" y="387"/>
      <point x="971" y="260"/>
      <point x="1070" y="147"/>
      <point x="1103" y="108" type="qcurve"/>
      <point x="1296" y="108" type="line"/>
      <point x="1296" y="0" type="line"/>
      <point x="817" y="0" type="line"/>
      <point x="817" y="108" type="line"/>
      <point x="964" y="108" type="line"/>
      <point x="930" y="149"/>
      <point x="856" y="230"/>
      <point x="760" y="325"/>
      <point x="637" y="442"/>
      <point x="555" y="520" type="qcurve"/>
      <point x="426" y="422" type="line"/>
      <point x="426" y="0" type="line"/>
      <point x="119" y="0" type="line"/>
      <point x="119" y="108" type="line"/>
      <point x="310" y="108" type="line"/>
      <point x="310" y="1329" type="line"/>
      <point x="92" y="1309" type="line"/>
      <point x="83" y="1418" type="line"/>
      <point x="426" y="1448" type="line"/>
    </contour>
  </outline>
</glyph>
<glyph name="l" format="2">
  <advance width="1381"/>
  <unicode hex="006C"/>
  <outline>
    <contour>
      <point x="749" y="108" type="line"/>
      <point x="1149" y="108" type="line"/>
      <point x="1149" y="0" type="line"/>
      <point x="233" y="0" type="line"/>
      <point x="233" y="108" type="line"/>
      <point x="633" y="108" type="line"/>
      <point x="633" y="1296" type="line"/>
      <point x="257" y="1268" type="line"/>
      <point x="246" y="1375" type="line"/>
      <point x="749" y="1406" type="line"/>
    </contour>
  </outline>
</glyph>
<glyph name="o" format="2">
  <advance width="1381"/>
  <unicode hex="006F"/>
  <outline>
    <contour>
      <point x="119" y="501" type="qcurve"/>
      <point x="119" y="606"/>
      <point x="193" y="799"/>
      <point x="336" y="946"/>
      <point x="550" y="1036"/>
      <point x="690" y="1036" type="qcurve"/>
      <point x="835" y="1036"/>
      <point x="1050" y="944"/>
      <point x="1190" y="792"/>
      <point x="1261" y="601"/>
      <point x="1261" y="501" type="qcurve"/>
      <point x="1261" y="402"/>
      <point x="1190" y="211"/>
      <point x="1050" y="60"/>
      <point x="835" y="-33"/>
      <point x="690" y="-33" type="qcurve"/>
      <point x="550" y="-33"/>
      <point x="336" y="57"/>
      <point x="193" y="207"/>
      <point x="119" y="398"/>
    </contour>
    <contour>
      <point x="244" y="501" type="qcurve"/>
      <point x="244" y="422"/>
      <point x="301" y="270"/>
      <point x="415" y="152"/>
      <point x="582" y="83"/>
      <point x="690" y="83" type="qcurve"/>
      <point x="801" y="83"/>
      <point x="969" y="154"/>
      <point x="1080" y="272"/>
      <point x="1137" y="422"/>
      <point x="1137" y="501" type="qcurve"/>
      <point x="1137" y="580"/>
      <point x="1080" y="732"/>
      <point x="969" y="850"/>
      <point x="801" y="921"/>
      <point x="690" y="921" type="qcurve"/>
      <point x="582" y="921"/>
      <point x="417" y="852"/>
      <point x="301" y="734"/>
      <point x="244" y="584"/>
    </contour>
  </outline>
</glyph>
<glyph name="r" format="2">
  <advance width="1381"/>
  <unicode hex="0072"/>
  <outline>
    <contour>
      <point x="573" y="760" type="line"/>
      <point x="613" y="799"/>
      <point x="709" y="891"/>
      <point x="826" y="969"/>
      <point x="967" y="1022"/>
      <point x="1050" y="1022" type="qcurve"/>
      <point x="1103" y="1022"/>
      <point x="1184" y="999"/>
      <point x="1245" y="962"/>
      <point x="1289" y="918"/>
      <point x="1307" y="896" type="qcurve"/>
      <point x="1186" y="806" type="line"/>
      <point x="1184" y="808"/>
      <point x="1177" y="817"/>
      <point x="1177" y="822" type="qcurve"/>
      <point x="1167" y="835"/>
      <point x="1146" y="865"/>
      <point x="1114" y="891"/>
      <point x="1066" y="907"/>
      <point x="1032" y="907" type="qcurve"/>
      <point x="955" y="907"/>
      <point x="815" y="841"/>
      <point x="698" y="746"/>
      <point x="604" y="644"/>
      <point x="573" y="613" type="qcurve"/>
      <point x="573" y="108" type="line"/>
      <point x="1010" y="108" type="line"/>
      <point x="1010" y="0" type="line"/>
      <point x="173" y="0" type="line"/>
      <point x="173" y="108" type="line"/>
      <point x="459" y="108" type="line"/>
      <point x="459" y="881" type="line"/>
      <point x="191" y="881" type="line"/>
      <point x="191" y="990" type="line"/>
      <point x="573" y="990" type="line"/>
    </contour>
  </outline>
</glyph>
<glyph name="t" format="2">
  <advance width="1381"/>
  <unicode hex="0074"/>
  <outline>
    <contour>
      <point x="514" y="958" type="line"/>
      <point x="1070" y="958" type="line"/>
      <point x="1070" y="850" type="line"/>
      <point x="514" y="850" type="line"/>
      <point x="514" y="415" type="line"/>
      <point x="514" y="350"/>
      <point x="520" y="230"/>
      <point x="564" y="138"/>
      <point x="663" y="83"/>
      <point x="753" y="83" type="qcurve"/>
      <point x="780" y="83"/>
      <point x="852" y="90"/>
      <point x="953" y="112"/>
      <point x="1096" y="161"/>
      <point x="1197" y="202" type="qcurve"/>
      <point x="1239" y="99" type="line"/>
      <point x="1128" y="48"/>
      <point x="877" y="-33"/>
      <point x="764" y="-33" type="qcurve"/>
      <point x="654" y="-33"/>
      <point x="516" y="35"/>
      <point x="479" y="71" type="qcurve"/>
      <point x="419" y="132"/>
      <point x="398" y="299"/>
      <point x="398" y="415" type="qcurve"/>
      <point x="398" y="850" type="line"/>
      <point x="242" y="850" type="line"/>
      <point x="242" y="958" type="line"/>
      <point x="398" y="958" type="line"/>
      <point x="398" y="1296" type="line"/>
      <point x="514" y="1296" type="line"/>
    </contour>
  </outline>
</glyph>
<glyph name="w" format="2">
  <advance width="1381"/>
  <unicode hex="0077"/>
  <outline>
    <contour>
      <point x="417" y="881" type="line"/>
      <point x="226" y="881" type="line"/>
      <point x="428" y="184" type="line"/>
      <point x="433" y="184" type="line"/>
      <point x="659" y="810" type="line"/>
      <point x="738" y="810" type="line"/>
      <point x="967" y="175" type="line"/>
      <point x="971" y="175" type="line"/>
      <point x="1179" y="881" type="line"/>
      <point x="986" y="881" type="line"/>
      <point x="986" y="990" type="line"/>
      <point x="1377" y="990" type="line"/>
      <point x="1377" y="881" type="line"/>
      <point x="1287" y="881" type="line"/>
      <point x="1028" y="0" type="line"/>
      <point x="909" y="0" type="line"/>
      <point x="690" y="593" type="line"/>
      <point x="477" y="0" type="line"/>
      <point x="364" y="0" type="line"/>
      <point x="103" y="881" type="line"/>
      <point x="4" y="881" type="line"/>
      <point x="4" y="990" type="line"/>
      <point x="417" y="990" type="line"/>
    </contour>
  </outline>
</glyph>
<glyph name="x" format="2">
  <advance width="1381"/>
  <unicode hex="0078"/>
  <outline>
    <contour>
      <point x="538" y="881" type="line"/>
      <point x="398" y="881" type="line"/>
      <point x="686" y="593" type="line"/>
      <point x="973" y="881" type="line"/>
      <point x="841" y="881" type="line"/>
      <point x="841" y="990" type="line"/>
      <point x="1263" y="990" type="line"/>
      <point x="1263" y="881" type="line"/>
      <point x="1123" y="881" type="line"/>
      <point x="762" y="518" type="line"/>
      <point x="1177" y="108" type="line"/>
      <point x="1322" y="108" type="line"/>
      <point x="1322" y="0" type="line"/>
      <point x="854" y="0" type="line"/>
      <point x="854" y="108" type="line"/>
      <point x="1017" y="108" type="line"/>
      <point x="686" y="444" type="line"/>
      <point x="352" y="108" type="line"/>
      <point x="514" y="108" type="line"/>
      <point x="514" y="0" type="line"/>
      <point x="60" y="0" type="line"/>
      <point x="60" y="108" type="line"/>
      <point x="202" y="108" type="line"/>
      <point x="608" y="518" type="line"/>
      <point x="242" y="881" type="line"/>
      <point x="94" y="881" type="line"/>
      <point x="94" y="990" type="line"/>
      <point x="538" y="990" type="line"/>
    </contour>
  </outline>
</glyph>
<glyph name="z" format="2">
  <advance width="600"/>
  <unicode hex="007A"/>
  <outline>
    <contour>
      <point x="496" y="387" type="line"/>
      <point x="172" y="47" type="line"/>
      <point x="449" y="47" type="line"/>
      <point x="449" y="139" type="line"/>
      <point x="496" y="139" type="line"/>
      <point x="496" y="0" type="line"/>
      <point x="104" y="0" type="line"/>
      <point x="104" y="47" type="line"/>
      <point x="425" y="383" type="line"/>
      <point x="161" y="383" type="line"/>
      <point x="161" y="294" type="line"/>
      <point x="114" y="294" type="line"/>
      <point x="114" y="430" type="line"/>
      <point x="496" y="430" type="line"/>
    </contour>
  </outline>
</glyph>
<glyph name="braceright" format="2">
  <advance width="1381"/>
  <unicode hex="007D"/>
  <outline>
    <contour>
      <point x="320" y="-108" type="line"/>
      <point x="362" y="-108"/>
      <point x="453" y="-101"/>
      <point x="529" y="-66"/>
      <point x="580" y="2"/>
      <point x="580" y="64" type="qcurve"/>
      <point x="580" y="101"/>
      <point x="571" y="178"/>
      <point x="553" y="251" type="qcurve"/>
      <point x="534" y="332" type="line"/>
      <point x="532" y="343"/>
      <point x="523" y="405"/>
      <point x="523" y="433" type="qcurve"/>
      <point x="523" y="474"/>
      <point x="545" y="538"/>
      <point x="582" y="587"/>
      <point x="628" y="626"/>
      <point x="650" y="642" type="qcurve"/>
      <point x="608" y="672"/>
      <point x="523" y="767"/>
      <point x="523" y="850" type="qcurve"/>
      <point x="523" y="877"/>
      <point x="532" y="940"/>
      <point x="534" y="951" type="qcurve"/>
      <point x="553" y="1032" type="line"/>
      <point x="571" y="1105"/>
      <point x="580" y="1181"/>
      <point x="580" y="1220" type="qcurve"/>
      <point x="580" y="1282"/>
      <point x="525" y="1351"/>
      <point x="446" y="1384"/>
      <point x="356" y="1390"/>
      <point x="320" y="1390" type="qcurve"/>
      <point x="320" y="1501" type="line"/>
      <point x="410" y="1501" type="line"/>
      <point x="448" y="1501"/>
      <point x="509" y="1483" type="qcurve"/>
      <point x="601" y="1452"/>
      <point x="700" y="1307"/>
      <point x="700" y="1215" type="qcurve"/>
      <point x="700" y="1199"/>
      <point x="695" y="1140"/>
      <point x="686" y="1100" type="qcurve"/>
      <point x="686" y="1087"/>
      <point x="670" y="1019"/>
      <point x="665" y="1006" type="qcurve"/>
      <point x="659" y="969"/>
      <point x="644" y="883"/>
      <point x="644" y="845" type="qcurve"/>
      <point x="644" y="799"/>
      <point x="692" y="744"/>
      <point x="758" y="714"/>
      <point x="822" y="703"/>
      <point x="841" y="700" type="qcurve"/>
      <point x="841" y="582" type="line"/>
      <point x="753" y="573"/>
      <point x="644" y="505"/>
      <point x="644" y="433" type="qcurve"/>
      <point x="644" y="413"/>
      <point x="650" y="366"/>
      <point x="656" y="320"/>
      <point x="663" y="285"/>
      <point x="665" y="277" type="qcurve"/>
      <point x="674" y="228"/>
      <point x="688" y="169"/>
      <point x="695" y="127"/>
      <point x="700" y="94"/>
      <point x="700" y="74" type="qcurve"/>
      <point x="700" y="-42"/>
      <point x="598" y="-163"/>
      <point x="468" y="-214"/>
      <point x="343" y="-219"/>
      <point x="320" y="-219" type="qcurve"/>
    </contour>
  </outline>
</glyph>
<glyph name="copyright" format="2">
  <advance width="600"/>
  <unicode hex="00A9"/>
  <outline>
    <contour>
      <point x="402" y="342" type="line"/>
      <point x="400" y="364"/>
      <point x="397" y="394"/>
      <point x="392" y="402" type="qcurve"/>
      <point x="384" y="415"/>
      <point x="342" y="432"/>
      <point x="316" y="432" type="qcurve"/>
      <point x="285" y="432"/>
      <point x="238" y="410"/>
      <point x="206" y="372"/>
      <point x="190" y="322"/>
      <point x="190" y="294" type="qcurve"/>
      <point x="190" y="265"/>
      <point x="207" y="212"/>
      <point x="239" y="172"/>
      <point x="284" y="149"/>
      <point x="313" y="149" type="qcurve"/>
      <point x="337" y="149"/>
      <point x="371" y="164"/>
      <point x="394" y="186"/>
      <point x="409" y="210"/>
      <point x="414" y="220" type="qcurve"/>
      <point x="438" y="210" type="line"/>
      <point x="420" y="162"/>
      <point x="343" y="118"/>
      <point x="299" y="118" type="qcurve"/>
      <point x="262" y="118"/>
      <point x="203" y="146"/>
      <point x="161" y="193"/>
      <point x="139" y="255"/>
      <point x="139" y="290" type="qcurve"/>
      <point x="139" y="323"/>
      <point x="161" y="385"/>
      <point x="204" y="432"/>
      <point x="269" y="461"/>
      <point x="312" y="461" type="qcurve"/>
      <point x="337" y="461"/>
      <point x="404" y="448"/>
      <point x="430" y="439" type="qcurve"/>
      <point x="430" y="342" type="line"/>
    </contour>
    <contour>
      <point x="300" y="580" type="qcurve"/>
      <point x="360" y="580"/>
      <point x="466" y="535"/>
      <point x="544" y="456"/>
      <point x="590" y="350"/>
      <point x="590" y="290" type="qcurve"/>
      <point x="590" y="230"/>
      <point x="544" y="124"/>
      <point x="466" y="45"/>
      <point x="360" y="-1"/>
      <point x="300" y="-1" type="qcurve"/>
      <point x="240" y="-1"/>
      <point x="135" y="45"/>
      <point x="56" y="124"/>
      <point x="10" y="230"/>
      <point x="10" y="290" type="qcurve"/>
      <point x="10" y="351"/>
      <point x="56" y="457"/>
      <point x="135" y="535"/>
      <point x="241" y="580"/>
    </contour>
    <contour>
      <point x="300" y="542" type="qcurve"/>
      <point x="248" y="542"/>
      <point x="157" y="503"/>
      <point x="88" y="434"/>
      <point x="48" y="342"/>
      <point x="48" y="289" type="qcurve"/>
      <point x="48" y="237"/>
      <point x="88" y="145"/>
      <point x="157" y="77"/>
      <point x="248" y="37"/>
      <point x="300" y="37" type="qcurve"/>
      <point x="352" y="37"/>
      <point x="443" y="77"/>
      <point x="512" y="145"/>
      <point x="552" y="237"/>
      <point x="552" y="289" type="qcurve"/>
      <point x="552" y="341"/>
      <point x="512" y="434"/>
      <point x="444" y="502"/>
      <point x="352" y="542"/>
    </contour>
  </outline>
</glyph>
<glyph name="guillemotleft" format="2">
  <advance width="508"/>
  <unicode hex="00AB"/>
  <outline>
    <contour>
      <point x="451" y="122" type="line"/>
      <point x="453" y="119"/>
      <point x="457" y="111"/>
      <point x="457" y="103" type="qcurve"/>
      <point x="457" y="89"/>
      <point x="433" y="71"/>
      <point x="415" y="71" type="qcurve"/>
      <point x="401" y="71"/>
      <point x="384" y="75"/>
      <point x="373" y="84"/>
      <point x="364" y="98"/>
      <point x="357" y="108" type="qcurve"/>
      <point x="222" y="309" type="line"/>
      <point x="357" y="510" type="line"/>
      <point x="369" y="527"/>
      <point x="390" y="547"/>
      <point x="415" y="547" type="qcurve"/>
      <point x="433" y="547"/>
      <point x="457" y="529"/>
      <point x="457" y="515" type="qcurve"/>
      <point x="457" y="507"/>
      <point x="453" y="499"/>
      <point x="451" y="496" type="qcurve"/>
      <point x="330" y="309" type="line"/>
    </contour>
    <contour>
      <point x="268" y="122" type="line"/>
      <point x="270" y="119"/>
      <point x="274" y="111"/>
      <point x="274" y="103" type="qcurve"/>
      <point x="274" y="89"/>
      <point x="250" y="71"/>
      <point x="232" y="71" type="qcurve"/>
      <point x="218" y="71"/>
      <point x="201" y="75"/>
      <point x="190" y="84"/>
      <point x="181" y="98"/>
      <point x="174" y="108" type="qcurve"/>
      <point x="39" y="309" type="line"/>
      <point x="174" y="510" type="line"/>
      <point x="180" y="520"/>
      <point x="191" y="534"/>
      <point x="203" y="543"/>
      <point x="219" y="547"/>
      <point x="232" y="547" type="qcurve"/>
      <point x="250" y="547"/>
      <point x="274" y="529"/>
      <point x="274" y="515" type="qcurve"/>
      <point x="274" y="507"/>
      <point x="270" y="499"/>
      <point x="268" y="496" type="qcurve"/>
      <point x="147" y="309" type="line"/>
    </contour>
  </outline>
</glyph>
<glyph name="overscore" format="2">
  <advance width="1381"/>
  <unicode hex="00AF"/>
  <outline>
    <contour>
      <point x="1082" y="1248" type="line"/>
      <point x="299" y="1248" type="line"/>
      <point x="299" y="1362" type="line"/>
      <point x="1082" y="1362" type="line"/>
    </contour>
  </outline>
</glyph>
<glyph name="mu" format="2">
  <advance width="1381"/>
  <unicode hex="00B5"/>
  <outline>
    <contour>
      <point x="387" y="448" type="line"/>
      <point x="387" y="393"/>
      <point x="391" y="316"/>
      <point x="402" y="257"/>
      <point x="424" y="217"/>
      <point x="439" y="196" type="qcurve"/>
      <point x="483" y="138"/>
      <point x="613" y="83"/>
      <point x="677" y="83" type="qcurve"/>
      <point x="741" y="83"/>
      <point x="883" y="138"/>
      <point x="923" y="189" type="qcurve"/>
      <point x="944" y="217"/>
      <point x="969" y="270"/>
      <point x="982" y="329"/>
      <point x="988" y="402"/>
      <point x="988" y="448" type="qcurve"/>
      <point x="988" y="894" type="line"/>
      <point x="799" y="894" type="line"/>
      <point x="799" y="990" type="line"/>
      <point x="1103" y="990" type="line"/>
      <point x="1103" y="94" type="line"/>
      <point x="1294" y="94" type="line"/>
      <point x="1294" y="0" type="line"/>
      <point x="990" y="0" type="line"/>
      <point x="990" y="123" type="line"/>
      <point x="986" y="123" type="line"/>
      <point x="967" y="94" type="line"/>
      <point x="923" y="35"/>
      <point x="762" y="-33"/>
      <point x="681" y="-33" type="qcurve"/>
      <point x="640" y="-33"/>
      <point x="562" y="-11"/>
      <point x="495" y="16"/>
      <point x="448" y="46"/>
      <point x="439" y="57" type="qcurve"/>
      <point x="419" y="79"/>
      <point x="405" y="92"/>
      <point x="384" y="108" type="qcurve"/>
      <point x="384" y="-343" type="line"/>
      <point x="272" y="-343" type="line"/>
      <point x="272" y="894" type="line"/>
      <point x="83" y="894" type="line"/>
      <point x="83" y="990" type="line"/>
      <point x="387" y="990" type="line"/>
    </contour>
  </outline>
</glyph>
<glyph name="middot" format="2">
  <advance width="600"/>
  <unicode hex="00B7"/>
  <outline>
    <contour>
      <point x="300" y="371" type="qcurve"/>
      <point x="315" y="371"/>
      <point x="342" y="361"/>
      <point x="364" y="343"/>
      <point x="377" y="318"/>
      <point x="377" y="303" type="qcurve"/>
      <point x="377" y="287"/>
      <point x="363" y="262"/>
      <point x="341" y="244"/>
      <point x="313" y="235"/>
      <point x="300" y="235" type="qcurve"/>
      <point x="287" y="235"/>
      <point x="260" y="244"/>
      <point x="237" y="261"/>
      <point x="223" y="286"/>
      <point x="223" y="303" type="qcurve"/>
      <point x="223" y="319"/>
      <point x="237" y="344"/>
      <point x="259" y="362"/>
      <point x="286" y="371"/>
    </contour>
  </outline>
</glyph>
<glyph name="onesuperior" format="2">
  <advance width="1381"/>
  <unicode hex="00B9"/>
  <outline>
    <contour>
      <point x="751" y="1430" type="line"/>
      <point x="751" y="663" type="line"/>
      <point x="980" y="663" type="line"/>
      <point x="980" y="571" type="line"/>
      <point x="422" y="571" type="line"/>
      <point x="422" y="663" type="line"/>
      <point x="656" y="663" type="line"/>
      <point x="656" y="1314" type="line"/>
      <point x="446" y="1222" type="line"/>
      <point x="410" y="1305" type="line"/>
      <point x="690" y="1430" type="line"/>
    </contour>
  </outline>
</glyph>
<glyph name="guillemotright" format="2">
  <advance width="1193"/>
  <unicode hex="00BB"/>
  <outline>
    <contour>
      <point x="123" y="292" type="line"/>
      <point x="117" y="285"/>
      <point x="108" y="268"/>
      <point x="108" y="248" type="qcurve"/>
      <point x="108" y="217"/>
      <point x="163" y="175"/>
      <point x="205" y="175" type="qcurve"/>
      <point x="237" y="175"/>
      <point x="277" y="184"/>
      <point x="301" y="205"/>
      <point x="323" y="237"/>
      <point x="338" y="260" type="qcurve"/>
      <point x="650" y="723" type="line"/>
      <point x="338" y="1186" type="line"/>
      <point x="310" y="1225"/>
      <point x="262" y="1270"/>
      <point x="205" y="1270" type="qcurve"/>
      <point x="163" y="1270"/>
      <point x="108" y="1230"/>
      <point x="108" y="1197" type="qcurve"/>
      <point x="108" y="1179"/>
      <point x="117" y="1160"/>
      <point x="123" y="1153" type="qcurve"/>
      <point x="400" y="723" type="line"/>
    </contour>
    <contour>
      <point x="543" y="292" type="line"/>
      <point x="538" y="285"/>
      <point x="529" y="268"/>
      <point x="529" y="248" type="qcurve"/>
      <point x="529" y="217"/>
      <point x="584" y="175"/>
      <point x="626" y="175" type="qcurve"/>
      <point x="659" y="175"/>
      <point x="698" y="184"/>
      <point x="723" y="205"/>
      <point x="744" y="237"/>
      <point x="760" y="260" type="qcurve"/>
      <point x="1070" y="723" type="line"/>
      <point x="760" y="1186" type="line"/>
      <point x="746" y="1208"/>
      <point x="720" y="1241"/>
      <point x="692" y="1261"/>
      <point x="656" y="1270"/>
      <point x="626" y="1270" type="qcurve"/>
      <point x="584" y="1270"/>
      <point x="529" y="1230"/>
      <point x="529" y="1197" type="qcurve"/>
      <point x="529" y="1179"/>
      <point x="538" y="1160"/>
      <point x="543" y="1153" type="qcurve"/>
      <point x="822" y="723" type="line"/>
    </contour>
  </outline>
</glyph>
<glyph name="onehalf" format="2">
  <advance width="1381"/>
  <unicode hex="00BD"/>
  <outline>
    <contour>
      <point x="336" y="1432" type="line"/>
      <point x="336" y="661" type="line"/>
      <point x="511" y="661" type="line"/>
      <point x="511" y="573" type="line"/>
      <point x="71" y="573" type="line"/>
      <point x="71" y="661" type="line"/>
      <point x="248" y="661" type="line"/>
      <point x="248" y="1324" type="line"/>
      <point x="81" y="1254" type="line"/>
      <point x="44" y="1333" type="line"/>
      <point x="283" y="1432" type="line"/>
    </contour>
    <contour>
      <point x="173" y="-207" type="line"/>
      <point x="108" y="-156" type="line"/>
      <point x="1280" y="1457" type="line"/>
      <point x="1347" y="1411" type="line"/>
    </contour>
    <contour>
      <point x="1358" y="-178" type="line"/>
      <point x="831" y="-178" type="line"/>
      <point x="831" y="-88" type="line"/>
      <point x="837" y="-81"/>
      <point x="841" y="-79"/>
      <point x="859" y="-64"/>
      <point x="907" y="-20"/>
      <point x="962" y="30" type="qcurve"/>
      <point x="1019" y="85"/>
      <point x="1103" y="163"/>
      <point x="1160" y="219"/>
      <point x="1199" y="257"/>
      <point x="1217" y="279" type="qcurve"/>
      <point x="1250" y="318"/>
      <point x="1270" y="382"/>
      <point x="1270" y="422" type="qcurve"/>
      <point x="1270" y="495"/>
      <point x="1171" y="591"/>
      <point x="1096" y="591" type="qcurve"/>
      <point x="1036" y="591"/>
      <point x="942" y="525"/>
      <point x="942" y="479" type="qcurve"/>
      <point x="942" y="474"/>
      <point x="944" y="463"/>
      <point x="944" y="451" type="qcurve"/>
      <point x="856" y="451" type="line"/>
      <point x="856" y="555" type="line"/>
      <point x="955" y="679"/>
      <point x="1100" y="679" type="qcurve"/>
      <point x="1155" y="679"/>
      <point x="1252" y="640"/>
      <point x="1322" y="571"/>
      <point x="1360" y="477"/>
      <point x="1360" y="422" type="qcurve"/>
      <point x="1360" y="341"/>
      <point x="1266" y="189"/>
      <point x="1142" y="79" type="qcurve"/>
      <point x="999" y="-48" type="line"/>
      <point x="955" y="-90" type="line"/>
      <point x="1280" y="-90" type="line"/>
      <point x="1280" y="42" type="line"/>
      <point x="1358" y="42" type="line"/>
    </contour>
  </outline>
</glyph>
<glyph name="Acircumflex" format="2">
  <advance width="1381"/>
  <unicode hex="00C2"/>
  <outline>
    <contour>
      <point x="1241" y="108" type="line"/>
      <point x="1358" y="108" type="line"/>
      <point x="1358" y="0" type="line"/>
      <point x="886" y="0" type="line"/>
      <point x="886" y="108" type="line"/>
      <point x="1121" y="108" type="line"/>
      <point x="990" y="428" type="line"/>
      <point x="389" y="428" type="line"/>
      <point x="260" y="108" type="line"/>
      <point x="495" y="108" type="line"/>
      <point x="495" y="0" type="line"/>
      <point x="22" y="0" type="line"/>
      <point x="22" y="108" type="line"/>
      <point x="145" y="108" type="line"/>
      <point x="589" y="1188" type="line"/>
      <point x="260" y="1188" type="line"/>
      <point x="260" y="1296" type="line"/>
      <point x="755" y="1296" type="line"/>
    </contour>
    <contour>
      <point x="430" y="529" type="line"/>
      <point x="951" y="529" type="line"/>
      <point x="690" y="1160" type="line"/>
    </contour>
    <contour>
      <point x="986" y="1520" type="line"/>
      <point x="912" y="1461" type="line"/>
      <point x="679" y="1614" type="line"/>
      <point x="470" y="1461" type="line"/>
      <point x="393" y="1517" type="line"/>
      <point x="596" y="1735" type="line"/>
      <point x="773" y="1735" type="line"/>
    </contour>
  </outline>
</glyph>
<glyph name="Atilde" format="2">
  <advance width="1381"/>
  <unicode hex="00C3"/>
  <outline>
    <contour>
      <point x="1241" y="108" type="line"/>
      <point x="1358" y="108" type="line"/>
      <point x="1358" y="0" type="line"/>
      <point x="886" y="0" type="line"/>
      <point x="886" y="108" type="line"/>
      <point x="1121" y="108" type="line"/>
      <point x="990" y="428" type="line"/>
      <point x="389" y="428" type="line"/>
      <point x="260" y="108" type="line"/>
      <point x="495" y="108" type="line"/>
      <point x="495" y="0" type="line"/>
      <point x="22" y="0" type="line"/>
      <point x="22" y="108" type="line"/>
      <point x="145" y="108" type="line"/>
      <point x="589" y="1188" type="line"/>
      <point x="260" y="1188" type="line"/>
      <point x="260" y="1296" type="line"/>
      <point x="755" y="1296" type="line"/>
    </contour>
    <contour>
      <point x="430" y="529" type="line"/>
      <point x="951" y="529" type="line"/>
      <point x="690" y="1160" type="line"/>
    </contour>
    <contour>
      <point x="1059" y="1701" type="line"/>
      <point x="1054" y="1696"/>
      <point x="1054" y="1685" type="qcurve"/>
      <point x="1026" y="1588"/>
      <point x="903" y="1489"/>
      <point x="828" y="1489" type="qcurve"/>
      <point x="789" y="1489"/>
      <point x="718" y="1522"/>
      <point x="665" y="1563" type="qcurve"/>
      <point x="610" y="1604"/>
      <point x="564" y="1630"/>
      <point x="538" y="1630" type="qcurve"/>
      <point x="492" y="1630"/>
      <point x="437" y="1556"/>
      <point x="419" y="1510" type="qcurve"/>
      <point x="419" y="1507"/>
      <point x="417" y="1501" type="qcurve"/>
      <point x="415" y="1496" type="line"/>
      <point x="323" y="1529" type="line"/>
      <point x="354" y="1616"/>
      <point x="453" y="1733"/>
      <point x="538" y="1733" type="qcurve"/>
      <point x="593" y="1733"/>
      <point x="672" y="1687"/>
      <point x="709" y="1656" type="qcurve"/>
      <point x="753" y="1623"/>
      <point x="810" y="1593"/>
      <point x="835" y="1593" type="qcurve"/>
      <point x="865" y="1593"/>
      <point x="909" y="1623"/>
      <point x="940" y="1667"/>
      <point x="960" y="1713"/>
      <point x="967" y="1731" type="qcurve"/>
    </contour>
  </outline>
</glyph>
<glyph name="Egrave" format="2">
  <advance width="1381"/>
  <unicode hex="00C8"/>
  <outline>
    <contour>
      <point x="1234" y="872" type="line"/>
      <point x="1128" y="872" type="line"/>
      <point x="1105" y="1188" type="line"/>
      <point x="442" y="1188" type="line"/>
      <point x="442" y="738" type="line"/>
      <point x="815" y="738" type="line"/>
      <point x="815" y="907" type="line"/>
      <point x="921" y="907" type="line"/>
      <point x="921" y="465" type="line"/>
      <point x="815" y="465" type="line"/>
      <point x="815" y="631" type="line"/>
      <point x="442" y="631" type="line"/>
      <point x="442" y="108" type="line"/>
      <point x="1128" y="108" type="line"/>
      <point x="1140" y="424" type="line"/>
      <point x="1245" y="424" type="line"/>
      <point x="1245" y="0" type="line"/>
      <point x="132" y="0" type="line"/>
      <point x="132" y="108" type="line"/>
      <point x="327" y="108" type="line"/>
      <point x="327" y="1188" type="line"/>
      <point x="132" y="1188" type="line"/>
      <point x="132" y="1296" type="line"/>
      <point x="1225" y="1296" type="line"/>
    </contour>
    <contour>
      <point x="861" y="1465" type="line"/>
      <point x="741" y="1465" type="line"/>
      <point x="437" y="1729" type="line"/>
      <point x="683" y="1729" type="line"/>
    </contour>
  </outline>
</glyph>
<glyph name="Edieresis" format="2">
  <advance width="1381"/>
  <unicode hex="00CB"/>
  <outline>
    <contour>
      <point x="1234" y="872" type="line"/>
      <point x="1128" y="872" type="line"/>
      <point x="1105" y="1188" type="line"/>
      <point x="442" y="1188" type="line"/>
      <point x="442" y="738" type="line"/>
      <point x="815" y="738" type="line"/>
      <point x="815" y="907" type="line"/>
      <point x="921" y="907" type="line"/>
      <point x="921" y="465" type="line"/>
      <point x="815" y="465" type="line"/>
      <point x="815" y="631" type="line"/>
      <point x="442" y="631" type="line"/>
      <point x="442" y="108" type="line"/>
      <point x="1128" y="108" type="line"/>
      <point x="1140" y="424" type="line"/>
      <point x="1245" y="424" type="line"/>
      <point x="1245" y="0" type="line"/>
      <point x="132" y="0" type="line"/>
      <point x="132" y="108" type="line"/>
      <point x="327" y="108" type="line"/>
      <point x="327" y="1188" type="line"/>
      <point x="132" y="1188" type="line"/>
      <point x="132" y="1296" type="line"/>
      <point x="1225" y="1296" type="line"/>
    </contour>
    <contour>
      <point x="624" y="1735" type="line"/>
      <point x="624" y="1487" type="line"/>
      <point x="459" y="1487" type="line"/>
      <point x="459" y="1735" type="line"/>
    </contour>
    <contour>
      <point x="923" y="1735" type="line"/>
      <point x="923" y="1487" type="line"/>
      <point x="758" y="1487" type="line"/>
      <point x="758" y="1735" type="line"/>
    </contour>
  </outline>
</glyph>
<glyph name="Idieresis" format="2">
  <advance width="600"/>
  <unicode hex="00CF"/>
  <outline>
    <contour>
      <point x="500" y="516" type="line"/>
      <point x="325" y="516" type="line"/>
      <point x="325" y="47" type="line"/>
      <point x="500" y="47" type="line"/>
      <point x="500" y="0" type="line"/>
      <point x="100" y="0" type="line"/>
      <point x="100" y="47" type="line"/>
      <point x="275" y="47" type="line"/>
      <point x="275" y="516" type="line"/>
      <point x="100" y="516" type="line"/>
      <point x="100" y="563" type="line"/>
      <point x="500" y="563" type="line"/>
    </contour>
    <contour>
      <point x="271" y="754" type="line"/>
      <point x="271" y="646" type="line"/>
      <point x="199" y="646" type="line"/>
      <point x="199" y="754" type="line"/>
    </contour>
    <contour>
      <point x="401" y="754" type="line"/>
      <point x="401" y="646" type="line"/>
      <point x="329" y="646" type="line"/>
      <point x="329" y="754" type="line"/>
    </contour>
  </outline>
</glyph>
<glyph name="Ocircumflex" format="2">
  <advance width="1381"/>
  <unicode hex="00D4"/>
  <outline>
    <contour>
      <point x="99" y="646" type="qcurve"/>
      <point x="99" y="789"/>
      <point x="182" y="1041"/>
      <point x="336" y="1227"/>
      <point x="555" y="1335"/>
      <point x="690" y="1335" type="qcurve"/>
      <point x="828" y="1335"/>
      <point x="1048" y="1225"/>
      <point x="1202" y="1036"/>
      <point x="1282" y="787"/>
      <point x="1282" y="646" type="qcurve"/>
      <point x="1282" y="509"/>
      <point x="1199" y="257"/>
      <point x="1048" y="71"/>
      <point x="828" y="-39"/>
      <point x="690" y="-39" type="qcurve"/>
      <point x="555" y="-39"/>
      <point x="336" y="69"/>
      <point x="182" y="255"/>
      <point x="99" y="505"/>
    </contour>
    <contour>
      <point x="224" y="650" type="qcurve"/>
      <point x="224" y="545"/>
      <point x="283" y="341"/>
      <point x="400" y="178"/>
      <point x="575" y="76"/>
      <point x="690" y="76" type="qcurve"/>
      <point x="804" y="76"/>
      <point x="978" y="175"/>
      <point x="1098" y="336"/>
      <point x="1158" y="541"/>
      <point x="1158" y="650" type="qcurve"/>
      <point x="1158" y="758"/>
      <point x="1096" y="964"/>
      <point x="976" y="1123"/>
      <point x="804" y="1220"/>
      <point x="690" y="1220" type="qcurve"/>
      <point x="571" y="1220"/>
      <point x="396" y="1116"/>
      <point x="281" y="953"/>
      <point x="224" y="749"/>
    </contour>
    <contour>
      <point x="986" y="1520" type="line"/>
      <point x="912" y="1461" type="line"/>
      <point x="679" y="1614" type="line"/>
      <point x="470" y="1461" type="line"/>
      <point x="393" y="1517" type="line"/>
      <point x="596" y="1735" type="line"/>
      <point x="773" y="1735" type="line"/>
    </contour>
  </outline>
</glyph>
<glyph name="multiply" format="2">
  <advance width="1381"/>
  <unicode hex="00D7"/>
  <outline>
    <contour>
      <point x="354" y="1123" type="line"/>
      <point x="690" y="787" type="line"/>
      <point x="1026" y="1123" type="line"/>
      <point x="1109" y="1043" type="line"/>
      <point x="771" y="705" type="line"/>
      <point x="1109" y="369" type="line"/>
      <point x="1026" y="285" type="line"/>
      <point x="690" y="624" type="line"/>
      <point x="354" y="285" type="line"/>
      <point x="272" y="369" type="line"/>
      <point x="610" y="705" type="line"/>
      <point x="272" y="1043" type="line"/>
    </contour>
  </outline>
</glyph>
<glyph name="Thorn" format="2">
  <advance width="600"/>
  <unicode hex="00DE"/>
  <outline>
    <contour>
      <point x="315" y="0" type="line"/>
      <point x="71" y="0" type="line"/>
      <point x="71" y="47" type="line"/>
      <point x="152" y="47" type="line"/>
      <point x="152" y="516" type="line"/>
      <point x="71" y="516" type="line"/>
      <point x="71" y="563" type="line"/>
      <point x="315" y="563" type="line"/>
      <point x="315" y="516" type="line"/>
      <point x="202" y="516" type="line"/>
      <point x="202" y="465" type="line"/>
      <point x="257" y="465" type="line"/>
      <point x="303" y="465"/>
      <point x="366" y="463"/>
      <point x="411" y="456"/>
      <point x="444" y="444"/>
      <point x="460" y="434" type="qcurve"/>
      <point x="492" y="414"/>
      <point x="534" y="341"/>
      <point x="534" y="295" type="qcurve"/>
      <point x="534" y="250"/>
      <point x="492" y="171"/>
      <point x="460" y="153" type="qcurve"/>
      <point x="442" y="142"/>
      <point x="408" y="130"/>
      <point x="363" y="124"/>
      <point x="302" y="123"/>
      <point x="257" y="123" type="qcurve"/>
      <point x="202" y="123" type="line"/>
      <point x="202" y="47" type="line"/>
      <point x="315" y="47" type="line"/>
    </contour>
    <contour>
      <point x="202" y="170" type="line"/>
      <point x="259" y="170" type="line"/>
      <point x="320" y="170"/>
      <point x="412" y="176"/>
      <point x="438" y="197" type="qcurve"/>
      <point x="452" y="208"/>
      <point x="480" y="256"/>
      <point x="480" y="292" type="qcurve"/>
      <point x="480" y="333"/>
      <point x="440" y="388"/>
      <point x="420" y="398" type="qcurve"/>
      <point x="411" y="403"/>
      <point x="391" y="410"/>
      <point x="364" y="415"/>
      <point x="327" y="418"/>
      <point x="300" y="418" type="qcurve"/>
      <point x="202" y="418" type="line"/>
    </contour>
  </outline>
</glyph>
<glyph name="germandbls" format="2">
  <advance width="1381"/>
  <unicode hex="00DF"/>
  <outline>
    <contour>
      <point x="325" y="1039" type="line"/>
      <point x="325" y="1131"/>
      <point x="387" y="1280"/>
      <point x="490" y="1384"/>
      <point x="624" y="1439"/>
      <point x="698" y="1439" type="qcurve"/>
      <point x="773" y="1439"/>
      <point x="896" y="1386"/>
      <point x="978" y="1296"/>
      <point x="1024" y="1177"/>
      <point x="1024" y="1109" type="qcurve"/>
      <point x="1024" y="1006"/>
      <point x="914" y="850"/>
      <point x="833" y="817" type="qcurve"/>
      <point x="865" y="806"/>
      <point x="982" y="758"/>
      <point x="1096" y="659"/>
      <point x="1181" y="495"/>
      <point x="1181" y="371" type="qcurve"/>
      <point x="1181" y="294"/>
      <point x="1133" y="154"/>
      <point x="1036" y="48"/>
      <point x="896" y="-16"/>
      <point x="804" y="-16" type="qcurve"/>
      <point x="690" y="-16"/>
      <point x="566" y="42"/>
      <point x="538" y="60" type="qcurve"/>
      <point x="538" y="180" type="line"/>
      <point x="580" y="154"/>
      <point x="709" y="99"/>
      <point x="801" y="99" type="qcurve"/>
      <point x="843" y="99"/>
      <point x="932" y="129"/>
      <point x="1008" y="196"/>
      <point x="1057" y="303"/>
      <point x="1057" y="382" type="qcurve"/>
      <point x="1057" y="734"/>
      <point x="591" y="751" type="qcurve"/>
      <point x="591" y="856" type="line"/>
      <point x="615" y="859"/>
      <point x="718" y="872"/>
      <point x="824" y="923"/>
      <point x="905" y="1019"/>
      <point x="905" y="1107" type="qcurve"/>
      <point x="905" y="1199"/>
      <point x="799" y="1324"/>
      <point x="692" y="1324" type="qcurve"/>
      <point x="650" y="1324"/>
      <point x="560" y="1294"/>
      <point x="486" y="1225"/>
      <point x="439" y="1107"/>
      <point x="439" y="1019" type="qcurve"/>
      <point x="439" y="0" type="line"/>
      <point x="149" y="0" type="line"/>
      <point x="149" y="108" type="line"/>
      <point x="325" y="108" type="line"/>
    </contour>
  </outline>
</glyph>
<glyph name="agrave" format="2">
  <advance width="1381"/>
  <unicode hex="00E0"/>
  <outline>
    <contour>
      <point x="1266" y="108" type="line"/>
      <point x="1266" y="0" type="line"/>
      <point x="946" y="0" type="line"/>
      <point x="946" y="165" type="line"/>
      <point x="912" y="134"/>
      <point x="817" y="62"/>
      <point x="707" y="4"/>
      <point x="578" y="-33"/>
      <point x="507" y="-33" type="qcurve"/>
      <point x="419" y="-33"/>
      <point x="283" y="26"/>
      <point x="187" y="117"/>
      <point x="136" y="233"/>
      <point x="136" y="292" type="qcurve"/>
      <point x="136" y="338"/>
      <point x="182" y="459"/>
      <point x="292" y="566"/>
      <point x="481" y="640"/>
      <point x="624" y="640" type="qcurve"/>
      <point x="631" y="640"/>
      <point x="695" y="637"/>
      <point x="785" y="631"/>
      <point x="894" y="619"/>
      <point x="946" y="610" type="qcurve"/>
      <point x="946" y="681" type="line"/>
      <point x="946" y="709"/>
      <point x="937" y="792"/>
      <point x="886" y="870"/>
      <point x="771" y="925"/>
      <point x="668" y="925" type="qcurve"/>
      <point x="606" y="925"/>
      <point x="413" y="889"/>
      <point x="274" y="828" type="qcurve"/>
      <point x="230" y="932" type="line"/>
      <point x="303" y="964"/>
      <point x="532" y="1036"/>
      <point x="670" y="1036" type="qcurve"/>
      <point x="817" y="1036"/>
      <point x="976" y="951"/>
      <point x="1050" y="833"/>
      <point x="1061" y="716"/>
      <point x="1061" y="681" type="qcurve"/>
      <point x="1061" y="108" type="line"/>
    </contour>
    <contour>
      <point x="946" y="505" type="line"/>
      <point x="907" y="511"/>
      <point x="744" y="529"/>
      <point x="646" y="529" type="qcurve"/>
      <point x="505" y="529"/>
      <point x="347" y="463"/>
      <point x="274" y="378"/>
      <point x="260" y="299"/>
      <point x="260" y="290" type="qcurve"/>
      <point x="260" y="246"/>
      <point x="299" y="171"/>
      <point x="369" y="112"/>
      <point x="456" y="79"/>
      <point x="505" y="79" type="qcurve"/>
      <point x="532" y="79"/>
      <point x="622" y="92"/>
      <point x="736" y="141"/>
      <point x="872" y="237"/>
      <point x="946" y="320" type="qcurve"/>
    </contour>
    <contour>
      <point x="861" y="1158" type="line"/>
      <point x="741" y="1158" type="line"/>
      <point x="437" y="1423" type="line"/>
      <point x="683" y="1423" type="line"/>
    </contour>
  </outline>
</glyph>
<glyph name="atilde" format="2">
  <advance width="1381"/>
  <unicode hex="00E3"/>
  <outline>
    <contour>
      <point x="1266" y="108" type="line"/>
      <point x="1266" y="0" type="line"/>
      <point x="946" y="0" type="line"/>
      <point x="946" y="165" type="line"/>
      <point x="912" y="134"/>
      <point x="817" y="62"/>
      <point x="707" y="4"/>
      <point x="578" y="-33"/>
      <point x="507" y="-33" type="qcurve"/>
      <point x="419" y="-33"/>
      <point x="283" y="26"/>
      <point x="187" y="117"/>
      <point x="136" y="233"/>
      <point x="136" y="292" type="qcurve"/>
      <point x="136" y="338"/>
      <point x="182" y="459"/>
      <point x="292" y="566"/>
      <point x="481" y="640"/>
      <point x="624" y="640" type="qcurve"/>
      <point x="631" y="640"/>
      <point x="695" y="637"/>
      <point x="785" y="631"/>
      <point x="894" y="619"/>
      <point x="946" y="610" type="qcurve"/>
      <point x="946" y="681" type="line"/>
      <point x="946" y="709"/>
      <point x="937" y="792"/>
      <point x="886" y="870"/>
      <point x="771" y="925"/>
      <point x="668" y="925" type="qcurve"/>
      <point x="606" y="925"/>
      <point x="413" y="889"/>
      <point x="274" y="828" type="qcurve"/>
      <point x="230" y="932" type="line"/>
      <point x="303" y="964"/>
      <point x="532" y="1036"/>
      <point x="670" y="1036" type="qcurve"/>
      <point x="817" y="1036"/>
      <point x="976" y="951"/>
      <point x="1050" y="833"/>
      <point x="1061" y="716"/>
      <point x="1061" y="681" type="qcurve"/>
      <point x="1061" y="108" type="line"/>
    </contour>
    <contour>
      <point x="946" y="505" type="line"/>
      <point x="907" y="511"/>
      <point x="744" y="529"/>
      <point x="646" y="529" type="qcurve"/>
      <point x="505" y="529"/>
      <point x="347" y="463"/>
      <point x="274" y="378"/>
      <point x="260" y="299"/>
      <point x="260" y="290" type="qcurve"/>
      <point x="260" y="246"/>
      <point x="299" y="171"/>
      <point x="369" y="112"/>
      <point x="456" y="79"/>
      <point x="505" y="79" type="qcurve"/>
      <point x="532" y="79"/>
      <point x="622" y="92"/>
      <point x="736" y="141"/>
      <point x="872" y="237"/>
      <point x="946" y="320" type="qcurve"/>
    </contour>
    <contour>
      <point x="1059" y="1395" type="line"/>
      <point x="1054" y="1390"/>
      <point x="1054" y="1379" type="qcurve"/>
      <point x="1026" y="1282"/>
      <point x="903" y="1184"/>
      <point x="828" y="1184" type="qcurve"/>
      <point x="789" y="1184"/>
      <point x="718" y="1215"/>
      <point x="665" y="1257" type="qcurve"/>
      <point x="610" y="1298"/>
      <point x="564" y="1324"/>
      <point x="538" y="1324" type="qcurve"/>
      <point x="492" y="1324"/>
      <point x="437" y="1250"/>
      <point x="419" y="1204" type="qcurve"/>
      <point x="419" y="1202"/>
      <point x="417" y="1197" type="qcurve"/>
      <point x="415" y="1190" type="line"/>
      <point x="323" y="1222" type="line"/>
      <point x="354" y="1309"/>
      <point x="453" y="1427"/>
      <point x="538" y="1427" type="qcurve"/>
      <point x="593" y="1427"/>
      <point x="672" y="1381"/>
      <point x="709" y="1349" type="qcurve"/>
      <point x="753" y="1316"/>
      <point x="810" y="1287"/>
      <point x="835" y="1287" type="qcurve"/>
      <point x="865" y="1287"/>
      <point x="909" y="1316"/>
      <point x="940" y="1360"/>
      <point x="960" y="1406"/>
      <point x="967" y="1425" type="qcurve"/>
    </contour>
  </outline>
</glyph>
<glyph name="ccedilla" format="2">
  <advance width="1381"/>
  <unicode hex="00E7"/>
  <outline>
    <contour>
      <point x="760" y="-60" type="line"/>
      <point x="808" y="-71"/>
      <point x="854" y="-147"/>
      <point x="854" y="-187" type="qcurve"/>
      <point x="854" y="-205"/>
      <point x="841" y="-255"/>
      <point x="810" y="-301"/>
      <point x="758" y="-332"/>
      <point x="716" y="-332" type="qcurve"/>
      <point x="670" y="-332"/>
      <point x="610" y="-299"/>
      <point x="582" y="-281" type="qcurve"/>
      <point x="633" y="-196" type="line"/>
      <point x="670" y="-221"/>
      <point x="690" y="-230"/>
      <point x="707" y="-230" type="qcurve"/>
      <point x="734" y="-230"/>
      <point x="751" y="-200"/>
      <point x="751" y="-189" type="qcurve"/>
      <point x="751" y="-158"/>
      <point x="711" y="-149"/>
      <point x="703" y="-149" type="qcurve"/>
      <point x="683" y="-149"/>
      <point x="661" y="-152"/>
      <point x="650" y="-154" type="qcurve"/>
      <point x="659" y="-30" type="line"/>
      <point x="569" y="-28"/>
      <point x="391" y="46"/>
      <point x="251" y="182"/>
      <point x="163" y="375"/>
      <point x="163" y="497" type="qcurve"/>
      <point x="163" y="589"/>
      <point x="230" y="776"/>
      <point x="364" y="927"/>
      <point x="571" y="1024"/>
      <point x="714" y="1024" type="qcurve"/>
      <point x="804" y="1024"/>
      <point x="942" y="980"/>
      <point x="1013" y="930" type="qcurve"/>
      <point x="1015" y="927"/>
      <point x="1041" y="909"/>
      <point x="1059" y="896"/>
      <point x="1061" y="896" type="qcurve"/>
      <point x="1068" y="896"/>
      <point x="1077" y="921"/>
      <point x="1080" y="925" type="qcurve"/>
      <point x="1098" y="1019" type="line"/>
      <point x="1204" y="1008" type="line"/>
      <point x="1199" y="973"/>
      <point x="1184" y="856"/>
      <point x="1184" y="797" type="qcurve"/>
      <point x="1184" y="734"/>
      <point x="1190" y="644" type="qcurve"/>
      <point x="1085" y="628" type="line"/>
      <point x="1066" y="707"/>
      <point x="1034" y="797"/>
      <point x="990" y="833" type="qcurve"/>
      <point x="958" y="859"/>
      <point x="883" y="889"/>
      <point x="813" y="905"/>
      <point x="749" y="909"/>
      <point x="725" y="909" type="qcurve"/>
      <point x="615" y="909"/>
      <point x="451" y="837"/>
      <point x="341" y="720"/>
      <point x="288" y="575"/>
      <point x="288" y="499" type="qcurve"/>
      <point x="288" y="426"/>
      <point x="338" y="279"/>
      <point x="442" y="158"/>
      <point x="604" y="83"/>
      <point x="716" y="83" type="qcurve"/>
      <point x="841" y="83"/>
      <point x="1077" y="191"/>
      <point x="1204" y="279" type="qcurve"/>
      <point x="1263" y="191" type="line"/>
      <point x="1137" y="94"/>
      <point x="905" y="-16"/>
      <point x="760" y="-30" type="qcurve"/>
    </contour>
  </outline>
</glyph>
<glyph name="eacute" format="2">
  <advance width="1381"/>
  <unicode hex="00E9"/>
  <outline>
    <contour>
      <point x="1287" y="132" type="line"/>
      <point x="1241" y="106"/>
      <point x="1116" y="48"/>
      <point x="971" y="0"/>
      <point x="810" y="-33"/>
      <point x="729" y="-33" type="qcurve"/>
      <point x="589" y="-33"/>
      <point x="380" y="55"/>
      <point x="239" y="200"/>
      <point x="171" y="391"/>
      <point x="171" y="492" type="qcurve"/>
      <point x="171" y="598"/>
      <point x="246" y="792"/>
      <point x="387" y="940"/>
      <point x="589" y="1024"/>
      <point x="716" y="1024" type="qcurve"/>
      <point x="847" y="1024"/>
      <point x="1043" y="942"/>
      <point x="1173" y="808"/>
      <point x="1239" y="644"/>
      <point x="1239" y="566" type="qcurve"/>
      <point x="1239" y="538"/>
      <point x="1234" y="474"/>
      <point x="1234" y="463" type="qcurve"/>
      <point x="294" y="463" type="line"/>
      <point x="297" y="417"/>
      <point x="334" y="285"/>
      <point x="430" y="165"/>
      <point x="598" y="79"/>
      <point x="732" y="79" type="qcurve"/>
      <point x="804" y="79"/>
      <point x="953" y="112"/>
      <point x="1087" y="161"/>
      <point x="1197" y="214"/>
      <point x="1234" y="233" type="qcurve"/>
    </contour>
    <contour>
      <point x="1114" y="571" type="line"/>
      <point x="1114" y="626"/>
      <point x="1066" y="749"/>
      <point x="969" y="850"/>
      <point x="819" y="914"/>
      <point x="716" y="914" type="qcurve"/>
      <point x="601" y="914"/>
      <point x="446" y="835"/>
      <point x="350" y="727"/>
      <point x="301" y="610"/>
      <point x="294" y="571" type="qcurve"/>
    </contour>
    <contour>
      <point x="495" y="1158" type="line"/>
      <point x="700" y="1423" type="line"/>
      <point x="946" y="1423" type="line"/>
      <point x="617" y="1158" type="line"/>
    </contour>
  </outline>
</glyph>
<glyph name="udieresis" format="2">
  <advance width="1381"/>
  <unicode hex="00FC"/>
  <outline>
    <contour>
      <point x="378" y="380" type="line"/>
      <point x="378" y="356"/>
      <point x="384" y="257"/>
      <point x="428" y="158"/>
      <point x="520" y="83"/>
      <point x="608" y="83" type="qcurve"/>
      <point x="705" y="83"/>
      <point x="881" y="180"/>
      <point x="978" y="283" type="qcurve"/>
      <point x="978" y="881" type="line"/>
      <point x="780" y="881" type="line"/>
      <point x="780" y="990" type="line"/>
      <point x="1094" y="990" type="line"/>
      <point x="1094" y="108" type="line"/>
      <point x="1280" y="108" type="line"/>
      <point x="1280" y="0" type="line"/>
      <point x="978" y="0" type="line"/>
      <point x="978" y="127" type="line"/>
      <point x="953" y="106"/>
      <point x="883" y="51"/>
      <point x="795" y="2"/>
      <point x="683" y="-33"/>
      <point x="617" y="-33" type="qcurve"/>
      <point x="509" y="-33"/>
      <point x="371" y="46"/>
      <point x="292" y="165"/>
      <point x="262" y="310"/>
      <point x="262" y="380" type="qcurve"/>
      <point x="262" y="881" type="line"/>
      <point x="74" y="881" type="line"/>
      <point x="74" y="990" type="line"/>
      <point x="378" y="990" type="line"/>
    </contour>
    <contour>
      <point x="624" y="1430" type="line"/>
      <point x="624" y="1181" type="line"/>
      <point x="459" y="1181" type="line"/>
      <point x="459" y="1430" type="line"/>
    </contour>
    <contour>
      <point x="923" y="1430" type="line"/>
      <point x="923" y="1181" type="line"/>
      <point x="758" y="1181" type="line"/>
      <point x="758" y="1430" type="line"/>
    </contour>
  </outline>
</glyph>
<glyph name="Ydieresis" format="2">
  <advance width="1381"/>
  <unicode hex="0178"/>
  <outline>
    <contour>
      <point x="525" y="1188" type="line"/>
      <point x="350" y="1188" type="line"/>
      <point x="698" y="617" type="line"/>
      <point x="1041" y="1188" type="line"/>
      <point x="861" y="1188" type="line"/>
      <point x="861" y="1296" type="line"/>
      <point x="1307" y="1296" type="line"/>
      <point x="1307" y="1188" type="line"/>
      <point x="1162" y="1188" type="line"/>
      <point x="751" y="501" type="line"/>
      <point x="751" y="108" type="line"/>
      <point x="1022" y="108" type="line"/>
      <point x="1022" y="0" type="line"/>
      <point x="362" y="0" type="line"/>
      <point x="362" y="108" type="line"/>
      <point x="635" y="108" type="line"/>
      <point x="635" y="501" type="line"/>
      <point x="219" y="1188" type="line"/>
      <point x="74" y="1188" type="line"/>
      <point x="74" y="1296" type="line"/>
      <point x="525" y="1296" type="line"/>
    </contour>
    <contour>
      <point x="624" y="1735" type="line"/>
      <point x="624" y="1487" type="line"/>
      <point x="459" y="1487" type="line"/>
      <point x="459" y="1735" type="line"/>
    </contour>
    <contour>
      <point x="923" y="1735" type="line"/>
      <point x="923" y="1487" type="line"/>
      <point x="758" y="1487" type="line"/>
      <point x="758" y="1735" type="line"/>
    </contour>
  </outline>
</glyph>
<glyph name="tilde" format="2">
  <advance width="1381"/>
  <unicode hex="02DC"/>
  <outline>
    <contour>
      <point x="1059" y="1395" type="line"/>
      <point x="1054" y="1390"/>
      <point x="1054" y="1379" type="qcurve"/>
      <point x="1026" y="1282"/>
      <point x="903" y="1184"/>
      <point x="828" y="1184" type="qcurve"/>
      <point x="789" y="1184"/>
      <point x="718" y="1215"/>
      <point x="665" y="1257" type="qcurve"/>
      <point x="610" y="1298"/>
      <point x="564" y="1324"/>
      <point x="538" y="1324" type="qcurve"/>
      <point x="492" y="1324"/>
      <point x="437" y="1250"/>
      <point x="419" y="1204" type="qcurve"/>
      <point x="419" y="1202"/>
      <point x="417" y="1197" type="qcurve"/>
      <point x="415" y="1190" type="line"/>
      <point x="323" y="1222" type="line"/>
      <point x="354" y="1309"/>
      <point x="453" y="1427"/>
      <point x="538" y="1427" type="qcurve"/>
      <point x="593" y="1427"/>
      <point x="672" y="1381"/>
      <point x="709" y="1349" type="qcurve"/>
      <point x="753" y="1316"/>
      <point x="810" y="1287"/>
      <point x="835" y="1287" type="qcurve"/>
      <point x="865" y="1287"/>
      <point x="909" y="1316"/>
      <point x="940" y="1360"/>
      <point x="960" y="1406"/>
      <point x="967" y="1425" type="qcurve"/>
    </contour>
  </outline>
</glyph>
<glyph name="uni1200" format="2">
  <advance width="1012"/>
  <unicode hex="1200"/>
  <outline>
    <contour>
      <point x="793" y="1296" type="qcurve"/>
      <point x="723" y="1296"/>
      <point x="679" y="1250"/>
      <point x="679" y="1204" type="qcurve"/>
      <point x="679" y="288" type="line"/>
      <point x="679" y="132"/>
      <point x="581" y="2"/>
      <point x="495" y="2" type="qcurve"/>
      <point x="412" y="2"/>
      <point x="320" y="130"/>
      <point x="320" y="288" type="qcurve"/>
      <point x="320" y="1204" type="line"/>
      <point x="320" y="1250"/>
      <point x="280" y="1296"/>
      <point x="214" y="1296" type="qcurve"/>
      <point x="143" y="1296"/>
      <point x="99" y="1250"/>
      <point x="99" y="1204" type="qcurve"/>
      <point x="99" y="509" type="line"/>
      <point x="99" y="334"/>
      <point x="124" y="130"/>
      <point x="206" y="18"/>
      <point x="366" y="-22"/>
      <point x="501" y="-32" type="qcurve"/>
      <point x="629" y="-20"/>
      <point x="785" y="20"/>
      <point x="871" y="130"/>
      <point x="899" y="334"/>
      <point x="899" y="509" type="qcurve"/>
      <point x="899" y="1204" type="line"/>
      <point x="899" y="1250"/>
      <point x="859" y="1296"/>
    </contour>
  </outline>
</glyph>
<glyph name="uni1201" format="2">
  <advance width="1189"/>
  <unicode hex="1201"/>
  <outline>
    <contour>
      <point x="951" y="783" type="line"/>
      <point x="951" y="705" type="line"/>
      <point x="951" y="659"/>
      <point x="995" y="613"/>
      <point x="1065" y="613" type="qcurve"/>
      <point x="1130" y="613"/>
      <point x="1170" y="659"/>
      <point x="1170" y="705" type="qcurve"/>
      <point x="1170" y="783" type="line"/>
      <point x="1170" y="805"/>
      <point x="1153" y="813"/>
      <point x="1140" y="813" type="qcurve"/>
      <point x="877" y="813" type="line"/>
      <point x="877" y="1204" type="line"/>
      <point x="877" y="1250"/>
      <point x="837" y="1296"/>
      <point x="771" y="1296" type="qcurve"/>
      <point x="701" y="1296"/>
      <point x="657" y="1250"/>
      <point x="657" y="1204" type="qcurve"/>
      <point x="657" y="288" type="line"/>
      <point x="657" y="210"/>
      <point x="623" y="101"/>
      <point x="570" y="32"/>
      <point x="507" y="2"/>
      <point x="480" y="2" type="qcurve"/>
      <point x="396" y="2"/>
      <point x="297" y="130"/>
      <point x="297" y="288" type="qcurve"/>
      <point x="297" y="1204" type="line"/>
      <point x="297" y="1250"/>
      <point x="257" y="1296"/>
      <point x="192" y="1296" type="qcurve"/>
      <point x="122" y="1296"/>
      <point x="78" y="1250"/>
      <point x="78" y="1204" type="qcurve"/>
      <point x="78" y="412" type="line"/>
      <point x="78" y="272"/>
      <point x="101" y="106"/>
      <point x="183" y="14"/>
      <point x="343" y="-22"/>
      <point x="480" y="-32" type="qcurve"/>
      <point x="608" y="-20"/>
      <point x="763" y="20"/>
      <point x="848" y="130"/>
      <point x="877" y="334"/>
      <point x="877" y="509" type="qcurve"/>
      <point x="877" y="783" type="line"/>
    </contour>
  </outline>
</glyph>
<glyph name="uni1202" format="2">
  <advance width="572"/>
  <unicode hex="1202"/>
  <outline>
    <contour>
      <point x="399" y="57" type="qcurve"/>
      <point x="399" y="603" type="line"/>
      <point x="399" y="626"/>
      <point x="379" y="649"/>
      <point x="346" y="649" type="qcurve"/>
      <point x="311" y="649"/>
      <point x="289" y="626"/>
      <point x="289" y="603" type="qcurve"/>
      <point x="289" y="380" type="line"/>
      <point x="289" y="369"/>
      <point x="275" y="346"/>
      <point x="254" y="327"/>
      <point x="226" y="315"/>
      <point x="213" y="315" type="qcurve"/>
      <point x="192" y="315"/>
      <point x="166" y="330"/>
      <point x="153" y="364"/>
      <point x="148" y="419"/>
      <point x="148" y="458" type="qcurve"/>
      <point x="148" y="603" type="line"/>
      <point x="148" y="626"/>
      <point x="128" y="649"/>
      <point x="95" y="649" type="qcurve"/>
      <point x="60" y="649"/>
      <point x="38" y="626"/>
      <point x="38" y="603" type="qcurve"/>
      <point x="38" y="424" type="line"/>
      <point x="38" y="382"/>
      <point x="52" y="332"/>
      <point x="91" y="305"/>
      <point x="159" y="296"/>
      <point x="213" y="296" type="qcurve"/>
      <point x="240" y="296"/>
      <point x="277" y="307"/>
      <point x="289" y="318" type="qcurve"/>
      <point x="289" y="41" type="line"/>
      <point x="289" y="12"/>
      <point x="308" y="-16"/>
      <point x="337" y="-16" type="qcurve"/>
      <point x="435" y="-16" type="line"/>
      <point x="435" y="-61" type="line"/>
      <point x="520" y="-61" type="line"/>
      <point x="543" y="-61"/>
      <point x="566" y="-39"/>
      <point x="566" y="-4" type="qcurve"/>
      <point x="566" y="29"/>
      <point x="543" y="49"/>
      <point x="520" y="49" type="qcurve"/>
      <point x="435" y="49" type="line"/>
      <point x="435" y="0" type="line"/>
      <point x="427" y="0" type="line"/>
      <point x="407" y="0"/>
      <point x="399" y="22"/>
    </contour>
  </outline>
</glyph>
<glyph name="uni1203" format="2">
  <advance width="460"/>
  <unicode hex="1203"/>
  <outline>
    <contour>
      <point x="351" y="649" type="qcurve"/>
      <point x="316" y="649"/>
      <point x="294" y="626"/>
      <point x="294" y="603" type="qcurve"/>
      <point x="294" y="380" type="line"/>
      <point x="294" y="369"/>
      <point x="280" y="346"/>
      <point x="259" y="327"/>
      <point x="231" y="315"/>
      <point x="218" y="315" type="qcurve"/>
      <point x="176" y="315"/>
      <point x="148" y="379"/>
      <point x="148" y="458" type="qcurve"/>
      <point x="148" y="603" type="line"/>
      <point x="148" y="626"/>
      <point x="128" y="649"/>
      <point x="95" y="649" type="qcurve"/>
      <point x="60" y="649"/>
      <point x="38" y="626"/>
      <point x="38" y="603" type="qcurve"/>
      <point x="38" y="424" type="line"/>
      <point x="38" y="383"/>
      <point x="54" y="333"/>
      <point x="94" y="306"/>
      <point x="164" y="296"/>
      <point x="218" y="296" type="qcurve"/>
      <point x="245" y="296"/>
      <point x="282" y="307"/>
      <point x="294" y="318" type="qcurve"/>
      <point x="294" y="30" type="line"/>
      <point x="294" y="7"/>
      <point x="316" y="-16"/>
      <point x="351" y="-16" type="qcurve"/>
      <point x="384" y="-16"/>
      <point x="404" y="7"/>
      <point x="404" y="30" type="qcurve"/>
      <point x="404" y="603" type="line"/>
      <point x="404" y="626"/>
      <point x="384" y="649"/>
    </contour>
  </outline>
</glyph>
<glyph name="uni1204" format="2">
  <advance width="1096"/>
  <unicode hex="1204"/>
  <outline>
    <contour>
      <point x="723" y="-32" type="qcurve"/>
      <point x="865" y="-32" type="line"/>
      <point x="941" y="-32"/>
      <point x="1027" y="-18"/>
      <point x="1067" y="18"/>
      <point x="1075" y="84"/>
      <point x="1075" y="138" type="qcurve"/>
      <point x="1075" y="234" type="line"/>
      <point x="1075" y="343"/>
      <point x="983" y="415"/>
      <point x="890" y="415" type="qcurve"/>
      <point x="863" y="415"/>
      <point x="855" y="413"/>
      <point x="841" y="412" type="qcurve"/>
      <point x="841" y="381" type="line"/>
      <point x="867" y="381"/>
      <point x="897" y="372"/>
      <point x="915" y="341"/>
      <point x="921" y="282"/>
      <point x="921" y="232" type="qcurve"/>
      <point x="921" y="128" type="line"/>
      <point x="921" y="46"/>
      <point x="905" y="-10"/>
      <point x="865" y="-10" type="qcurve"/>
      <point x="843" y="-10"/>
      <point x="817" y="4"/>
      <point x="805" y="38"/>
      <point x="801" y="99"/>
      <point x="801" y="148" type="qcurve"/>
      <point x="801" y="1204" type="line"/>
      <point x="801" y="1250"/>
      <point x="761" y="1296"/>
      <point x="695" y="1296" type="qcurve"/>
      <point x="625" y="1296"/>
      <point x="581" y="1250"/>
      <point x="581" y="1204" type="qcurve"/>
      <point x="581" y="759" type="line"/>
      <point x="581" y="737"/>
      <point x="553" y="689"/>
      <point x="511" y="649"/>
      <point x="455" y="625"/>
      <point x="429" y="625" type="qcurve"/>
      <point x="387" y="625"/>
      <point x="335" y="657"/>
      <point x="305" y="725"/>
      <point x="295" y="837"/>
      <point x="295" y="915" type="qcurve"/>
      <point x="295" y="1204" type="line"/>
      <point x="295" y="1250"/>
      <point x="256" y="1296"/>
      <point x="190" y="1296" type="qcurve"/>
      <point x="120" y="1296"/>
      <point x="76" y="1250"/>
      <point x="76" y="1204" type="qcurve"/>
      <point x="76" y="846" type="line"/>
      <point x="76" y="765"/>
      <point x="106" y="665"/>
      <point x="183" y="611"/>
      <point x="322" y="591"/>
      <point x="429" y="591" type="qcurve"/>
      <point x="484" y="591"/>
      <point x="557" y="613"/>
      <point x="581" y="635" type="qcurve"/>
      <point x="581" y="124" type="line"/>
      <point x="581" y="76"/>
      <point x="587" y="14"/>
      <point x="615" y="-20"/>
      <point x="671" y="-32"/>
    </contour>
  </outline>
</glyph>
<glyph name="uni1205" format="2">
  <advance width="503"/>
  <unicode hex="1205"/>
  <outline>
    <contour>
      <point x="395" y="649" type="qcurve"/>
      <point x="360" y="649"/>
      <point x="338" y="626"/>
      <point x="338" y="603" type="qcurve"/>
      <point x="338" y="144" type="line"/>
      <point x="338" y="105"/>
      <point x="321" y="51"/>
      <point x="294" y="16"/>
      <point x="263" y="1"/>
      <point x="249" y="1" type="qcurve"/>
      <point x="207" y="1"/>
      <point x="158" y="65"/>
      <point x="158" y="144" type="qcurve"/>
      <point x="158" y="603" type="line"/>
      <point x="158" y="626"/>
      <point x="138" y="649"/>
      <point x="105" y="649" type="qcurve"/>
      <point x="70" y="649"/>
      <point x="48" y="626"/>
      <point x="48" y="603" type="qcurve"/>
      <point x="48" y="440" type="line"/>
      <point x="72" y="440"/>
      <point x="106" y="416"/>
      <point x="128" y="381"/>
      <point x="138" y="340"/>
      <point x="138" y="323" type="qcurve"/>
      <point x="131" y="323" type="line"/>
      <point x="131" y="328"/>
      <point x="118" y="349"/>
      <point x="97" y="369"/>
      <point x="72" y="384"/>
      <point x="60" y="384" type="qcurve"/>
      <point x="53" y="384"/>
      <point x="48" y="379" type="qcurve"/>
      <point x="48" y="206" type="line"/>
      <point x="48" y="136"/>
      <point x="60" y="53"/>
      <point x="101" y="7"/>
      <point x="181" y="-11"/>
      <point x="249" y="-16" type="qcurve"/>
      <point x="313" y="-10"/>
      <point x="391" y="10"/>
      <point x="434" y="65"/>
      <point x="448" y="167"/>
      <point x="448" y="255" type="qcurve"/>
      <point x="448" y="603" type="line"/>
      <point x="448" y="626"/>
      <point x="428" y="649"/>
    </contour>
  </outline>
</glyph>
<glyph name="uni1206" format="2">
  <advance width="596"/>
  <unicode hex="1206"/>
  <outline>
    <contour>
      <point x="439" y="393" type="line"/>
      <point x="502" y="393" type="line"/>
      <point x="524" y="393"/>
      <point x="555" y="400"/>
      <point x="574" y="418"/>
      <point x="583" y="452"/>
      <point x="583" y="479" type="qcurve"/>
      <point x="583" y="562" type="line"/>
      <point x="583" y="590"/>
      <point x="572" y="625"/>
      <point x="551" y="643"/>
      <point x="521" y="649"/>
      <point x="502" y="649" type="qcurve"/>
      <point x="376" y="649" type="line"/>
      <point x="359" y="649"/>
      <point x="340" y="639"/>
      <point x="331" y="621"/>
      <point x="329" y="594"/>
      <point x="329" y="577" type="qcurve"/>
      <point x="329" y="144" type="line"/>
      <point x="329" y="105"/>
      <point x="312" y="51"/>
      <point x="285" y="16"/>
      <point x="254" y="1"/>
      <point x="240" y="1" type="qcurve"/>
      <point x="198" y="1"/>
      <point x="149" y="65"/>
      <point x="149" y="144" type="qcurve"/>
      <point x="149" y="603" type="line"/>
      <point x="149" y="626"/>
      <point x="129" y="649"/>
      <point x="96" y="649" type="qcurve"/>
      <point x="61" y="649"/>
      <point x="39" y="626"/>
      <point x="39" y="603" type="qcurve"/>
      <point x="39" y="206" type="line"/>
      <point x="39" y="136"/>
      <point x="51" y="53"/>
      <point x="92" y="7"/>
      <point x="172" y="-11"/>
      <point x="240" y="-16" type="qcurve"/>
      <point x="304" y="-10"/>
      <point x="382" y="10"/>
      <point x="425" y="65"/>
      <point x="439" y="167"/>
      <point x="439" y="255" type="qcurve"/>
    </contour>
    <contour>
      <point x="439" y="633" type="line"/>
      <point x="457" y="633"/>
      <point x="482" y="630"/>
      <point x="497" y="616"/>
      <point x="504" y="587"/>
      <point x="504" y="562" type="qcurve"/>
      <point x="504" y="477" type="line"/>
      <point x="504" y="452"/>
      <point x="498" y="423"/>
      <point x="483" y="409"/>
      <point x="458" y="406"/>
      <point x="439" y="406" type="qcurve"/>
    </contour>
  </outline>
</glyph>
<glyph name="uni1208" format="2">
  <advance width="486"/>
  <unicode hex="1208"/>
  <outline>
    <contour>
      <point x="95" y="649" type="qcurve"/>
      <point x="60" y="649"/>
      <point x="38" y="626"/>
      <point x="38" y="603" type="qcurve"/>
      <point x="38" y="29" type="line"/>
      <point x="38" y="6"/>
      <point x="60" y="-17"/>
      <point x="95" y="-17" type="qcurve"/>
      <point x="128" y="-17"/>
      <point x="148" y="6"/>
      <point x="148" y="29" type="qcurve"/>
      <point x="148" y="345" type="line"/>
      <point x="151" y="354"/>
      <point x="170" y="387"/>
      <point x="197" y="419"/>
      <point x="230" y="443"/>
      <point x="248" y="443" type="qcurve"/>
      <point x="287" y="443"/>
      <point x="323" y="384"/>
      <point x="323" y="315" type="qcurve"/>
      <point x="323" y="29" type="line"/>
      <point x="323" y="6"/>
      <point x="345" y="-17"/>
      <point x="380" y="-17" type="qcurve"/>
      <point x="413" y="-17"/>
      <point x="433" y="6"/>
      <point x="433" y="29" type="qcurve"/>
      <point x="433" y="300" type="line"/>
      <point x="433" y="357"/>
      <point x="408" y="424"/>
      <point x="363" y="459"/>
      <point x="302" y="468"/>
      <point x="265" y="468" type="qcurve"/>
      <point x="244" y="468"/>
      <point x="205" y="449"/>
      <point x="173" y="421"/>
      <point x="151" y="389"/>
      <point x="148" y="376" type="qcurve"/>
      <point x="148" y="603" type="line"/>
      <point x="148" y="626"/>
      <point x="128" y="649"/>
    </contour>
  </outline>
</glyph>
<glyph name="uni1209" format="2">
  <advance width="580"/>
  <unicode hex="1209"/>
  <outline>
    <contour>
      <point x="457" y="280" type="line"/>
      <point x="457" y="241" type="line"/>
      <point x="457" y="218"/>
      <point x="479" y="195"/>
      <point x="514" y="195" type="qcurve"/>
      <point x="547" y="195"/>
      <point x="567" y="218"/>
      <point x="567" y="241" type="qcurve"/>
      <point x="567" y="280" type="line"/>
      <point x="567" y="291"/>
      <point x="558" y="295"/>
      <point x="552" y="295" type="qcurve"/>
      <point x="434" y="295" type="line"/>
      <point x="434" y="301" type="line"/>
      <point x="434" y="358"/>
      <point x="409" y="425"/>
      <point x="364" y="460"/>
      <point x="303" y="469"/>
      <point x="266" y="469" type="qcurve"/>
      <point x="245" y="469"/>
      <point x="206" y="450"/>
      <point x="174" y="422"/>
      <point x="152" y="390"/>
      <point x="149" y="377" type="qcurve"/>
      <point x="149" y="604" type="line"/>
      <point x="149" y="627"/>
      <point x="129" y="650"/>
      <point x="96" y="650" type="qcurve"/>
      <point x="61" y="650"/>
      <point x="39" y="627"/>
      <point x="39" y="604" type="qcurve"/>
      <point x="39" y="30" type="line"/>
      <point x="39" y="7"/>
      <point x="61" y="-16"/>
      <point x="96" y="-16" type="qcurve"/>
      <point x="129" y="-16"/>
      <point x="149" y="7"/>
      <point x="149" y="30" type="qcurve"/>
      <point x="149" y="346" type="line"/>
      <point x="152" y="355"/>
      <point x="171" y="388"/>
      <point x="198" y="420"/>
      <point x="231" y="444"/>
      <point x="249" y="444" type="qcurve"/>
      <point x="288" y="444"/>
      <point x="324" y="385"/>
      <point x="324" y="316" type="qcurve"/>
      <point x="324" y="30" type="line"/>
      <point x="324" y="7"/>
      <point x="346" y="-16"/>
      <point x="381" y="-16" type="qcurve"/>
      <point x="414" y="-16"/>
      <point x="434" y="7"/>
      <point x="434" y="30" type="qcurve"/>
      <point x="434" y="280" type="line"/>
    </contour>
  </outline>
</glyph>
<glyph name="uni120A" format="2">
  <advance width="1222"/>
  <unicode hex="120A"/>
  <outline>
    <contour>
      <point x="865" y="114" type="qcurve"/>
      <point x="865" y="601" type="line"/>
      <point x="865" y="715"/>
      <point x="815" y="848"/>
      <point x="725" y="919"/>
      <point x="603" y="937"/>
      <point x="530" y="937" type="qcurve"/>
      <point x="488" y="937"/>
      <point x="410" y="899"/>
      <point x="345" y="843"/>
      <point x="301" y="779"/>
      <point x="295" y="753" type="qcurve"/>
      <point x="295" y="1206" type="line"/>
      <point x="295" y="1252"/>
      <point x="256" y="1298"/>
      <point x="190" y="1298" type="qcurve"/>
      <point x="120" y="1298"/>
      <point x="76" y="1252"/>
      <point x="76" y="1206" type="qcurve"/>
      <point x="76" y="59" type="line"/>
      <point x="76" y="14"/>
      <point x="120" y="-32"/>
      <point x="190" y="-32" type="qcurve"/>
      <point x="256" y="-32"/>
      <point x="295" y="14"/>
      <point x="295" y="59" type="qcurve"/>
      <point x="295" y="691" type="line"/>
      <point x="301" y="709"/>
      <point x="339" y="775"/>
      <point x="393" y="839"/>
      <point x="459" y="886"/>
      <point x="495" y="886" type="qcurve"/>
      <point x="573" y="886"/>
      <point x="646" y="768"/>
      <point x="646" y="631" type="qcurve"/>
      <point x="646" y="82" type="line"/>
      <point x="646" y="24"/>
      <point x="683" y="-32"/>
      <point x="741" y="-32" type="qcurve"/>
      <point x="937" y="-32" type="line"/>
      <point x="937" y="-122" type="line"/>
      <point x="1107" y="-122" type="line"/>
      <point x="1153" y="-122"/>
      <point x="1199" y="-78"/>
      <point x="1199" y="-8" type="qcurve"/>
      <point x="1199" y="58"/>
      <point x="1153" y="98"/>
      <point x="1107" y="98" type="qcurve"/>
      <point x="937" y="98" type="line"/>
      <point x="937" y="0" type="line"/>
      <point x="921" y="0" type="line"/>
      <point x="881" y="0"/>
      <point x="865" y="44"/>
    </contour>
  </outline>
</glyph>
<glyph name="uni120B" format="2">
  <advance width="492"/>
  <unicode hex="120B"/>
  <outline>
    <contour>
      <point x="95" y="650" type="qcurve"/>
      <point x="60" y="650"/>
      <point x="38" y="627"/>
      <point x="38" y="604" type="qcurve"/>
      <point x="38" y="142" type="line"/>
      <point x="38" y="119"/>
      <point x="60" y="96"/>
      <point x="95" y="96" type="qcurve"/>
      <point x="128" y="96"/>
      <point x="148" y="119"/>
      <point x="148" y="142" type="qcurve"/>
      <point x="148" y="346" type="line"/>
      <point x="151" y="355"/>
      <point x="170" y="388"/>
      <point x="197" y="420"/>
      <point x="230" y="444"/>
      <point x="248" y="444" type="qcurve"/>
      <point x="287" y="444"/>
      <point x="323" y="385"/>
      <point x="323" y="316" type="qcurve"/>
      <point x="323" y="30" type="line"/>
      <point x="323" y="7"/>
      <point x="345" y="-16"/>
      <point x="380" y="-16" type="qcurve"/>
      <point x="413" y="-16"/>
      <point x="433" y="7"/>
      <point x="433" y="30" type="qcurve"/>
      <point x="433" y="301" type="line"/>
      <point x="433" y="358"/>
      <point x="408" y="425"/>
      <point x="363" y="460"/>
      <point x="302" y="469"/>
      <point x="265" y="469" type="qcurve"/>
      <point x="244" y="469"/>
      <point x="205" y="450"/>
      <point x="173" y="422"/>
      <point x="151" y="390"/>
      <point x="148" y="377" type="qcurve"/>
      <point x="148" y="604" type="line"/>
      <point x="148" y="627"/>
      <point x="128" y="650"/>
    </contour>
  </outline>
</glyph>
<glyph name="uni120C" format="2">
  <advance width="597"/>
  <unicode hex="120C"/>
  <outline>
    <contour>
      <point x="148" y="604" type="line"/>
      <point x="148" y="627"/>
      <point x="128" y="650"/>
      <point x="95" y="650" type="qcurve"/>
      <point x="60" y="650"/>
      <point x="38" y="627"/>
      <point x="38" y="604" type="qcurve"/>
      <point x="38" y="30" type="line"/>
      <point x="38" y="7"/>
      <point x="60" y="-16"/>
      <point x="95" y="-16" type="qcurve"/>
      <point x="128" y="-16"/>
      <point x="148" y="7"/>
      <point x="148" y="30" type="qcurve"/>
      <point x="148" y="346" type="line"/>
      <point x="151" y="355"/>
      <point x="170" y="388"/>
      <point x="197" y="420"/>
      <point x="230" y="444"/>
      <point x="248" y="444" type="qcurve"/>
      <point x="287" y="444"/>
      <point x="323" y="385"/>
      <point x="323" y="316" type="qcurve"/>
      <point x="323" y="62" type="line"/>
      <point x="323" y="38"/>
      <point x="326" y="7"/>
      <point x="340" y="-10"/>
      <point x="368" y="-16"/>
      <point x="394" y="-16" type="qcurve"/>
      <point x="459" y="-16" type="line"/>
      <point x="495" y="-16"/>
      <point x="545" y="-8"/>
      <point x="576" y="18"/>
      <point x="589" y="68"/>
      <point x="589" y="110" type="qcurve"/>
      <point x="589" y="145"/>
      <point x="570" y="189"/>
      <point x="541" y="213"/>
      <point x="504" y="222"/>
      <point x="486" y="222" type="qcurve"/>
      <point x="476" y="222"/>
      <point x="462" y="221"/>
      <point x="457" y="221" type="qcurve"/>
      <point x="457" y="204" type="line"/>
      <point x="468" y="204"/>
      <point x="484" y="201"/>
      <point x="495" y="183"/>
      <point x="501" y="146"/>
      <point x="501" y="112" type="qcurve"/>
      <point x="501" y="73"/>
      <point x="498" y="27"/>
      <point x="489" y="3"/>
      <point x="475" y="-5"/>
      <point x="464" y="-5" type="qcurve"/>
      <point x="455" y="-5"/>
      <point x="443" y="-1"/>
      <point x="436" y="16"/>
      <point x="433" y="50"/>
      <point x="433" y="80" type="qcurve"/>
      <point x="433" y="301" type="line"/>
      <point x="433" y="358"/>
      <point x="408" y="425"/>
      <point x="363" y="460"/>
      <point x="302" y="469"/>
      <point x="265" y="469" type="qcurve"/>
      <point x="244" y="469"/>
      <point x="205" y="450"/>
      <point x="173" y="422"/>
      <point x="151" y="390"/>
      <point x="148" y="377" type="qcurve"/>
    </contour>
  </outline>
</glyph>
<glyph name="uni120D" format="2">
  <advance width="937"/>
  <unicode hex="120D"/>
  <outline>
    <contour>
      <point x="217" y="-32" type="qcurve"/>
      <point x="345" y="-32" type="line"/>
      <point x="417" y="-32"/>
      <point x="513" y="-16"/>
      <point x="568" y="36"/>
      <point x="589" y="136"/>
      <point x="589" y="219" type="qcurve"/>
      <point x="589" y="290"/>
      <point x="557" y="377"/>
      <point x="503" y="425"/>
      <point x="435" y="444"/>
      <point x="400" y="444" type="qcurve"/>
      <point x="385" y="444"/>
      <point x="360" y="442"/>
      <point x="349" y="440" type="qcurve"/>
      <point x="349" y="413" type="line"/>
      <point x="370" y="413"/>
      <point x="402" y="402"/>
      <point x="419" y="364"/>
      <point x="429" y="288"/>
      <point x="429" y="223" type="qcurve"/>
      <point x="429" y="154"/>
      <point x="427" y="64"/>
      <point x="415" y="12"/>
      <point x="387" y="-10"/>
      <point x="362" y="-10" type="qcurve"/>
      <point x="316" y="-10"/>
      <point x="295" y="70"/>
      <point x="295" y="166" type="qcurve"/>
      <point x="295" y="691" type="line"/>
      <point x="301" y="709"/>
      <point x="339" y="775"/>
      <point x="393" y="839"/>
      <point x="459" y="886"/>
      <point x="495" y="886" type="qcurve"/>
      <point x="573" y="886"/>
      <point x="646" y="768"/>
      <point x="646" y="631" type="qcurve"/>
      <point x="646" y="59" type="line"/>
      <point x="646" y="14"/>
      <point x="689" y="-32"/>
      <point x="759" y="-32" type="qcurve"/>
      <point x="825" y="-32"/>
      <point x="865" y="14"/>
      <point x="865" y="59" type="qcurve"/>
      <point x="865" y="601" type="line"/>
      <point x="865" y="715"/>
      <point x="815" y="848"/>
      <point x="725" y="919"/>
      <point x="603" y="937"/>
      <point x="530" y="937" type="qcurve"/>
      <point x="488" y="937"/>
      <point x="410" y="899"/>
      <point x="345" y="843"/>
      <point x="301" y="779"/>
      <point x="295" y="753" type="qcurve"/>
      <point x="295" y="1206" type="line"/>
      <point x="295" y="1252"/>
      <point x="256" y="1298"/>
      <point x="190" y="1298" type="qcurve"/>
      <point x="120" y="1298"/>
      <point x="76" y="1252"/>
      <point x="76" y="1206" type="qcurve"/>
      <point x="76" y="124" type="line"/>
      <point x="76" y="76"/>
      <point x="82" y="14"/>
      <point x="110" y="-20"/>
      <point x="166" y="-32"/>
    </contour>
  </outline>
</glyph>
<glyph name="uni120E" format="2">
  <advance width="683"/>
  <unicode hex="120E"/>
  <outline>
    <contour>
      <point x="461" y="302" type="qcurve"/>
      <point x="461" y="212" type="line"/>
      <point x="461" y="190"/>
      <point x="466" y="165"/>
      <point x="487" y="153"/>
      <point x="530" y="150"/>
      <point x="568" y="150" type="qcurve"/>
      <point x="607" y="150"/>
      <point x="650" y="155"/>
      <point x="671" y="176"/>
      <point x="676" y="216"/>
      <point x="676" y="252" type="qcurve"/>
      <point x="676" y="282"/>
      <point x="668" y="317"/>
      <point x="651" y="333"/>
      <point x="626" y="337"/>
      <point x="609" y="337" type="qcurve"/>
      <point x="433" y="337" type="line"/>
      <point x="433" y="382"/>
      <point x="406" y="434"/>
      <point x="359" y="461"/>
      <point x="298" y="469"/>
      <point x="265" y="469" type="qcurve"/>
      <point x="244" y="469"/>
      <point x="205" y="450"/>
      <point x="173" y="422"/>
      <point x="151" y="390"/>
      <point x="148" y="377" type="qcurve"/>
      <point x="148" y="604" type="line"/>
      <point x="148" y="627"/>
      <point x="128" y="650"/>
      <point x="95" y="650" type="qcurve"/>
      <point x="60" y="650"/>
      <point x="38" y="627"/>
      <point x="38" y="604" type="qcurve"/>
      <point x="38" y="30" type="line"/>
      <point x="38" y="7"/>
      <point x="60" y="-16"/>
      <point x="95" y="-16" type="qcurve"/>
      <point x="128" y="-16"/>
      <point x="148" y="7"/>
      <point x="148" y="30" type="qcurve"/>
      <point x="148" y="346" type="line"/>
      <point x="151" y="355"/>
      <point x="170" y="388"/>
      <point x="197" y="420"/>
      <point x="230" y="444"/>
      <point x="248" y="444" type="qcurve"/>
      <point x="287" y="444"/>
      <point x="323" y="385"/>
      <point x="323" y="316" type="qcurve"/>
      <point x="323" y="30" type="line"/>
      <point x="323" y="7"/>
      <point x="345" y="-16"/>
      <point x="380" y="-16" type="qcurve"/>
      <point x="413" y="-16"/>
      <point x="433" y="7"/>
      <point x="433" y="30" type="qcurve"/>
      <point x="433" y="325" type="line"/>
      <point x="439" y="325" type="line"/>
      <point x="450" y="325"/>
      <point x="461" y="318"/>
    </contour>
    <contour>
      <point x="599" y="208" type="line"/>
      <point x="599" y="185"/>
      <point x="589" y="162"/>
      <point x="568" y="162" type="qcurve"/>
      <point x="548" y="162"/>
      <point x="538" y="187"/>
      <point x="538" y="208" type="qcurve"/>
      <point x="538" y="286" type="line"/>
      <point x="538" y="303"/>
      <point x="549" y="324"/>
      <point x="568" y="324" type="qcurve"/>
      <point x="590" y="324"/>
      <point x="599" y="304"/>
      <point x="599" y="288" type="qcurve"/>
    </contour>
  </outline>
</glyph>
<glyph name="uni120F" format="2">
  <advance width="547"/>
  <unicode hex="120F"/>
  <outline>
    <contour>
      <point x="485" y="-65" type="qcurve"/>
      <point x="518" y="-65"/>
      <point x="538" y="-42"/>
      <point x="538" y="-19" type="qcurve"/>
      <point x="538" y="37" type="line"/>
      <point x="426" y="37" type="line"/>
      <point x="426" y="298" type="line"/>
      <point x="426" y="355"/>
      <point x="401" y="422"/>
      <point x="356" y="457"/>
      <point x="295" y="466"/>
      <point x="258" y="466" type="qcurve"/>
      <point x="237" y="466"/>
      <point x="198" y="447"/>
      <point x="166" y="419"/>
      <point x="144" y="387"/>
      <point x="141" y="374" type="qcurve"/>
      <point x="141" y="601" type="line"/>
      <point x="141" y="624"/>
      <point x="121" y="647"/>
      <point x="88" y="647" type="qcurve"/>
      <point x="53" y="647"/>
      <point x="31" y="624"/>
      <point x="31" y="601" type="qcurve"/>
      <point x="31" y="139" type="line"/>
      <point x="31" y="116"/>
      <point x="53" y="93"/>
      <point x="88" y="93" type="qcurve"/>
      <point x="121" y="93"/>
      <point x="141" y="116"/>
      <point x="141" y="139" type="qcurve"/>
      <point x="141" y="343" type="line"/>
      <point x="144" y="352"/>
      <point x="163" y="385"/>
      <point x="190" y="417"/>
      <point x="223" y="441"/>
      <point x="241" y="441" type="qcurve"/>
      <point x="280" y="441"/>
      <point x="316" y="382"/>
      <point x="316" y="313" type="qcurve"/>
      <point x="316" y="37" type="line"/>
      <point x="162" y="37" type="line"/>
      <point x="162" y="-19" type="line"/>
      <point x="162" y="-42"/>
      <point x="183" y="-65"/>
      <point x="218" y="-65" type="qcurve"/>
      <point x="251" y="-65"/>
      <point x="271" y="-42"/>
      <point x="271" y="-19" type="qcurve"/>
      <point x="271" y="21" type="line"/>
      <point x="428" y="21" type="line"/>
      <point x="428" y="-19" type="line"/>
      <point x="428" y="-42"/>
      <point x="450" y="-65"/>
    </contour>
  </outline>
</glyph>
<glyph name="uni1212" format="2">
  <advance width="759"/>
  <unicode hex="1212"/>
  <outline>
    <contour>
      <point x="88" y="-16" type="qcurve"/>
      <point x="121" y="-16"/>
      <point x="141" y="7"/>
      <point x="141" y="30" type="qcurve"/>
      <point x="141" y="247" type="line"/>
      <point x="141" y="283"/>
      <point x="145" y="329"/>
      <point x="167" y="358"/>
      <point x="212" y="372"/>
      <point x="253" y="376" type="qcurve"/>
      <point x="253" y="30" type="line"/>
      <point x="253" y="7"/>
      <point x="275" y="-16"/>
      <point x="310" y="-16" type="qcurve"/>
      <point x="343" y="-16"/>
      <point x="363" y="7"/>
      <point x="363" y="30" type="qcurve"/>
      <point x="363" y="376" type="line"/>
      <point x="402" y="372"/>
      <point x="447" y="359"/>
      <point x="470" y="331"/>
      <point x="475" y="285"/>
      <point x="475" y="248" type="qcurve"/>
      <point x="475" y="41" type="line"/>
      <point x="475" y="12"/>
      <point x="494" y="-16"/>
      <point x="523" y="-16" type="qcurve"/>
      <point x="629" y="-16" type="line"/>
      <point x="629" y="-56" type="line"/>
      <point x="703" y="-56" type="line"/>
      <point x="714" y="-56"/>
      <point x="731" y="-53"/>
      <point x="743" y="-42"/>
      <point x="749" y="-21"/>
      <point x="749" y="-4" type="qcurve"/>
      <point x="749" y="29"/>
      <point x="726" y="44"/>
      <point x="703" y="44" type="qcurve"/>
      <point x="629" y="44" type="line"/>
      <point x="629" y="0" type="line"/>
      <point x="604" y="0" type="line"/>
      <point x="590" y="0"/>
      <point x="585" y="20"/>
      <point x="585" y="51" type="qcurve"/>
      <point x="585" y="238" type="line"/>
      <point x="585" y="291"/>
      <point x="561" y="350"/>
      <point x="509" y="379"/>
      <point x="424" y="388"/>
      <point x="363" y="392" type="qcurve"/>
      <point x="363" y="603" type="line"/>
      <point x="363" y="626"/>
      <point x="343" y="649"/>
      <point x="310" y="649" type="qcurve"/>
      <point x="275" y="649"/>
      <point x="253" y="626"/>
      <point x="253" y="603" type="qcurve"/>
      <point x="253" y="392" type="line"/>
      <point x="194" y="388"/>
      <point x="110" y="379"/>
      <point x="56" y="349"/>
      <point x="31" y="291"/>
      <point x="31" y="237" type="qcurve"/>
      <point x="31" y="30" type="line"/>
      <point x="31" y="7"/>
      <point x="53" y="-16"/>
    </contour>
  </outline>
</glyph>
<glyph name="uni1213" format="2">
  <advance width="624"/>
  <unicode hex="1213"/>
  <outline>
    <contour>
      <point x="88" y="58" type="qcurve"/>
      <point x="121" y="58"/>
      <point x="141" y="81"/>
      <point x="141" y="104" type="qcurve"/>
      <point x="141" y="247" type="line"/>
      <point x="141" y="283"/>
      <point x="145" y="329"/>
      <point x="167" y="358"/>
      <point x="212" y="372"/>
      <point x="253" y="376" type="qcurve"/>
      <point x="253" y="104" type="line"/>
      <point x="253" y="81"/>
      <point x="275" y="58"/>
      <point x="310" y="58" type="qcurve"/>
      <point x="343" y="58"/>
      <point x="363" y="81"/>
      <point x="363" y="104" type="qcurve"/>
      <point x="363" y="376" type="line"/>
      <point x="402" y="372"/>
      <point x="447" y="359"/>
      <point x="470" y="331"/>
      <point x="475" y="285"/>
      <point x="475" y="248" type="qcurve"/>
      <point x="475" y="30" type="line"/>
      <point x="475" y="7"/>
      <point x="497" y="-16"/>
      <point x="532" y="-16" type="qcurve"/>
      <point x="565" y="-16"/>
      <point x="585" y="7"/>
      <point x="585" y="30" type="qcurve"/>
      <point x="585" y="238" type="line"/>
      <point x="585" y="291"/>
      <point x="561" y="350"/>
      <point x="509" y="379"/>
      <point x="424" y="388"/>
      <point x="363" y="392" type="qcurve"/>
      <point x="363" y="603" type="line"/>
      <point x="363" y="626"/>
      <point x="343" y="649"/>
      <point x="310" y="649" type="qcurve"/>
      <point x="275" y="649"/>
      <point x="253" y="626"/>
      <point x="253" y="603" type="qcurve"/>
      <point x="253" y="392" type="line"/>
      <point x="194" y="388"/>
      <point x="110" y="379"/>
      <point x="56" y="349"/>
      <point x="31" y="291"/>
      <point x="31" y="237" type="qcurve"/>
      <point x="31" y="104" type="line"/>
      <point x="31" y="81"/>
      <point x="53" y="58"/>
    </contour>
  </outline>
</glyph>
<glyph name="uni1214" format="2">
  <advance width="733"/>
  <unicode hex="1214"/>
  <outline>
    <contour>
      <point x="546" y="-16" type="qcurve"/>
      <point x="617" y="-16" type="line"/>
      <point x="655" y="-16"/>
      <point x="698" y="-9"/>
      <point x="718" y="9"/>
      <point x="722" y="42"/>
      <point x="722" y="69" type="qcurve"/>
      <point x="722" y="117" type="line"/>
      <point x="722" y="172"/>
      <point x="676" y="208"/>
      <point x="630" y="208" type="qcurve"/>
      <point x="616" y="208"/>
      <point x="612" y="207"/>
      <point x="605" y="206" type="qcurve"/>
      <point x="605" y="191" type="line"/>
      <point x="618" y="191"/>
      <point x="633" y="186"/>
      <point x="642" y="171"/>
      <point x="645" y="141"/>
      <point x="645" y="116" type="qcurve"/>
      <point x="645" y="64" type="line"/>
      <point x="645" y="23"/>
      <point x="637" y="-5"/>
      <point x="617" y="-5" type="qcurve"/>
      <point x="606" y="-5"/>
      <point x="593" y="2"/>
      <point x="587" y="19"/>
      <point x="585" y="50"/>
      <point x="585" y="74" type="qcurve"/>
      <point x="585" y="238" type="line"/>
      <point x="585" y="291"/>
      <point x="561" y="350"/>
      <point x="509" y="379"/>
      <point x="424" y="388"/>
      <point x="363" y="392" type="qcurve"/>
      <point x="363" y="603" type="line"/>
      <point x="363" y="626"/>
      <point x="343" y="649"/>
      <point x="310" y="649" type="qcurve"/>
      <point x="275" y="649"/>
      <point x="253" y="626"/>
      <point x="253" y="603" type="qcurve"/>
      <point x="253" y="392" type="line"/>
      <point x="194" y="388"/>
      <point x="110" y="379"/>
      <point x="56" y="349"/>
      <point x="31" y="291"/>
      <point x="31" y="237" type="qcurve"/>
      <point x="31" y="30" type="line"/>
      <point x="31" y="7"/>
      <point x="53" y="-16"/>
      <point x="88" y="-16" type="qcurve"/>
      <point x="121" y="-16"/>
      <point x="141" y="7"/>
      <point x="141" y="30" type="qcurve"/>
      <point x="141" y="247" type="line"/>
      <point x="141" y="283"/>
      <point x="145" y="329"/>
      <point x="167" y="358"/>
      <point x="212" y="372"/>
      <point x="253" y="376" type="qcurve"/>
      <point x="253" y="30" type="line"/>
      <point x="253" y="7"/>
      <point x="275" y="-16"/>
      <point x="310" y="-16" type="qcurve"/>
      <point x="343" y="-16"/>
      <point x="363" y="7"/>
      <point x="363" y="30" type="qcurve"/>
      <point x="363" y="376" type="line"/>
      <point x="402" y="372"/>
      <point x="447" y="359"/>
      <point x="470" y="331"/>
      <point x="475" y="285"/>
      <point x="475" y="248" type="qcurve"/>
      <point x="475" y="62" type="line"/>
      <point x="475" y="38"/>
      <point x="478" y="7"/>
      <point x="492" y="-10"/>
      <point x="520" y="-16"/>
    </contour>
  </outline>
</glyph>
<glyph name="uni1216" format="2">
  <advance width="1273"/>
  <unicode hex="1216"/>
  <outline>
    <contour>
      <point x="176" y="-32" type="qcurve"/>
      <point x="242" y="-32"/>
      <point x="282" y="14"/>
      <point x="282" y="59" type="qcurve"/>
      <point x="282" y="493" type="line"/>
      <point x="282" y="566"/>
      <point x="290" y="657"/>
      <point x="334" y="715"/>
      <point x="423" y="743"/>
      <point x="505" y="751" type="qcurve"/>
      <point x="505" y="242" type="line"/>
      <point x="505" y="196"/>
      <point x="549" y="150"/>
      <point x="619" y="150" type="qcurve"/>
      <point x="685" y="150"/>
      <point x="725" y="196"/>
      <point x="725" y="242" type="qcurve"/>
      <point x="725" y="751" type="line"/>
      <point x="803" y="743"/>
      <point x="892" y="717"/>
      <point x="939" y="661"/>
      <point x="949" y="570"/>
      <point x="949" y="495" type="qcurve"/>
      <point x="949" y="242" type="line"/>
      <point x="949" y="196"/>
      <point x="993" y="150"/>
      <point x="1063" y="150" type="qcurve"/>
      <point x="1128" y="150"/>
      <point x="1168" y="196"/>
      <point x="1168" y="242" type="qcurve"/>
      <point x="1168" y="475" type="line"/>
      <point x="1168" y="581"/>
      <point x="1121" y="699"/>
      <point x="1016" y="757"/>
      <point x="846" y="775"/>
      <point x="725" y="783" type="qcurve"/>
      <point x="725" y="1204" type="line"/>
      <point x="725" y="1250"/>
      <point x="685" y="1296"/>
      <point x="619" y="1296" type="qcurve"/>
      <point x="549" y="1296"/>
      <point x="505" y="1250"/>
      <point x="505" y="1204" type="qcurve"/>
      <point x="505" y="783" type="line"/>
      <point x="387" y="775"/>
      <point x="219" y="757"/>
      <point x="112" y="697"/>
      <point x="61" y="581"/>
      <point x="61" y="473" type="qcurve"/>
      <point x="61" y="59" type="line"/>
      <point x="61" y="14"/>
      <point x="106" y="-32"/>
    </contour>
  </outline>
</glyph>
<glyph name="uni1217" format="2">
  <advance width="1414"/>
  <unicode hex="1217"/>
  <outline>
    <contour>
      <point x="1396" y="59" type="line"/>
      <point x="1168" y="59" type="line"/>
      <point x="1168" y="475" type="line" smooth="yes"/>
      <point x="1168" y="581"/>
      <point x="1121" y="699"/>
      <point x="1016" y="757"/>
      <point x="846" y="775"/>
      <point x="725" y="783" type="qcurve"/>
      <point x="725" y="1204" type="line" smooth="yes"/>
      <point x="725" y="1250"/>
      <point x="685" y="1296"/>
      <point x="619" y="1296" type="qcurve" smooth="yes"/>
      <point x="549" y="1296"/>
      <point x="505" y="1250"/>
      <point x="505" y="1204" type="qcurve" smooth="yes"/>
      <point x="505" y="783" type="line"/>
      <point x="387" y="775"/>
      <point x="219" y="757"/>
      <point x="112" y="697"/>
      <point x="61" y="581"/>
      <point x="61" y="473" type="qcurve" smooth="yes"/>
      <point x="61" y="242" type="line" smooth="yes"/>
      <point x="61" y="196"/>
      <point x="106" y="150"/>
      <point x="176" y="150" type="qcurve" smooth="yes"/>
      <point x="242" y="150"/>
      <point x="282" y="196"/>
      <point x="282" y="242" type="qcurve" smooth="yes"/>
      <point x="282" y="493" type="line" smooth="yes"/>
      <point x="282" y="566"/>
      <point x="290" y="657"/>
      <point x="334" y="715"/>
      <point x="423" y="743"/>
      <point x="505" y="751" type="qcurve"/>
      <point x="505" y="242" type="line" smooth="yes"/>
      <point x="505" y="196"/>
      <point x="549" y="150"/>
      <point x="619" y="150" type="qcurve" smooth="yes"/>
      <point x="685" y="150"/>
      <point x="725" y="196"/>
      <point x="725" y="242" type="qcurve" smooth="yes"/>
      <point x="725" y="751" type="line"/>
      <point x="803" y="743"/>
      <point x="892" y="717"/>
      <point x="939" y="661"/>
      <point x="949" y="570"/>
      <point x="949" y="495" type="qcurve" smooth="yes"/>
      <point x="949" y="59" type="line"/>
      <point x="589" y="59" type="line"/>
      <point x="589" y="-52" type="line" smooth="yes"/>
      <point x="589" y="-98"/>
      <point x="631" y="-143"/>
      <point x="701" y="-143" type="qcurve" smooth="yes"/>
      <point x="767" y="-143"/>
      <point x="806" y="-98"/>
      <point x="806" y="-52" type="qcurve" smooth="yes"/>
      <point x="806" y="28" type="line"/>
      <point x="1176" y="28" type="line"/>
      <point x="1176" y="-52" type="line" smooth="yes"/>
      <point x="1176" y="-98"/>
      <point x="1220" y="-143"/>
      <point x="1290" y="-143" type="qcurve" smooth="yes"/>
      <point x="1357" y="-143"/>
      <point x="1396" y="-98"/>
      <point x="1396" y="-52" type="qcurve" smooth="yes"/>
    </contour>
  </outline>
</glyph>
<glyph name="uni1218" format="2">
  <advance width="1734"/>
  <unicode hex="1218"/>
  <outline>
    <contour>
      <point x="453" y="995" type="qcurve"/>
      <point x="398" y="995"/>
      <point x="267" y="981"/>
      <point x="154" y="928"/>
      <point x="78" y="825"/>
      <point x="78" y="737" type="qcurve"/>
      <point x="78" y="179" type="line"/>
      <point x="78" y="103"/>
      <point x="116" y="20"/>
      <point x="202" y="-22"/>
      <point x="337" y="-32"/>
      <point x="435" y="-32" type="qcurve"/>
      <point x="539" y="-32"/>
      <point x="669" y="-10"/>
      <point x="741" y="40"/>
      <point x="767" y="128"/>
      <point x="767" y="194" type="qcurve"/>
      <point x="767" y="839" type="line"/>
      <point x="789" y="873"/>
      <point x="833" y="917"/>
      <point x="857" y="917" type="qcurve"/>
      <point x="886" y="917"/>
      <point x="919" y="903"/>
      <point x="937" y="855"/>
      <point x="941" y="763"/>
      <point x="941" y="685" type="qcurve"/>
      <point x="941" y="246" type="line"/>
      <point x="941" y="190"/>
      <point x="953" y="101"/>
      <point x="1018" y="40"/>
      <point x="1157" y="8"/>
      <point x="1282" y="8" type="qcurve"/>
      <point x="1390" y="8"/>
      <point x="1526" y="40"/>
      <point x="1599" y="101"/>
      <point x="1628" y="190"/>
      <point x="1628" y="246" type="qcurve"/>
      <point x="1628" y="763" type="line"/>
      <point x="1628" y="835"/>
      <point x="1586" y="924"/>
      <point x="1514" y="974"/>
      <point x="1414" y="993"/>
      <point x="1358" y="993" type="qcurve"/>
      <point x="1294" y="993"/>
      <point x="1184" y="951"/>
      <point x="1159" y="917" type="qcurve"/>
      <point x="1142" y="937"/>
      <point x="1109" y="966"/>
      <point x="1063" y="989"/>
      <point x="999" y="999"/>
      <point x="951" y="999" type="qcurve"/>
      <point x="934" y="999"/>
      <point x="883" y="979"/>
      <point x="827" y="945"/>
      <point x="779" y="901"/>
      <point x="767" y="877" type="qcurve"/>
      <point x="755" y="911"/>
      <point x="699" y="957"/>
      <point x="615" y="983"/>
      <point x="511" y="995"/>
    </contour>
    <contour>
      <point x="547" y="216" type="line"/>
      <point x="547" y="112"/>
      <point x="486" y="4"/>
      <point x="435" y="4" type="qcurve"/>
      <point x="362" y="4"/>
      <point x="297" y="112"/>
      <point x="297" y="216" type="qcurve"/>
      <point x="297" y="783" type="line"/>
      <point x="297" y="852"/>
      <point x="368" y="955"/>
      <point x="446" y="955" type="qcurve"/>
      <point x="517" y="955"/>
      <point x="547" y="888"/>
      <point x="547" y="827" type="qcurve"/>
    </contour>
    <contour>
      <point x="1410" y="234" type="line"/>
      <point x="1410" y="126"/>
      <point x="1355" y="44"/>
      <point x="1282" y="44" type="qcurve"/>
      <point x="1218" y="44"/>
      <point x="1160" y="130"/>
      <point x="1160" y="234" type="qcurve"/>
      <point x="1160" y="883" type="line"/>
      <point x="1189" y="913"/>
      <point x="1246" y="934"/>
      <point x="1278" y="934" type="qcurve"/>
      <point x="1334" y="934"/>
      <point x="1410" y="850"/>
      <point x="1410" y="735" type="qcurve"/>
    </contour>
  </outline>
</glyph>
<glyph name="uni1219" format="2">
  <advance width="969"/>
  <unicode hex="1219"/>
  <outline>
    <contour>
      <point x="849" y="300" type="line"/>
      <point x="849" y="261" type="line"/>
      <point x="849" y="238"/>
      <point x="871" y="215"/>
      <point x="906" y="215" type="qcurve"/>
      <point x="939" y="215"/>
      <point x="959" y="238"/>
      <point x="959" y="261" type="qcurve"/>
      <point x="959" y="300" type="line"/>
      <point x="959" y="311"/>
      <point x="950" y="315"/>
      <point x="944" y="315" type="qcurve"/>
      <point x="814" y="315" type="line"/>
      <point x="814" y="382" type="line"/>
      <point x="814" y="418"/>
      <point x="793" y="463"/>
      <point x="757" y="488"/>
      <point x="707" y="497"/>
      <point x="679" y="497" type="qcurve"/>
      <point x="647" y="497"/>
      <point x="592" y="476"/>
      <point x="579" y="459" type="qcurve"/>
      <point x="571" y="469"/>
      <point x="554" y="484"/>
      <point x="531" y="495"/>
      <point x="499" y="500"/>
      <point x="475" y="500" type="qcurve"/>
      <point x="467" y="500"/>
      <point x="441" y="490"/>
      <point x="413" y="473"/>
      <point x="389" y="451"/>
      <point x="383" y="439" type="qcurve"/>
      <point x="377" y="456"/>
      <point x="349" y="479"/>
      <point x="307" y="492"/>
      <point x="255" y="498"/>
      <point x="226" y="498" type="qcurve"/>
      <point x="198" y="498"/>
      <point x="133" y="491"/>
      <point x="76" y="465"/>
      <point x="38" y="413"/>
      <point x="38" y="369" type="qcurve"/>
      <point x="38" y="90" type="line"/>
      <point x="38" y="52"/>
      <point x="57" y="10"/>
      <point x="100" y="-11"/>
      <point x="168" y="-16"/>
      <point x="217" y="-16" type="qcurve"/>
      <point x="269" y="-16"/>
      <point x="334" y="-5"/>
      <point x="370" y="20"/>
      <point x="383" y="64"/>
      <point x="383" y="97" type="qcurve"/>
      <point x="383" y="420" type="line"/>
      <point x="394" y="437"/>
      <point x="416" y="459"/>
      <point x="428" y="459" type="qcurve"/>
      <point x="443" y="459"/>
      <point x="459" y="452"/>
      <point x="468" y="428"/>
      <point x="470" y="382"/>
      <point x="470" y="343" type="qcurve"/>
      <point x="470" y="123" type="line"/>
      <point x="470" y="95"/>
      <point x="476" y="51"/>
      <point x="509" y="20"/>
      <point x="578" y="4"/>
      <point x="641" y="4" type="qcurve"/>
      <point x="695" y="4"/>
      <point x="763" y="20"/>
      <point x="800" y="51"/>
      <point x="814" y="95"/>
      <point x="814" y="123" type="qcurve"/>
      <point x="814" y="300" type="line"/>
    </contour>
    <contour>
      <point x="273" y="108" type="line"/>
      <point x="273" y="56"/>
      <point x="242" y="2"/>
      <point x="217" y="2" type="qcurve"/>
      <point x="180" y="2"/>
      <point x="148" y="56"/>
      <point x="148" y="108" type="qcurve"/>
      <point x="148" y="392" type="line"/>
      <point x="148" y="427"/>
      <point x="183" y="478"/>
      <point x="222" y="478" type="qcurve"/>
      <point x="258" y="478"/>
      <point x="273" y="445"/>
      <point x="273" y="414" type="qcurve"/>
    </contour>
    <contour>
      <point x="705" y="117" type="line"/>
      <point x="705" y="63"/>
      <point x="677" y="22"/>
      <point x="641" y="22" type="qcurve"/>
      <point x="609" y="22"/>
      <point x="580" y="65"/>
      <point x="580" y="117" type="qcurve"/>
      <point x="580" y="442" type="line"/>
      <point x="594" y="457"/>
      <point x="623" y="468"/>
      <point x="639" y="468" type="qcurve"/>
      <point x="667" y="468"/>
      <point x="705" y="426"/>
      <point x="705" y="368" type="qcurve"/>
    </contour>
  </outline>
</glyph>
<glyph name="uni121A" format="2">
  <advance width="1820"/>
  <unicode hex="121A"/>
  <outline>
    <contour>
      <point x="888" y="1292" type="qcurve"/>
      <point x="846" y="1292"/>
      <point x="775" y="1271"/>
      <point x="723" y="1239"/>
      <point x="691" y="1204"/>
      <point x="688" y="1191" type="qcurve"/>
      <point x="669" y="1222"/>
      <point x="635" y="1262"/>
      <point x="579" y="1286"/>
      <point x="490" y="1294"/>
      <point x="413" y="1294" type="qcurve"/>
      <point x="345" y="1294"/>
      <point x="223" y="1284"/>
      <point x="132" y="1237"/>
      <point x="78" y="1142"/>
      <point x="78" y="1058" type="qcurve"/>
      <point x="78" y="739" type="line"/>
      <point x="78" y="671"/>
      <point x="124" y="599"/>
      <point x="208" y="566"/>
      <point x="328" y="559"/>
      <point x="404" y="559" type="qcurve"/>
      <point x="501" y="559"/>
      <point x="617" y="571"/>
      <point x="677" y="613"/>
      <point x="693" y="689"/>
      <point x="693" y="755" type="qcurve"/>
      <point x="693" y="1132" type="line"/>
      <point x="693" y="1151"/>
      <point x="711" y="1182"/>
      <point x="741" y="1210"/>
      <point x="775" y="1226"/>
      <point x="791" y="1226" type="qcurve"/>
      <point x="846" y="1226"/>
      <point x="846" y="1168" type="qcurve"/>
      <point x="846" y="753" type="line"/>
      <point x="846" y="688"/>
      <point x="857" y="611"/>
      <point x="905" y="575"/>
      <point x="1006" y="566"/>
      <point x="1096" y="566" type="qcurve"/>
      <point x="1153" y="566"/>
      <point x="1226" y="585"/>
      <point x="1246" y="593" type="qcurve"/>
      <point x="1246" y="82" type="line"/>
      <point x="1246" y="24"/>
      <point x="1284" y="-32"/>
      <point x="1342" y="-32" type="qcurve"/>
      <point x="1538" y="-32" type="line"/>
      <point x="1538" y="-122" type="line"/>
      <point x="1708" y="-122" type="line"/>
      <point x="1753" y="-122"/>
      <point x="1799" y="-78"/>
      <point x="1799" y="-8" type="qcurve"/>
      <point x="1799" y="58"/>
      <point x="1753" y="98"/>
      <point x="1708" y="98" type="qcurve"/>
      <point x="1538" y="98" type="line"/>
      <point x="1538" y="0" type="line"/>
      <point x="1522" y="0" type="line"/>
      <point x="1482" y="0"/>
      <point x="1466" y="44"/>
      <point x="1466" y="114" type="qcurve"/>
      <point x="1466" y="1008" type="line"/>
      <point x="1466" y="1115"/>
      <point x="1450" y="1231"/>
      <point x="1395" y="1284"/>
      <point x="1290" y="1294"/>
      <point x="1204" y="1294" type="qcurve"/>
      <point x="1189" y="1294"/>
      <point x="1142" y="1284"/>
      <point x="1094" y="1266"/>
      <point x="1056" y="1239"/>
      <point x="1048" y="1220" type="qcurve"/>
      <point x="1042" y="1233"/>
      <point x="1029" y="1258"/>
      <point x="995" y="1280"/>
      <point x="937" y="1292"/>
    </contour>
    <contour>
      <point x="1140" y="1244" type="qcurve"/>
      <point x="1170" y="1244"/>
      <point x="1212" y="1237"/>
      <point x="1237" y="1197"/>
      <point x="1246" y="1113"/>
      <point x="1246" y="1039" type="qcurve"/>
      <point x="1246" y="747" type="line"/>
      <point x="1246" y="675"/>
      <point x="1208" y="608"/>
      <point x="1140" y="608" type="qcurve"/>
      <point x="1075" y="608"/>
      <point x="1048" y="699"/>
      <point x="1048" y="805" type="qcurve"/>
      <point x="1048" y="1117" type="line"/>
      <point x="1048" y="1184"/>
      <point x="1113" y="1244"/>
    </contour>
    <contour>
      <point x="495" y="805" type="line"/>
      <point x="495" y="701"/>
      <point x="461" y="599"/>
      <point x="404" y="599" type="qcurve"/>
      <point x="368" y="599"/>
      <point x="326" y="625"/>
      <point x="303" y="677"/>
      <point x="299" y="755"/>
      <point x="299" y="805" type="qcurve"/>
      <point x="299" y="1092" type="line"/>
      <point x="299" y="1121"/>
      <point x="311" y="1178"/>
      <point x="337" y="1226"/>
      <point x="381" y="1258"/>
      <point x="413" y="1258" type="qcurve"/>
      <point x="465" y="1258"/>
      <point x="495" y="1202"/>
      <point x="495" y="1136" type="qcurve"/>
    </contour>
  </outline>
</glyph>
<glyph name="uni121B" format="2">
  <advance width="794"/>
  <unicode hex="121B"/>
  <outline>
    <contour>
      <point x="681" y="-16" type="qcurve"/>
      <point x="714" y="-16"/>
      <point x="734" y="7"/>
      <point x="734" y="30" type="qcurve"/>
      <point x="734" y="505" type="line"/>
      <point x="734" y="558"/>
      <point x="726" y="616"/>
      <point x="698" y="643"/>
      <point x="646" y="648"/>
      <point x="603" y="648" type="qcurve"/>
      <point x="575" y="648"/>
      <point x="533" y="629"/>
      <point x="525" y="611" type="qcurve"/>
      <point x="522" y="617"/>
      <point x="515" y="629"/>
      <point x="498" y="640"/>
      <point x="469" y="647"/>
      <point x="445" y="647" type="qcurve"/>
      <point x="424" y="647"/>
      <point x="388" y="636"/>
      <point x="362" y="620"/>
      <point x="346" y="603"/>
      <point x="344" y="596" type="qcurve"/>
      <point x="324" y="625"/>
      <point x="261" y="648"/>
      <point x="207" y="648" type="qcurve"/>
      <point x="173" y="648"/>
      <point x="112" y="643"/>
      <point x="66" y="619"/>
      <point x="39" y="572"/>
      <point x="39" y="530" type="qcurve"/>
      <point x="39" y="370" type="line"/>
      <point x="39" y="336"/>
      <point x="62" y="300"/>
      <point x="104" y="283"/>
      <point x="164" y="280"/>
      <point x="202" y="280" type="qcurve"/>
      <point x="251" y="280"/>
      <point x="309" y="286"/>
      <point x="339" y="307"/>
      <point x="347" y="345"/>
      <point x="347" y="378" type="qcurve"/>
      <point x="347" y="567" type="line"/>
      <point x="347" y="576"/>
      <point x="356" y="592"/>
      <point x="371" y="606"/>
      <point x="388" y="614"/>
      <point x="396" y="614" type="qcurve"/>
      <point x="424" y="614"/>
      <point x="424" y="585" type="qcurve"/>
      <point x="424" y="377" type="line"/>
      <point x="424" y="344"/>
      <point x="429" y="306"/>
      <point x="453" y="288"/>
      <point x="504" y="283"/>
      <point x="549" y="283" type="qcurve"/>
      <point x="577" y="283"/>
      <point x="614" y="293"/>
      <point x="624" y="297" type="qcurve"/>
      <point x="624" y="30" type="line"/>
      <point x="624" y="7"/>
      <point x="646" y="-16"/>
    </contour>
    <contour>
      <point x="248" y="403" type="line"/>
      <point x="248" y="351"/>
      <point x="231" y="300"/>
      <point x="202" y="300" type="qcurve"/>
      <point x="184" y="300"/>
      <point x="163" y="313"/>
      <point x="152" y="339"/>
      <point x="150" y="378"/>
      <point x="150" y="403" type="qcurve"/>
      <point x="150" y="547" type="line"/>
      <point x="150" y="561"/>
      <point x="156" y="590"/>
      <point x="169" y="614"/>
      <point x="191" y="630"/>
      <point x="207" y="630" type="qcurve"/>
      <point x="233" y="630"/>
      <point x="248" y="602"/>
      <point x="248" y="569" type="qcurve"/>
    </contour>
    <contour>
      <point x="571" y="623" type="qcurve"/>
      <point x="586" y="623"/>
      <point x="607" y="619"/>
      <point x="619" y="599"/>
      <point x="624" y="557"/>
      <point x="624" y="520" type="qcurve"/>
      <point x="624" y="374" type="line"/>
      <point x="624" y="338"/>
      <point x="605" y="304"/>
      <point x="571" y="304" type="qcurve"/>
      <point x="538" y="304"/>
      <point x="525" y="350"/>
      <point x="525" y="403" type="qcurve"/>
      <point x="525" y="559" type="line"/>
      <point x="525" y="593"/>
      <point x="557" y="623"/>
    </contour>
  </outline>
</glyph>
<glyph name="uni121C" format="2">
  <advance width="1761"/>
  <unicode hex="121C"/>
  <outline>
    <contour>
      <point x="1386" y="-32" type="qcurve"/>
      <point x="1528" y="-32" type="line"/>
      <point x="1604" y="-32"/>
      <point x="1690" y="-18"/>
      <point x="1730" y="18"/>
      <point x="1738" y="84"/>
      <point x="1738" y="138" type="qcurve"/>
      <point x="1738" y="234" type="line"/>
      <point x="1738" y="343"/>
      <point x="1646" y="415"/>
      <point x="1553" y="415" type="qcurve"/>
      <point x="1526" y="415"/>
      <point x="1517" y="413"/>
      <point x="1504" y="412" type="qcurve"/>
      <point x="1504" y="381" type="line"/>
      <point x="1530" y="381"/>
      <point x="1559" y="372"/>
      <point x="1578" y="341"/>
      <point x="1584" y="282"/>
      <point x="1584" y="232" type="qcurve"/>
      <point x="1584" y="128" type="line"/>
      <point x="1584" y="46"/>
      <point x="1568" y="-10"/>
      <point x="1528" y="-10" type="qcurve"/>
      <point x="1506" y="-10"/>
      <point x="1480" y="4"/>
      <point x="1468" y="38"/>
      <point x="1464" y="99"/>
      <point x="1464" y="148" type="qcurve"/>
      <point x="1464" y="1008" type="line"/>
      <point x="1464" y="1115"/>
      <point x="1448" y="1231"/>
      <point x="1392" y="1284"/>
      <point x="1288" y="1294"/>
      <point x="1202" y="1294" type="qcurve"/>
      <point x="1147" y="1294"/>
      <point x="1063" y="1256"/>
      <point x="1046" y="1220" type="qcurve"/>
      <point x="1041" y="1233"/>
      <point x="1027" y="1256"/>
      <point x="993" y="1278"/>
      <point x="934" y="1292"/>
      <point x="886" y="1292" type="qcurve"/>
      <point x="845" y="1292"/>
      <point x="773" y="1271"/>
      <point x="721" y="1239"/>
      <point x="689" y="1204"/>
      <point x="685" y="1191" type="qcurve"/>
      <point x="646" y="1248"/>
      <point x="505" y="1294"/>
      <point x="412" y="1294" type="qcurve"/>
      <point x="343" y="1294"/>
      <point x="221" y="1284"/>
      <point x="130" y="1237"/>
      <point x="76" y="1142"/>
      <point x="76" y="1058" type="qcurve"/>
      <point x="76" y="739" type="line"/>
      <point x="76" y="671"/>
      <point x="122" y="599"/>
      <point x="206" y="566"/>
      <point x="326" y="559"/>
      <point x="402" y="559" type="qcurve"/>
      <point x="499" y="559"/>
      <point x="615" y="571"/>
      <point x="675" y="613"/>
      <point x="691" y="689"/>
      <point x="691" y="755" type="qcurve"/>
      <point x="691" y="1132" type="line"/>
      <point x="691" y="1151"/>
      <point x="709" y="1182"/>
      <point x="739" y="1210"/>
      <point x="773" y="1226"/>
      <point x="789" y="1226" type="qcurve"/>
      <point x="845" y="1226"/>
      <point x="845" y="1168" type="qcurve"/>
      <point x="845" y="753" type="line"/>
      <point x="845" y="688"/>
      <point x="855" y="611"/>
      <point x="903" y="575"/>
      <point x="1004" y="566"/>
      <point x="1094" y="566" type="qcurve"/>
      <point x="1151" y="566"/>
      <point x="1224" y="585"/>
      <point x="1244" y="593" type="qcurve"/>
      <point x="1244" y="124" type="line"/>
      <point x="1244" y="76"/>
      <point x="1250" y="14"/>
      <point x="1278" y="-20"/>
      <point x="1334" y="-32"/>
    </contour>
    <contour>
      <point x="493" y="805" type="line"/>
      <point x="493" y="701"/>
      <point x="459" y="599"/>
      <point x="402" y="599" type="qcurve"/>
      <point x="366" y="599"/>
      <point x="324" y="625"/>
      <point x="301" y="677"/>
      <point x="297" y="755"/>
      <point x="297" y="805" type="qcurve"/>
      <point x="297" y="1092" type="line"/>
      <point x="297" y="1121"/>
      <point x="309" y="1178"/>
      <point x="335" y="1226"/>
      <point x="379" y="1258"/>
      <point x="412" y="1258" type="qcurve"/>
      <point x="463" y="1258"/>
      <point x="493" y="1202"/>
      <point x="493" y="1136" type="qcurve"/>
    </contour>
    <contour>
      <point x="1138" y="1244" type="qcurve"/>
      <point x="1168" y="1244"/>
      <point x="1210" y="1237"/>
      <point x="1235" y="1197"/>
      <point x="1244" y="1113"/>
      <point x="1244" y="1039" type="qcurve"/>
      <point x="1244" y="747" type="line"/>
      <point x="1244" y="675"/>
      <point x="1206" y="608"/>
      <point x="1138" y="608" type="qcurve"/>
      <point x="1073" y="608"/>
      <point x="1046" y="699"/>
      <point x="1046" y="805" type="qcurve"/>
      <point x="1046" y="1117" type="line"/>
      <point x="1046" y="1184"/>
      <point x="1111" y="1244"/>
    </contour>
  </outline>
</glyph>
<glyph name="uni121D" format="2">
  <advance width="1557"/>
  <unicode hex="121D"/>
  <outline>
    <contour>
      <point x="221" y="-32" type="qcurve"/>
      <point x="288" y="-32"/>
      <point x="328" y="14"/>
      <point x="328" y="59" type="qcurve"/>
      <point x="328" y="150" type="line"/>
      <point x="328" y="206"/>
      <point x="349" y="269"/>
      <point x="391" y="301"/>
      <point x="452" y="309"/>
      <point x="488" y="309" type="qcurve"/>
      <point x="570" y="309"/>
      <point x="659" y="343"/>
      <point x="701" y="415"/>
      <point x="709" y="526"/>
      <point x="709" y="601" type="qcurve"/>
      <point x="709" y="1132" type="line"/>
      <point x="731" y="1166"/>
      <point x="755" y="1210"/>
      <point x="779" y="1210" type="qcurve"/>
      <point x="808" y="1210"/>
      <point x="841" y="1197"/>
      <point x="859" y="1149"/>
      <point x="863" y="1056"/>
      <point x="863" y="979" type="qcurve"/>
      <point x="863" y="795" type="line"/>
      <point x="863" y="719"/>
      <point x="873" y="627"/>
      <point x="928" y="575"/>
      <point x="1052" y="557"/>
      <point x="1164" y="557" type="qcurve"/>
      <point x="1273" y="557"/>
      <point x="1398" y="589"/>
      <point x="1460" y="651"/>
      <point x="1478" y="739"/>
      <point x="1478" y="795" type="qcurve"/>
      <point x="1478" y="1056" type="line"/>
      <point x="1478" y="1128"/>
      <point x="1436" y="1218"/>
      <point x="1364" y="1268"/>
      <point x="1264" y="1286"/>
      <point x="1208" y="1286" type="qcurve"/>
      <point x="1145" y="1286"/>
      <point x="1086" y="1244"/>
      <point x="1060" y="1210" type="qcurve"/>
      <point x="1044" y="1231"/>
      <point x="1016" y="1260"/>
      <point x="979" y="1282"/>
      <point x="921" y="1292"/>
      <point x="873" y="1292" type="qcurve"/>
      <point x="857" y="1292"/>
      <point x="810" y="1273"/>
      <point x="763" y="1239"/>
      <point x="721" y="1195"/>
      <point x="709" y="1170" type="qcurve"/>
      <point x="688" y="1240"/>
      <point x="533" y="1288"/>
      <point x="415" y="1288" type="qcurve"/>
      <point x="360" y="1288"/>
      <point x="240" y="1275"/>
      <point x="139" y="1222"/>
      <point x="76" y="1119"/>
      <point x="76" y="1031" type="qcurve"/>
      <point x="76" y="779" type="line"/>
      <point x="76" y="703"/>
      <point x="120" y="619"/>
      <point x="202" y="577"/>
      <point x="322" y="568"/>
      <point x="398" y="568" type="qcurve"/>
      <point x="455" y="568"/>
      <point x="509" y="579" type="qcurve"/>
      <point x="509" y="499" type="line"/>
      <point x="509" y="467"/>
      <point x="448" y="417"/>
      <point x="360" y="383"/>
      <point x="263" y="366"/>
      <point x="227" y="366" type="qcurve"/>
      <point x="192" y="366"/>
      <point x="143" y="335"/>
      <point x="118" y="284"/>
      <point x="108" y="214"/>
      <point x="108" y="176" type="qcurve"/>
      <point x="108" y="59" type="line"/>
      <point x="108" y="14"/>
      <point x="152" y="-32"/>
    </contour>
    <contour>
      <point x="509" y="815" type="line"/>
      <point x="509" y="711"/>
      <point x="448" y="603"/>
      <point x="398" y="603" type="qcurve"/>
      <point x="362" y="603"/>
      <point x="320" y="631"/>
      <point x="299" y="685"/>
      <point x="295" y="763"/>
      <point x="295" y="815" type="qcurve"/>
      <point x="295" y="1077" type="line"/>
      <point x="295" y="1102"/>
      <point x="301" y="1162"/>
      <point x="324" y="1214"/>
      <point x="368" y="1248"/>
      <point x="408" y="1248" type="qcurve"/>
      <point x="480" y="1248"/>
      <point x="509" y="1182"/>
      <point x="509" y="1121" type="qcurve"/>
    </contour>
    <contour>
      <point x="1260" y="783" type="line"/>
      <point x="1260" y="729"/>
      <point x="1256" y="657"/>
      <point x="1239" y="613"/>
      <point x="1200" y="593"/>
      <point x="1164" y="593" type="qcurve"/>
      <point x="1100" y="593"/>
      <point x="1063" y="679"/>
      <point x="1063" y="783" type="qcurve"/>
      <point x="1063" y="1176" type="line"/>
      <point x="1090" y="1206"/>
      <point x="1128" y="1229"/>
      <point x="1160" y="1229" type="qcurve"/>
      <point x="1216" y="1229"/>
      <point x="1260" y="1145"/>
      <point x="1260" y="1029" type="qcurve"/>
    </contour>
  </outline>
</glyph>
<glyph name="uni121E" format="2">
  <advance width="791"/>
  <unicode hex="121E"/>
  <outline>
    <contour>
      <point x="319" y="-15" type="qcurve"/>
      <point x="352" y="-15"/>
      <point x="372" y="8"/>
      <point x="372" y="31" type="qcurve"/>
      <point x="372" y="565" type="line"/>
      <point x="383" y="582"/>
      <point x="395" y="604"/>
      <point x="407" y="604" type="qcurve"/>
      <point x="422" y="604"/>
      <point x="438" y="597"/>
      <point x="447" y="573"/>
      <point x="449" y="527"/>
      <point x="449" y="488" type="qcurve"/>
      <point x="449" y="401" type="line"/>
      <point x="449" y="367"/>
      <point x="454" y="321"/>
      <point x="482" y="294"/>
      <point x="543" y="282"/>
      <point x="600" y="282" type="qcurve"/>
      <point x="654" y="282"/>
      <point x="718" y="298"/>
      <point x="751" y="329"/>
      <point x="761" y="373"/>
      <point x="761" y="401" type="qcurve"/>
      <point x="761" y="538" type="line"/>
      <point x="761" y="574"/>
      <point x="740" y="615"/>
      <point x="704" y="636"/>
      <point x="654" y="642"/>
      <point x="626" y="642" type="qcurve"/>
      <point x="594" y="642"/>
      <point x="561" y="621"/>
      <point x="548" y="604" type="qcurve"/>
      <point x="540" y="614"/>
      <point x="526" y="629"/>
      <point x="507" y="640"/>
      <point x="478" y="645"/>
      <point x="454" y="645" type="qcurve"/>
      <point x="446" y="645"/>
      <point x="423" y="635"/>
      <point x="399" y="618"/>
      <point x="378" y="596"/>
      <point x="372" y="584" type="qcurve"/>
      <point x="366" y="601"/>
      <point x="338" y="624"/>
      <point x="296" y="638"/>
      <point x="243" y="644"/>
      <point x="214" y="644" type="qcurve"/>
      <point x="186" y="644"/>
      <point x="124" y="637"/>
      <point x="72" y="611"/>
      <point x="38" y="560"/>
      <point x="38" y="516" type="qcurve"/>
      <point x="38" y="389" type="line"/>
      <point x="38" y="351"/>
      <point x="65" y="309"/>
      <point x="113" y="287"/>
      <point x="178" y="282"/>
      <point x="216" y="282" type="qcurve"/>
      <point x="230" y="282"/>
      <point x="248" y="285"/>
      <point x="262" y="288" type="qcurve"/>
      <point x="262" y="31" type="line"/>
      <point x="262" y="8"/>
      <point x="284" y="-15"/>
    </contour>
    <contour>
      <point x="267" y="407" type="line"/>
      <point x="267" y="355"/>
      <point x="246" y="301"/>
      <point x="205" y="301" type="qcurve"/>
      <point x="168" y="301"/>
      <point x="148" y="355"/>
      <point x="148" y="407" type="qcurve"/>
      <point x="148" y="538" type="line"/>
      <point x="148" y="551"/>
      <point x="153" y="581"/>
      <point x="166" y="607"/>
      <point x="190" y="624"/>
      <point x="210" y="624" type="qcurve"/>
      <point x="246" y="624"/>
      <point x="267" y="591"/>
      <point x="267" y="560" type="qcurve"/>
    </contour>
    <contour>
      <point x="652" y="395" type="line"/>
      <point x="652" y="368"/>
      <point x="649" y="332"/>
      <point x="639" y="310"/>
      <point x="618" y="300"/>
      <point x="600" y="300" type="qcurve"/>
      <point x="568" y="300"/>
      <point x="549" y="343"/>
      <point x="549" y="395" type="qcurve"/>
      <point x="549" y="587" type="line"/>
      <point x="563" y="602"/>
      <point x="582" y="613"/>
      <point x="598" y="613" type="qcurve"/>
      <point x="626" y="613"/>
      <point x="652" y="571"/>
      <point x="652" y="513" type="qcurve"/>
    </contour>
  </outline>
</glyph>
<glyph name="uni121F" format="2">
  <advance width="884"/>
  <unicode hex="121F"/>
  <outline>
    <contour>
      <point x="755" y="19" type="line"/>
      <point x="755" y="-23" type="line"/>
      <point x="755" y="-45"/>
      <point x="789" y="-78"/>
      <point x="817" y="-78" type="qcurve"/>
      <point x="846" y="-78"/>
      <point x="879" y="-45"/>
      <point x="879" y="-24" type="qcurve"/>
      <point x="879" y="35" type="line"/>
      <point x="733" y="35" type="line"/>
      <point x="733" y="506" type="line"/>
      <point x="733" y="559"/>
      <point x="725" y="617"/>
      <point x="697" y="644"/>
      <point x="645" y="649"/>
      <point x="602" y="649" type="qcurve"/>
      <point x="574" y="649"/>
      <point x="532" y="630"/>
      <point x="524" y="612" type="qcurve"/>
      <point x="521" y="618"/>
      <point x="514" y="630"/>
      <point x="497" y="641"/>
      <point x="468" y="648"/>
      <point x="444" y="648" type="qcurve"/>
      <point x="423" y="648"/>
      <point x="387" y="637"/>
      <point x="361" y="621"/>
      <point x="345" y="604"/>
      <point x="343" y="597" type="qcurve"/>
      <point x="334" y="613"/>
      <point x="317" y="633"/>
      <point x="289" y="645"/>
      <point x="244" y="649"/>
      <point x="206" y="649" type="qcurve"/>
      <point x="172" y="649"/>
      <point x="111" y="644"/>
      <point x="65" y="620"/>
      <point x="38" y="573"/>
      <point x="38" y="531" type="qcurve"/>
      <point x="38" y="371" type="line"/>
      <point x="38" y="337"/>
      <point x="61" y="301"/>
      <point x="103" y="284"/>
      <point x="163" y="281"/>
      <point x="201" y="281" type="qcurve"/>
      <point x="250" y="281"/>
      <point x="308" y="287"/>
      <point x="338" y="308"/>
      <point x="346" y="346"/>
      <point x="346" y="379" type="qcurve"/>
      <point x="346" y="568" type="line"/>
      <point x="346" y="577"/>
      <point x="355" y="593"/>
      <point x="370" y="607"/>
      <point x="387" y="615"/>
      <point x="395" y="615" type="qcurve"/>
      <point x="423" y="615"/>
      <point x="423" y="586" type="qcurve"/>
      <point x="423" y="378" type="line"/>
      <point x="423" y="345"/>
      <point x="428" y="307"/>
      <point x="452" y="289"/>
      <point x="503" y="284"/>
      <point x="548" y="284" type="qcurve"/>
      <point x="576" y="284"/>
      <point x="613" y="294"/>
      <point x="623" y="298" type="qcurve"/>
      <point x="623" y="35" type="line"/>
      <point x="474" y="35" type="line"/>
      <point x="474" y="-24" type="line"/>
      <point x="474" y="-47"/>
      <point x="507" y="-78"/>
      <point x="536" y="-78" type="qcurve"/>
      <point x="564" y="-78"/>
      <point x="598" y="-46"/>
      <point x="598" y="-23" type="qcurve"/>
      <point x="598" y="19" type="line"/>
    </contour>
    <contour>
      <point x="247" y="404" type="line"/>
      <point x="247" y="352"/>
      <point x="230" y="301"/>
      <point x="201" y="301" type="qcurve"/>
      <point x="183" y="301"/>
      <point x="162" y="314"/>
      <point x="151" y="340"/>
      <point x="149" y="379"/>
      <point x="149" y="404" type="qcurve"/>
      <point x="149" y="548" type="line"/>
      <point x="149" y="562"/>
      <point x="155" y="591"/>
      <point x="168" y="615"/>
      <point x="190" y="631"/>
      <point x="206" y="631" type="qcurve"/>
      <point x="232" y="631"/>
      <point x="247" y="603"/>
      <point x="247" y="570" type="qcurve"/>
    </contour>
    <contour>
      <point x="570" y="624" type="qcurve"/>
      <point x="585" y="624"/>
      <point x="606" y="620"/>
      <point x="618" y="600"/>
      <point x="623" y="558"/>
      <point x="623" y="521" type="qcurve"/>
      <point x="623" y="375" type="line"/>
      <point x="623" y="339"/>
      <point x="604" y="305"/>
      <point x="570" y="305" type="qcurve"/>
      <point x="537" y="305"/>
      <point x="524" y="351"/>
      <point x="524" y="404" type="qcurve"/>
      <point x="524" y="560" type="line"/>
      <point x="524" y="594"/>
      <point x="556" y="624"/>
    </contour>
  </outline>
</glyph>
<glyph name="uni1220" format="2">
  <advance width="723"/>
  <unicode hex="1220"/>
  <outline>
    <contour>
      <point x="110" y="568" type="qcurve"/>
      <point x="75" y="568"/>
      <point x="53" y="545"/>
      <point x="53" y="522" type="qcurve"/>
      <point x="53" y="174" type="line"/>
      <point x="53" y="133"/>
      <point x="81" y="85"/>
      <point x="122" y="59"/>
      <point x="169" y="52"/>
      <point x="188" y="52" type="qcurve"/>
      <point x="227" y="52"/>
      <point x="305" y="60"/>
      <point x="367" y="81"/>
      <point x="409" y="116"/>
      <point x="412" y="142" type="qcurve"/>
      <point x="422" y="119"/>
      <point x="465" y="98"/>
      <point x="488" y="98" type="qcurve"/>
      <point x="533" y="98"/>
      <point x="599" y="116"/>
      <point x="644" y="163"/>
      <point x="666" y="242"/>
      <point x="666" y="303" type="qcurve"/>
      <point x="666" y="522" type="line"/>
      <point x="666" y="545"/>
      <point x="646" y="568"/>
      <point x="613" y="568" type="qcurve"/>
      <point x="578" y="568"/>
      <point x="556" y="545"/>
      <point x="556" y="522" type="qcurve"/>
      <point x="556" y="243" type="line"/>
      <point x="556" y="200"/>
      <point x="540" y="149"/>
      <point x="518" y="123"/>
      <point x="495" y="116"/>
      <point x="489" y="116" type="qcurve"/>
      <point x="453" y="116"/>
      <point x="412" y="158"/>
      <point x="412" y="195" type="qcurve"/>
      <point x="412" y="522" type="line"/>
      <point x="412" y="545"/>
      <point x="392" y="568"/>
      <point x="359" y="568" type="qcurve"/>
      <point x="324" y="568"/>
      <point x="302" y="545"/>
      <point x="302" y="522" type="qcurve"/>
      <point x="302" y="246" type="line"/>
      <point x="302" y="189"/>
      <point x="294" y="120"/>
      <point x="278" y="81"/>
      <point x="253" y="68"/>
      <point x="235" y="68" type="qcurve"/>
      <point x="221" y="68"/>
      <point x="196" y="80"/>
      <point x="175" y="101"/>
      <point x="163" y="130"/>
      <point x="163" y="146" type="qcurve"/>
      <point x="163" y="522" type="line"/>
      <point x="163" y="545"/>
      <point x="143" y="568"/>
    </contour>
  </outline>
</glyph>
<glyph name="uni1221" format="2">
  <advance width="1620"/>
  <unicode hex="1221"/>
  <outline>
    <contour>
      <point x="1384" y="733" type="line"/>
      <point x="1384" y="655" type="line"/>
      <point x="1384" y="610"/>
      <point x="1428" y="564"/>
      <point x="1498" y="564" type="qcurve"/>
      <point x="1564" y="564"/>
      <point x="1604" y="610"/>
      <point x="1604" y="655" type="qcurve"/>
      <point x="1604" y="733" type="line"/>
      <point x="1604" y="755"/>
      <point x="1586" y="763"/>
      <point x="1574" y="763" type="qcurve"/>
      <point x="1320" y="763" type="line"/>
      <point x="1320" y="1041" type="line"/>
      <point x="1320" y="1086"/>
      <point x="1280" y="1132"/>
      <point x="1214" y="1132" type="qcurve"/>
      <point x="1145" y="1132"/>
      <point x="1100" y="1086"/>
      <point x="1100" y="1041" type="qcurve"/>
      <point x="1100" y="484" type="line"/>
      <point x="1100" y="398"/>
      <point x="1069" y="295"/>
      <point x="1025" y="244"/>
      <point x="979" y="230"/>
      <point x="966" y="230" type="qcurve"/>
      <point x="895" y="230"/>
      <point x="813" y="314"/>
      <point x="813" y="387" type="qcurve"/>
      <point x="813" y="1041" type="line"/>
      <point x="813" y="1086"/>
      <point x="773" y="1132"/>
      <point x="707" y="1132" type="qcurve"/>
      <point x="637" y="1132"/>
      <point x="593" y="1086"/>
      <point x="593" y="1041" type="qcurve"/>
      <point x="593" y="490" type="line"/>
      <point x="593" y="375"/>
      <point x="577" y="238"/>
      <point x="545" y="160"/>
      <point x="495" y="134"/>
      <point x="459" y="134" type="qcurve"/>
      <point x="431" y="134"/>
      <point x="381" y="158"/>
      <point x="339" y="200"/>
      <point x="316" y="257"/>
      <point x="316" y="290" type="qcurve"/>
      <point x="316" y="1041" type="line"/>
      <point x="316" y="1086"/>
      <point x="276" y="1132"/>
      <point x="210" y="1132" type="qcurve"/>
      <point x="139" y="1132"/>
      <point x="96" y="1086"/>
      <point x="96" y="1041" type="qcurve"/>
      <point x="96" y="345" type="line"/>
      <point x="96" y="263"/>
      <point x="152" y="168"/>
      <point x="234" y="116"/>
      <point x="328" y="101"/>
      <point x="366" y="101" type="qcurve"/>
      <point x="444" y="101"/>
      <point x="599" y="118"/>
      <point x="723" y="160"/>
      <point x="806" y="230"/>
      <point x="813" y="282" type="qcurve"/>
      <point x="833" y="236"/>
      <point x="919" y="194"/>
      <point x="964" y="194" type="qcurve"/>
      <point x="1054" y="194"/>
      <point x="1187" y="230"/>
      <point x="1277" y="324"/>
      <point x="1320" y="482"/>
      <point x="1320" y="603" type="qcurve"/>
      <point x="1320" y="733" type="line"/>
    </contour>
  </outline>
</glyph>
<glyph name="uni1222" format="2">
  <advance width="1557"/>
  <unicode hex="1222"/>
  <outline>
    <contour>
      <point x="1202" y="114" type="qcurve"/>
      <point x="1202" y="1204" type="line"/>
      <point x="1202" y="1250"/>
      <point x="1162" y="1296"/>
      <point x="1096" y="1296" type="qcurve"/>
      <point x="1027" y="1296"/>
      <point x="983" y="1250"/>
      <point x="983" y="1204" type="qcurve"/>
      <point x="983" y="843" type="line"/>
      <point x="983" y="795"/>
      <point x="959" y="733"/>
      <point x="923" y="701"/>
      <point x="885" y="689"/>
      <point x="871" y="689" type="qcurve"/>
      <point x="817" y="689"/>
      <point x="753" y="751"/>
      <point x="743" y="779" type="qcurve"/>
      <point x="743" y="1204" type="line"/>
      <point x="743" y="1250"/>
      <point x="703" y="1296"/>
      <point x="637" y="1296" type="qcurve"/>
      <point x="568" y="1296"/>
      <point x="524" y="1250"/>
      <point x="524" y="1204" type="qcurve"/>
      <point x="524" y="867" type="line"/>
      <point x="524" y="779"/>
      <point x="513" y="669"/>
      <point x="488" y="608"/>
      <point x="442" y="583"/>
      <point x="408" y="583" type="qcurve"/>
      <point x="356" y="583"/>
      <point x="295" y="673"/>
      <point x="295" y="739" type="qcurve"/>
      <point x="295" y="1204" type="line"/>
      <point x="295" y="1250"/>
      <point x="256" y="1296"/>
      <point x="190" y="1296" type="qcurve"/>
      <point x="120" y="1296"/>
      <point x="76" y="1250"/>
      <point x="76" y="1204" type="qcurve"/>
      <point x="76" y="795" type="line"/>
      <point x="76" y="713"/>
      <point x="114" y="615"/>
      <point x="181" y="566"/>
      <point x="282" y="549"/>
      <point x="345" y="549" type="qcurve"/>
      <point x="533" y="549"/>
      <point x="721" y="627"/>
      <point x="743" y="711" type="qcurve"/>
      <point x="757" y="688"/>
      <point x="821" y="653"/>
      <point x="873" y="653" type="qcurve"/>
      <point x="899" y="653"/>
      <point x="957" y="663"/>
      <point x="983" y="671" type="qcurve"/>
      <point x="983" y="82" type="line"/>
      <point x="983" y="24"/>
      <point x="1021" y="-32"/>
      <point x="1079" y="-32" type="qcurve"/>
      <point x="1275" y="-32" type="line"/>
      <point x="1275" y="-122" type="line"/>
      <point x="1444" y="-122" type="line"/>
      <point x="1490" y="-122"/>
      <point x="1536" y="-78"/>
      <point x="1536" y="-8" type="qcurve"/>
      <point x="1536" y="58"/>
      <point x="1490" y="98"/>
      <point x="1444" y="98" type="qcurve"/>
      <point x="1275" y="98" type="line"/>
      <point x="1275" y="0" type="line"/>
      <point x="1258" y="0" type="line"/>
      <point x="1218" y="0"/>
      <point x="1202" y="44"/>
    </contour>
  </outline>
</glyph>
<glyph name="uni1223" format="2">
  <advance width="1346"/>
  <unicode hex="1223"/>
  <outline>
    <contour>
      <point x="1098" y="1296" type="qcurve"/>
      <point x="1029" y="1296"/>
      <point x="985" y="1250"/>
      <point x="985" y="1204" type="qcurve"/>
      <point x="985" y="843" type="line"/>
      <point x="985" y="795"/>
      <point x="961" y="733"/>
      <point x="924" y="701"/>
      <point x="886" y="689"/>
      <point x="873" y="689" type="qcurve"/>
      <point x="819" y="689"/>
      <point x="755" y="751"/>
      <point x="745" y="779" type="qcurve"/>
      <point x="745" y="1204" type="line"/>
      <point x="745" y="1250"/>
      <point x="705" y="1296"/>
      <point x="639" y="1296" type="qcurve"/>
      <point x="570" y="1296"/>
      <point x="526" y="1250"/>
      <point x="526" y="1204" type="qcurve"/>
      <point x="526" y="867" type="line"/>
      <point x="526" y="779"/>
      <point x="515" y="669"/>
      <point x="490" y="608"/>
      <point x="444" y="583"/>
      <point x="410" y="583" type="qcurve"/>
      <point x="358" y="583"/>
      <point x="297" y="673"/>
      <point x="297" y="739" type="qcurve"/>
      <point x="297" y="1204" type="line"/>
      <point x="297" y="1250"/>
      <point x="257" y="1296"/>
      <point x="192" y="1296" type="qcurve"/>
      <point x="122" y="1296"/>
      <point x="78" y="1250"/>
      <point x="78" y="1204" type="qcurve"/>
      <point x="78" y="795" type="line"/>
      <point x="78" y="713"/>
      <point x="116" y="615"/>
      <point x="183" y="566"/>
      <point x="284" y="549"/>
      <point x="347" y="549" type="qcurve"/>
      <point x="535" y="549"/>
      <point x="723" y="627"/>
      <point x="745" y="711" type="qcurve"/>
      <point x="759" y="688"/>
      <point x="823" y="653"/>
      <point x="875" y="653" type="qcurve"/>
      <point x="901" y="653"/>
      <point x="959" y="663"/>
      <point x="985" y="671" type="qcurve"/>
      <point x="985" y="59" type="line"/>
      <point x="985" y="14"/>
      <point x="1029" y="-32"/>
      <point x="1098" y="-32" type="qcurve"/>
      <point x="1164" y="-32"/>
      <point x="1204" y="14"/>
      <point x="1204" y="59" type="qcurve"/>
      <point x="1204" y="1204" type="line"/>
      <point x="1204" y="1250"/>
      <point x="1164" y="1296"/>
    </contour>
  </outline>
</glyph>
<glyph name="uni1224" format="2">
  <advance width="751"/>
  <unicode hex="1224"/>
  <outline>
    <contour>
      <point x="563" y="-16" type="qcurve"/>
      <point x="634" y="-16" type="line"/>
      <point x="672" y="-16"/>
      <point x="715" y="-9"/>
      <point x="735" y="9"/>
      <point x="739" y="42"/>
      <point x="739" y="69" type="qcurve"/>
      <point x="739" y="117" type="line"/>
      <point x="739" y="172"/>
      <point x="693" y="208"/>
      <point x="647" y="208" type="qcurve"/>
      <point x="633" y="208"/>
      <point x="629" y="207"/>
      <point x="622" y="206" type="qcurve"/>
      <point x="622" y="191" type="line"/>
      <point x="635" y="191"/>
      <point x="650" y="186"/>
      <point x="659" y="171"/>
      <point x="662" y="141"/>
      <point x="662" y="116" type="qcurve"/>
      <point x="662" y="64" type="line"/>
      <point x="662" y="23"/>
      <point x="654" y="-5"/>
      <point x="634" y="-5" type="qcurve"/>
      <point x="623" y="-5"/>
      <point x="610" y="2"/>
      <point x="604" y="19"/>
      <point x="602" y="50"/>
      <point x="602" y="74" type="qcurve"/>
      <point x="602" y="603" type="line"/>
      <point x="602" y="626"/>
      <point x="582" y="649"/>
      <point x="549" y="649" type="qcurve"/>
      <point x="514" y="649"/>
      <point x="492" y="626"/>
      <point x="492" y="603" type="qcurve"/>
      <point x="492" y="422" type="line"/>
      <point x="492" y="398"/>
      <point x="480" y="367"/>
      <point x="462" y="351"/>
      <point x="443" y="345"/>
      <point x="436" y="345" type="qcurve"/>
      <point x="409" y="345"/>
      <point x="377" y="376"/>
      <point x="372" y="390" type="qcurve"/>
      <point x="372" y="603" type="line"/>
      <point x="372" y="626"/>
      <point x="352" y="649"/>
      <point x="319" y="649" type="qcurve"/>
      <point x="284" y="649"/>
      <point x="262" y="626"/>
      <point x="262" y="603" type="qcurve"/>
      <point x="262" y="434" type="line"/>
      <point x="262" y="390"/>
      <point x="257" y="335"/>
      <point x="244" y="304"/>
      <point x="221" y="292"/>
      <point x="204" y="292" type="qcurve"/>
      <point x="178" y="292"/>
      <point x="148" y="337"/>
      <point x="148" y="370" type="qcurve"/>
      <point x="148" y="603" type="line"/>
      <point x="148" y="626"/>
      <point x="128" y="649"/>
      <point x="95" y="649" type="qcurve"/>
      <point x="60" y="649"/>
      <point x="38" y="626"/>
      <point x="38" y="603" type="qcurve"/>
      <point x="38" y="398" type="line"/>
      <point x="38" y="357"/>
      <point x="57" y="308"/>
      <point x="91" y="283"/>
      <point x="141" y="275"/>
      <point x="173" y="275" type="qcurve"/>
      <point x="267" y="275"/>
      <point x="361" y="314"/>
      <point x="372" y="356" type="qcurve"/>
      <point x="379" y="344"/>
      <point x="411" y="327"/>
      <point x="437" y="327" type="qcurve"/>
      <point x="450" y="327"/>
      <point x="479" y="332"/>
      <point x="492" y="336" type="qcurve"/>
      <point x="492" y="62" type="line"/>
      <point x="492" y="38"/>
      <point x="495" y="7"/>
      <point x="509" y="-10"/>
      <point x="537" y="-16"/>
    </contour>
  </outline>
</glyph>
<glyph name="uni1225" format="2">
  <advance width="1315"/>
  <unicode hex="1225"/>
  <outline>
    <contour>
      <point x="190" y="1296" type="qcurve"/>
      <point x="120" y="1296"/>
      <point x="76" y="1250"/>
      <point x="76" y="1204" type="qcurve"/>
      <point x="76" y="59" type="line"/>
      <point x="76" y="14"/>
      <point x="120" y="-32"/>
      <point x="190" y="-32" type="qcurve"/>
      <point x="256" y="-32"/>
      <point x="295" y="14"/>
      <point x="295" y="59" type="qcurve"/>
      <point x="295" y="657" type="line"/>
      <point x="305" y="635"/>
      <point x="377" y="579"/>
      <point x="429" y="579" type="qcurve"/>
      <point x="471" y="579"/>
      <point x="571" y="589"/>
      <point x="665" y="617"/>
      <point x="743" y="669"/>
      <point x="763" y="709" type="qcurve"/>
      <point x="775" y="685"/>
      <point x="823" y="651"/>
      <point x="877" y="627"/>
      <point x="926" y="615"/>
      <point x="943" y="615" type="qcurve"/>
      <point x="1031" y="615"/>
      <point x="1151" y="639"/>
      <point x="1224" y="699"/>
      <point x="1256" y="799"/>
      <point x="1256" y="875" type="qcurve"/>
      <point x="1256" y="1204" type="line"/>
      <point x="1256" y="1250"/>
      <point x="1216" y="1296"/>
      <point x="1151" y="1296" type="qcurve"/>
      <point x="1081" y="1296"/>
      <point x="1037" y="1250"/>
      <point x="1037" y="1204" type="qcurve"/>
      <point x="1037" y="829" type="line"/>
      <point x="1037" y="773"/>
      <point x="1010" y="709"/>
      <point x="972" y="675"/>
      <point x="932" y="667"/>
      <point x="921" y="667" type="qcurve"/>
      <point x="899" y="667"/>
      <point x="846" y="689"/>
      <point x="803" y="729"/>
      <point x="773" y="779"/>
      <point x="773" y="806" type="qcurve"/>
      <point x="773" y="1204" type="line"/>
      <point x="773" y="1250"/>
      <point x="733" y="1296"/>
      <point x="667" y="1296" type="qcurve"/>
      <point x="597" y="1296"/>
      <point x="553" y="1250"/>
      <point x="553" y="1204" type="qcurve"/>
      <point x="553" y="873" type="line"/>
      <point x="553" y="797"/>
      <point x="541" y="703"/>
      <point x="513" y="649"/>
      <point x="467" y="629"/>
      <point x="431" y="629" type="qcurve"/>
      <point x="377" y="629"/>
      <point x="322" y="675"/>
      <point x="295" y="731" type="qcurve"/>
      <point x="295" y="1204" type="line"/>
      <point x="295" y="1250"/>
      <point x="256" y="1296"/>
    </contour>
  </outline>
</glyph>
<glyph name="uni1226" format="2">
  <advance width="1302"/>
  <unicode hex="1226"/>
  <outline>
    <contour>
      <point x="190" y="1296" type="qcurve"/>
      <point x="120" y="1296"/>
      <point x="76" y="1250"/>
      <point x="76" y="1204" type="qcurve"/>
      <point x="76" y="861" type="line"/>
      <point x="76" y="779"/>
      <point x="132" y="683"/>
      <point x="214" y="631"/>
      <point x="307" y="617"/>
      <point x="345" y="617" type="qcurve"/>
      <point x="404" y="617"/>
      <point x="497" y="627"/>
      <point x="549" y="637" type="qcurve"/>
      <point x="549" y="59" type="line"/>
      <point x="549" y="14"/>
      <point x="593" y="-32"/>
      <point x="663" y="-32" type="qcurve"/>
      <point x="729" y="-32"/>
      <point x="768" y="14"/>
      <point x="768" y="59" type="qcurve"/>
      <point x="768" y="677" type="line"/>
      <point x="781" y="661"/>
      <point x="852" y="625"/>
      <point x="899" y="625" type="qcurve"/>
      <point x="989" y="625"/>
      <point x="1115" y="653"/>
      <point x="1195" y="725"/>
      <point x="1233" y="845"/>
      <point x="1233" y="937" type="qcurve"/>
      <point x="1233" y="1204" type="line"/>
      <point x="1233" y="1250"/>
      <point x="1193" y="1296"/>
      <point x="1126" y="1296" type="qcurve"/>
      <point x="1056" y="1296"/>
      <point x="1012" y="1250"/>
      <point x="1012" y="1204" type="qcurve"/>
      <point x="1012" y="817" type="line"/>
      <point x="1012" y="765"/>
      <point x="987" y="703"/>
      <point x="951" y="671"/>
      <point x="913" y="661"/>
      <point x="901" y="661" type="qcurve"/>
      <point x="865" y="661"/>
      <point x="815" y="681"/>
      <point x="783" y="709"/>
      <point x="768" y="741"/>
      <point x="768" y="755" type="qcurve"/>
      <point x="768" y="1204" type="line"/>
      <point x="768" y="1250"/>
      <point x="729" y="1296"/>
      <point x="663" y="1296" type="qcurve"/>
      <point x="593" y="1296"/>
      <point x="549" y="1250"/>
      <point x="549" y="1204" type="qcurve"/>
      <point x="549" y="855" type="line"/>
      <point x="549" y="785"/>
      <point x="533" y="703"/>
      <point x="499" y="661"/>
      <point x="450" y="649"/>
      <point x="415" y="649" type="qcurve"/>
      <point x="362" y="649"/>
      <point x="295" y="741"/>
      <point x="295" y="805" type="qcurve"/>
      <point x="295" y="1204" type="line"/>
      <point x="295" y="1250"/>
      <point x="256" y="1296"/>
    </contour>
  </outline>
</glyph>
<glyph name="uni1227" format="2">
  <advance width="725"/>
  <unicode hex="1227"/>
  <outline>
    <contour>
      <point x="663" y="-79" type="qcurve"/>
      <point x="696" y="-79"/>
      <point x="716" y="-56"/>
      <point x="716" y="-33" type="qcurve"/>
      <point x="716" y="23" type="line"/>
      <point x="602" y="23" type="line"/>
      <point x="602" y="603" type="line"/>
      <point x="602" y="626"/>
      <point x="582" y="649"/>
      <point x="549" y="649" type="qcurve"/>
      <point x="514" y="649"/>
      <point x="492" y="626"/>
      <point x="492" y="603" type="qcurve"/>
      <point x="492" y="422" type="line"/>
      <point x="492" y="398"/>
      <point x="480" y="367"/>
      <point x="462" y="351"/>
      <point x="443" y="345"/>
      <point x="436" y="345" type="qcurve"/>
      <point x="409" y="345"/>
      <point x="377" y="376"/>
      <point x="372" y="390" type="qcurve"/>
      <point x="372" y="603" type="line"/>
      <point x="372" y="626"/>
      <point x="352" y="649"/>
      <point x="319" y="649" type="qcurve"/>
      <point x="284" y="649"/>
      <point x="262" y="626"/>
      <point x="262" y="603" type="qcurve"/>
      <point x="262" y="434" type="line"/>
      <point x="262" y="390"/>
      <point x="257" y="335"/>
      <point x="244" y="304"/>
      <point x="221" y="292"/>
      <point x="204" y="292" type="qcurve"/>
      <point x="178" y="292"/>
      <point x="148" y="337"/>
      <point x="148" y="370" type="qcurve"/>
      <point x="148" y="603" type="line"/>
      <point x="148" y="626"/>
      <point x="128" y="649"/>
      <point x="95" y="649" type="qcurve"/>
      <point x="60" y="649"/>
      <point x="38" y="626"/>
      <point x="38" y="603" type="qcurve"/>
      <point x="38" y="398" type="line"/>
      <point x="38" y="357"/>
      <point x="57" y="308"/>
      <point x="91" y="283"/>
      <point x="141" y="275"/>
      <point x="173" y="275" type="qcurve"/>
      <point x="267" y="275"/>
      <point x="361" y="314"/>
      <point x="372" y="356" type="qcurve"/>
      <point x="379" y="344"/>
      <point x="411" y="327"/>
      <point x="437" y="327" type="qcurve"/>
      <point x="450" y="327"/>
      <point x="479" y="332"/>
      <point x="492" y="336" type="qcurve"/>
      <point x="492" y="23" type="line"/>
      <point x="312" y="23" type="line"/>
      <point x="312" y="-33" type="line"/>
      <point x="312" y="-56"/>
      <point x="333" y="-79"/>
      <point x="368" y="-79" type="qcurve"/>
      <point x="401" y="-79"/>
      <point x="421" y="-56"/>
      <point x="421" y="-33" type="qcurve"/>
      <point x="421" y="7" type="line"/>
      <point x="606" y="7" type="line"/>
      <point x="606" y="-33" type="line"/>
      <point x="606" y="-56"/>
      <point x="628" y="-79"/>
    </contour>
  </outline>
</glyph>
<glyph name="uni1228" format="2">
  <advance width="444"/>
  <unicode hex="1228"/>
  <outline>
    <contour>
      <point x="373" y="-50" type="qcurve"/>
      <point x="406" y="-50"/>
      <point x="426" y="-27"/>
      <point x="426" y="-4" type="qcurve"/>
      <point x="426" y="68" type="line"/>
      <point x="426" y="91"/>
      <point x="406" y="114"/>
      <point x="373" y="114" type="qcurve"/>
      <point x="338" y="114"/>
      <point x="316" y="91"/>
      <point x="316" y="68" type="qcurve"/>
      <point x="316" y="23" type="line"/>
      <point x="225" y="23" type="line"/>
      <point x="197" y="23"/>
      <point x="166" y="35"/>
      <point x="151" y="61"/>
      <point x="148" y="101"/>
      <point x="148" y="130" type="qcurve"/>
      <point x="148" y="266" type="line"/>
      <point x="148" y="293"/>
      <point x="183" y="330"/>
      <point x="235" y="358"/>
      <point x="296" y="382"/>
      <point x="348" y="410"/>
      <point x="383" y="447"/>
      <point x="383" y="475" type="qcurve"/>
      <point x="383" y="603" type="line"/>
      <point x="383" y="626"/>
      <point x="363" y="649"/>
      <point x="330" y="649" type="qcurve"/>
      <point x="295" y="649"/>
      <point x="273" y="626"/>
      <point x="273" y="603" type="qcurve"/>
      <point x="273" y="464" type="line"/>
      <point x="273" y="442"/>
      <point x="238" y="413"/>
      <point x="186" y="390"/>
      <point x="125" y="370"/>
      <point x="73" y="345"/>
      <point x="38" y="309"/>
      <point x="38" y="283" type="qcurve"/>
      <point x="38" y="70" type="line"/>
      <point x="38" y="43"/>
      <point x="43" y="10"/>
      <point x="63" y="-9"/>
      <point x="103" y="-16"/>
      <point x="137" y="-16" type="qcurve"/>
      <point x="152" y="-16"/>
      <point x="170" y="-11"/>
      <point x="184" y="-5"/>
      <point x="200" y="0"/>
      <point x="215" y="0" type="qcurve"/>
      <point x="316" y="0" type="line"/>
      <point x="316" y="-4" type="line"/>
      <point x="316" y="-27"/>
      <point x="338" y="-50"/>
    </contour>
  </outline>
</glyph>
<glyph name="uni1229" format="2">
  <advance width="479"/>
  <unicode hex="1229"/>
  <outline>
    <contour>
      <point x="414" y="87" type="qcurve"/>
      <point x="447" y="87"/>
      <point x="467" y="110"/>
      <point x="467" y="133" type="qcurve"/>
      <point x="467" y="186" type="line"/>
      <point x="177" y="186" type="line"/>
      <point x="165" y="186"/>
      <point x="153" y="197"/>
      <point x="147" y="213"/>
      <point x="146" y="234"/>
      <point x="146" y="245" type="qcurve"/>
      <point x="146" y="351" type="line"/>
      <point x="146" y="378"/>
      <point x="181" y="410"/>
      <point x="233" y="430"/>
      <point x="294" y="445"/>
      <point x="346" y="465"/>
      <point x="381" y="498"/>
      <point x="381" y="525" type="qcurve"/>
      <point x="381" y="618" type="line"/>
      <point x="381" y="641"/>
      <point x="361" y="664"/>
      <point x="328" y="664" type="qcurve"/>
      <point x="293" y="664"/>
      <point x="271" y="641"/>
      <point x="271" y="618" type="qcurve"/>
      <point x="271" y="514" type="line"/>
      <point x="271" y="492"/>
      <point x="236" y="468"/>
      <point x="184" y="453"/>
      <point x="123" y="442"/>
      <point x="71" y="425"/>
      <point x="36" y="394"/>
      <point x="36" y="368" type="qcurve"/>
      <point x="36" y="239" type="line"/>
      <point x="36" y="213"/>
      <point x="40" y="178"/>
      <point x="60" y="155"/>
      <point x="98" y="145"/>
      <point x="133" y="145" type="qcurve"/>
      <point x="142" y="145"/>
      <point x="160" y="152"/>
      <point x="180" y="161"/>
      <point x="201" y="168"/>
      <point x="215" y="168" type="qcurve"/>
      <point x="215" y="2" type="line"/>
      <point x="215" y="-21"/>
      <point x="237" y="-44"/>
      <point x="272" y="-44" type="qcurve"/>
      <point x="305" y="-44"/>
      <point x="325" y="-21"/>
      <point x="325" y="2" type="qcurve"/>
      <point x="325" y="164" type="line"/>
      <point x="357" y="164" type="line"/>
      <point x="357" y="133" type="line"/>
      <point x="357" y="110"/>
      <point x="379" y="87"/>
    </contour>
  </outline>
</glyph>
<glyph name="uni122A" format="2">
  <advance width="463"/>
  <unicode hex="122A"/>
  <outline>
    <contour>
      <point x="311" y="100" type="line"/>
      <point x="311" y="52"/>
      <point x="283" y="20"/>
      <point x="251" y="20" type="qcurve"/>
      <point x="215" y="20" type="line"/>
      <point x="194" y="20"/>
      <point x="167" y="30"/>
      <point x="153" y="50"/>
      <point x="148" y="77"/>
      <point x="148" y="94" type="qcurve"/>
      <point x="148" y="266" type="line"/>
      <point x="148" y="293"/>
      <point x="183" y="330"/>
      <point x="235" y="358"/>
      <point x="296" y="382"/>
      <point x="348" y="410"/>
      <point x="383" y="447"/>
      <point x="383" y="475" type="qcurve"/>
      <point x="383" y="603" type="line"/>
      <point x="383" y="626"/>
      <point x="363" y="649"/>
      <point x="330" y="649" type="qcurve"/>
      <point x="295" y="649"/>
      <point x="273" y="626"/>
      <point x="273" y="603" type="qcurve"/>
      <point x="273" y="464" type="line"/>
      <point x="273" y="442"/>
      <point x="238" y="413"/>
      <point x="186" y="390"/>
      <point x="125" y="370"/>
      <point x="73" y="345"/>
      <point x="38" y="309"/>
      <point x="38" y="283" type="qcurve"/>
      <point x="38" y="70" type="line"/>
      <point x="38" y="24"/>
      <point x="72" y="-16"/>
      <point x="118" y="-16" type="qcurve"/>
      <point x="133" y="-16"/>
      <point x="149" y="-11"/>
      <point x="163" y="-5"/>
      <point x="182" y="0"/>
      <point x="200" y="0" type="qcurve"/>
      <point x="332" y="0" type="line"/>
      <point x="358" y="0"/>
      <point x="392" y="11"/>
      <point x="411" y="36"/>
      <point x="418" y="75"/>
      <point x="418" y="104" type="qcurve"/>
      <point x="418" y="179" type="line"/>
      <point x="418" y="209"/>
      <point x="405" y="243"/>
      <point x="370" y="259"/>
      <point x="308" y="262"/>
      <point x="258" y="262" type="qcurve"/>
      <point x="258" y="248" type="line"/>
      <point x="276" y="248"/>
      <point x="298" y="237"/>
      <point x="308" y="216"/>
      <point x="311" y="186"/>
      <point x="311" y="167" type="qcurve"/>
    </contour>
  </outline>
</glyph>
<glyph name="uni122B" format="2">
  <advance width="1031"/>
  <unicode hex="122B"/>
  <outline>
    <contour>
      <point x="901" y="393" type="qcurve"/>
      <point x="966" y="393"/>
      <point x="1006" y="440"/>
      <point x="1006" y="486" type="qcurve"/>
      <point x="1006" y="591" type="line"/>
      <point x="535" y="591" type="line"/>
      <point x="513" y="591"/>
      <point x="493" y="577"/>
      <point x="493" y="555" type="qcurve"/>
      <point x="493" y="98" type="line"/>
      <point x="493" y="56"/>
      <point x="459" y="40"/>
      <point x="435" y="40" type="qcurve"/>
      <point x="358" y="40" type="line"/>
      <point x="334" y="40"/>
      <point x="309" y="61"/>
      <point x="297" y="94"/>
      <point x="295" y="136"/>
      <point x="295" y="158" type="qcurve"/>
      <point x="295" y="671" type="line"/>
      <point x="295" y="725"/>
      <point x="366" y="789"/>
      <point x="469" y="829"/>
      <point x="591" y="859"/>
      <point x="695" y="899"/>
      <point x="765" y="963"/>
      <point x="765" y="1018" type="qcurve"/>
      <point x="765" y="1204" type="line"/>
      <point x="765" y="1250"/>
      <point x="725" y="1296"/>
      <point x="659" y="1296" type="qcurve"/>
      <point x="589" y="1296"/>
      <point x="545" y="1250"/>
      <point x="545" y="1204" type="qcurve"/>
      <point x="545" y="997" type="line"/>
      <point x="545" y="953"/>
      <point x="475" y="905"/>
      <point x="372" y="875"/>
      <point x="250" y="852"/>
      <point x="146" y="819"/>
      <point x="76" y="757"/>
      <point x="76" y="705" type="qcurve"/>
      <point x="76" y="156" type="line"/>
      <point x="76" y="103"/>
      <point x="84" y="34"/>
      <point x="124" y="-12"/>
      <point x="200" y="-32"/>
      <point x="269" y="-32" type="qcurve"/>
      <point x="286" y="-32"/>
      <point x="305" y="-22"/>
      <point x="328" y="-10"/>
      <point x="356" y="0"/>
      <point x="379" y="0" type="qcurve"/>
      <point x="693" y="0" type="line"/>
      <point x="721" y="0"/>
      <point x="743" y="16"/>
      <point x="743" y="46" type="qcurve"/>
      <point x="743" y="61"/>
      <point x="727" y="74"/>
      <point x="709" y="82"/>
      <point x="695" y="92"/>
      <point x="695" y="106" type="qcurve"/>
      <point x="695" y="486" type="line"/>
      <point x="695" y="517"/>
      <point x="709" y="547"/>
      <point x="739" y="547" type="qcurve"/>
      <point x="787" y="547" type="line"/>
      <point x="787" y="486" type="line"/>
      <point x="787" y="440"/>
      <point x="831" y="393"/>
    </contour>
  </outline>
</glyph>
<glyph name="uni122C" format="2">
  <advance width="953"/>
  <unicode hex="122C"/>
  <outline>
    <contour>
      <point x="545" y="1204" type="qcurve"/>
      <point x="545" y="997" type="line"/>
      <point x="545" y="953"/>
      <point x="475" y="905"/>
      <point x="372" y="875"/>
      <point x="250" y="852"/>
      <point x="146" y="819"/>
      <point x="76" y="757"/>
      <point x="76" y="705" type="qcurve"/>
      <point x="76" y="156" type="line"/>
      <point x="76" y="99"/>
      <point x="84" y="28"/>
      <point x="124" y="-14"/>
      <point x="200" y="-32"/>
      <point x="269" y="-32" type="qcurve"/>
      <point x="290" y="-32"/>
      <point x="324" y="-16"/>
      <point x="360" y="4"/>
      <point x="404" y="20"/>
      <point x="433" y="20" type="qcurve"/>
      <point x="881" y="20" type="line"/>
      <point x="909" y="20"/>
      <point x="930" y="36"/>
      <point x="930" y="66" type="qcurve"/>
      <point x="930" y="82"/>
      <point x="915" y="94"/>
      <point x="897" y="101"/>
      <point x="883" y="112"/>
      <point x="883" y="126" type="qcurve"/>
      <point x="883" y="372" type="line"/>
      <point x="883" y="431"/>
      <point x="865" y="499"/>
      <point x="817" y="531"/>
      <point x="729" y="537"/>
      <point x="657" y="537" type="qcurve"/>
      <point x="589" y="537"/>
      <point x="503" y="528"/>
      <point x="453" y="492"/>
      <point x="435" y="425"/>
      <point x="435" y="372" type="qcurve"/>
      <point x="435" y="59" type="line"/>
      <point x="347" y="59" type="line"/>
      <point x="328" y="59"/>
      <point x="307" y="82"/>
      <point x="297" y="116"/>
      <point x="295" y="158"/>
      <point x="295" y="177" type="qcurve"/>
      <point x="295" y="671" type="line"/>
      <point x="295" y="725"/>
      <point x="366" y="789"/>
      <point x="469" y="829"/>
      <point x="591" y="859"/>
      <point x="695" y="899"/>
      <point x="765" y="963"/>
      <point x="765" y="1018" type="qcurve"/>
      <point x="765" y="1204" type="line"/>
      <point x="765" y="1250"/>
      <point x="725" y="1296"/>
      <point x="659" y="1296" type="qcurve"/>
      <point x="589" y="1296"/>
      <point x="545" y="1250"/>
    </contour>
    <contour>
      <point x="661" y="509" type="qcurve"/>
      <point x="705" y="509"/>
      <point x="723" y="457"/>
      <point x="723" y="429" type="qcurve"/>
      <point x="723" y="146" type="line"/>
      <point x="723" y="112"/>
      <point x="707" y="59"/>
      <point x="665" y="59" type="qcurve"/>
      <point x="615" y="59"/>
      <point x="597" y="112"/>
      <point x="597" y="148" type="qcurve"/>
      <point x="597" y="427" type="line"/>
      <point x="597" y="455"/>
      <point x="621" y="509"/>
    </contour>
  </outline>
</glyph>
<glyph name="uni122D" format="2">
  <advance width="951"/>
  <unicode hex="122D"/>
  <outline>
    <contour>
      <point x="755" y="244" type="qcurve"/>
      <point x="685" y="244"/>
      <point x="641" y="198"/>
      <point x="641" y="152" type="qcurve"/>
      <point x="641" y="42" type="line"/>
      <point x="519" y="42" type="line"/>
      <point x="450" y="42"/>
      <point x="370" y="50"/>
      <point x="332" y="90"/>
      <point x="322" y="172"/>
      <point x="322" y="244" type="qcurve"/>
      <point x="322" y="1003" type="line"/>
      <point x="322" y="1092"/>
      <point x="339" y="1197"/>
      <point x="383" y="1250"/>
      <point x="463" y="1264"/>
      <point x="526" y="1264" type="qcurve"/>
      <point x="651" y="1264" type="line"/>
      <point x="651" y="1162" type="line"/>
      <point x="651" y="1117"/>
      <point x="695" y="1071"/>
      <point x="765" y="1071" type="qcurve"/>
      <point x="831" y="1071"/>
      <point x="871" y="1117"/>
      <point x="871" y="1162" type="qcurve"/>
      <point x="871" y="1262" type="line"/>
      <point x="871" y="1284"/>
      <point x="852" y="1296"/>
      <point x="833" y="1296" type="qcurve"/>
      <point x="383" y="1296" type="line"/>
      <point x="286" y="1296"/>
      <point x="174" y="1284"/>
      <point x="116" y="1224"/>
      <point x="101" y="1102"/>
      <point x="101" y="993" type="qcurve"/>
      <point x="101" y="219" type="line"/>
      <point x="101" y="130"/>
      <point x="120" y="30"/>
      <point x="158" y="-20"/>
      <point x="217" y="-32"/>
      <point x="259" y="-32" type="qcurve"/>
      <point x="294" y="-32"/>
      <point x="345" y="-22"/>
      <point x="391" y="-10"/>
      <point x="440" y="0"/>
      <point x="469" y="0" type="qcurve"/>
      <point x="827" y="0" type="line"/>
      <point x="850" y="0"/>
      <point x="861" y="28"/>
      <point x="861" y="56" type="qcurve"/>
      <point x="861" y="152" type="line"/>
      <point x="861" y="198"/>
      <point x="821" y="244"/>
    </contour>
  </outline>
</glyph>
<glyph name="uni122E" format="2">
  <advance width="1021"/>
  <unicode hex="122E"/>
  <outline>
    <contour>
      <point x="955" y="1124" type="line"/>
      <point x="955" y="1180"/>
      <point x="939" y="1246"/>
      <point x="903" y="1277"/>
      <point x="846" y="1284"/>
      <point x="806" y="1284" type="qcurve"/>
      <point x="387" y="1284" type="line"/>
      <point x="290" y="1284"/>
      <point x="177" y="1275"/>
      <point x="120" y="1229"/>
      <point x="106" y="1128"/>
      <point x="106" y="1039" type="qcurve"/>
      <point x="106" y="208" type="line"/>
      <point x="106" y="118"/>
      <point x="124" y="18"/>
      <point x="162" y="-32"/>
      <point x="221" y="-44"/>
      <point x="263" y="-44" type="qcurve"/>
      <point x="297" y="-44"/>
      <point x="349" y="-34"/>
      <point x="396" y="-22"/>
      <point x="444" y="-12"/>
      <point x="473" y="-12" type="qcurve"/>
      <point x="863" y="-12" type="line"/>
      <point x="886" y="-12"/>
      <point x="897" y="16"/>
      <point x="897" y="44" type="qcurve"/>
      <point x="897" y="139" type="line"/>
      <point x="897" y="185"/>
      <point x="857" y="232"/>
      <point x="791" y="232" type="qcurve"/>
      <point x="721" y="232"/>
      <point x="677" y="185"/>
      <point x="677" y="139" type="qcurve"/>
      <point x="677" y="30" type="line"/>
      <point x="524" y="30" type="line"/>
      <point x="453" y="30"/>
      <point x="374" y="38"/>
      <point x="335" y="78"/>
      <point x="326" y="160"/>
      <point x="326" y="232" type="qcurve"/>
      <point x="326" y="1004" type="line"/>
      <point x="326" y="1088"/>
      <point x="330" y="1187"/>
      <point x="353" y="1239"/>
      <point x="406" y="1252"/>
      <point x="453" y="1252" type="qcurve"/>
      <point x="488" y="1252"/>
      <point x="488" y="1214" type="qcurve"/>
      <point x="488" y="1003" type="line"/>
      <point x="488" y="959"/>
      <point x="505" y="909"/>
      <point x="555" y="885"/>
      <point x="648" y="879"/>
      <point x="719" y="879" type="qcurve"/>
      <point x="787" y="879"/>
      <point x="879" y="883"/>
      <point x="932" y="907"/>
      <point x="955" y="957"/>
      <point x="955" y="1001" type="qcurve"/>
    </contour>
    <contour>
      <point x="787" y="1008" type="line"/>
      <point x="787" y="963"/>
      <point x="767" y="909"/>
      <point x="719" y="909" type="qcurve"/>
      <point x="673" y="909"/>
      <point x="657" y="966"/>
      <point x="657" y="1010" type="qcurve"/>
      <point x="657" y="1170" type="line"/>
      <point x="657" y="1206"/>
      <point x="681" y="1252"/>
      <point x="723" y="1252" type="qcurve"/>
      <point x="771" y="1252"/>
      <point x="787" y="1208"/>
      <point x="787" y="1172" type="qcurve"/>
    </contour>
  </outline>
</glyph>
<glyph name="uni122F" format="2">
  <advance width="517"/>
  <unicode hex="122F"/>
  <outline>
    <contour>
      <point x="177" y="695" type="qcurve"/>
      <point x="144" y="695"/>
      <point x="124" y="672"/>
      <point x="124" y="649" type="qcurve"/>
      <point x="124" y="593" type="line"/>
      <point x="273" y="593" type="line"/>
      <point x="273" y="499" type="line"/>
      <point x="273" y="477"/>
      <point x="238" y="453"/>
      <point x="186" y="438"/>
      <point x="125" y="427"/>
      <point x="73" y="410"/>
      <point x="38" y="379"/>
      <point x="38" y="353" type="qcurve"/>
      <point x="38" y="78" type="line"/>
      <point x="38" y="52"/>
      <point x="42" y="17"/>
      <point x="62" y="-6"/>
      <point x="100" y="-16"/>
      <point x="135" y="-16" type="qcurve"/>
      <point x="143" y="-16"/>
      <point x="153" y="-11"/>
      <point x="164" y="-5"/>
      <point x="178" y="0"/>
      <point x="190" y="0" type="qcurve"/>
      <point x="347" y="0" type="line"/>
      <point x="361" y="0"/>
      <point x="372" y="8"/>
      <point x="372" y="23" type="qcurve"/>
      <point x="372" y="31"/>
      <point x="364" y="37"/>
      <point x="355" y="41"/>
      <point x="348" y="46"/>
      <point x="348" y="53" type="qcurve"/>
      <point x="348" y="243" type="line"/>
      <point x="348" y="259"/>
      <point x="355" y="274"/>
      <point x="370" y="274" type="qcurve"/>
      <point x="394" y="274" type="line"/>
      <point x="394" y="243" type="line"/>
      <point x="394" y="220"/>
      <point x="416" y="197"/>
      <point x="451" y="197" type="qcurve"/>
      <point x="484" y="197"/>
      <point x="504" y="220"/>
      <point x="504" y="243" type="qcurve"/>
      <point x="504" y="296" type="line"/>
      <point x="268" y="296" type="line"/>
      <point x="257" y="296"/>
      <point x="247" y="289"/>
      <point x="247" y="278" type="qcurve"/>
      <point x="247" y="49" type="line"/>
      <point x="247" y="28"/>
      <point x="230" y="20"/>
      <point x="218" y="20" type="qcurve"/>
      <point x="179" y="20" type="line"/>
      <point x="167" y="20"/>
      <point x="155" y="31"/>
      <point x="149" y="47"/>
      <point x="148" y="68"/>
      <point x="148" y="79" type="qcurve"/>
      <point x="148" y="336" type="line"/>
      <point x="148" y="363"/>
      <point x="183" y="395"/>
      <point x="235" y="415"/>
      <point x="296" y="430"/>
      <point x="348" y="450"/>
      <point x="383" y="482"/>
      <point x="383" y="510" type="qcurve"/>
      <point x="383" y="593" type="line"/>
      <point x="500" y="593" type="line"/>
      <point x="500" y="649" type="line"/>
      <point x="500" y="672"/>
      <point x="479" y="695"/>
      <point x="444" y="695" type="qcurve"/>
      <point x="411" y="695"/>
      <point x="391" y="672"/>
      <point x="391" y="649" type="qcurve"/>
      <point x="391" y="609" type="line"/>
      <point x="234" y="609" type="line"/>
      <point x="234" y="649" type="line"/>
      <point x="234" y="672"/>
      <point x="212" y="695"/>
    </contour>
  </outline>
</glyph>
<glyph name="uni1230" format="2">
  <advance width="495"/>
  <unicode hex="1230"/>
  <outline>
    <contour>
      <point x="254" y="649" type="qcurve"/>
      <point x="219" y="649"/>
      <point x="197" y="626"/>
      <point x="197" y="603" type="qcurve"/>
      <point x="197" y="504" type="line"/>
      <point x="152" y="497"/>
      <point x="92" y="472"/>
      <point x="55" y="424"/>
      <point x="39" y="346"/>
      <point x="39" y="286" type="qcurve"/>
      <point x="39" y="30" type="line"/>
      <point x="39" y="7"/>
      <point x="61" y="-16"/>
      <point x="96" y="-16" type="qcurve"/>
      <point x="129" y="-16"/>
      <point x="149" y="7"/>
      <point x="149" y="30" type="qcurve"/>
      <point x="149" y="309" type="line"/>
      <point x="149" y="360"/>
      <point x="158" y="430"/>
      <point x="179" y="474"/>
      <point x="216" y="494"/>
      <point x="243" y="494" type="qcurve"/>
      <point x="271" y="494"/>
      <point x="307" y="474"/>
      <point x="328" y="430"/>
      <point x="336" y="360"/>
      <point x="336" y="309" type="qcurve"/>
      <point x="336" y="30" type="line"/>
      <point x="336" y="7"/>
      <point x="358" y="-16"/>
      <point x="393" y="-16" type="qcurve"/>
      <point x="426" y="-16"/>
      <point x="446" y="7"/>
      <point x="446" y="30" type="qcurve"/>
      <point x="446" y="310" type="line"/>
      <point x="446" y="368"/>
      <point x="435" y="442"/>
      <point x="405" y="485"/>
      <point x="351" y="504"/>
      <point x="307" y="507" type="qcurve"/>
      <point x="307" y="603" type="line"/>
      <point x="307" y="626"/>
      <point x="287" y="649"/>
    </contour>
  </outline>
</glyph>
<glyph name="uni1231" format="2">
  <advance width="1199"/>
  <unicode hex="1231"/>
  <outline>
    <contour>
      <point x="957" y="599" type="line"/>
      <point x="957" y="522" type="line"/>
      <point x="957" y="475"/>
      <point x="1001" y="429"/>
      <point x="1071" y="429" type="qcurve"/>
      <point x="1136" y="429"/>
      <point x="1176" y="475"/>
      <point x="1176" y="522" type="qcurve"/>
      <point x="1176" y="599" type="line"/>
      <point x="1176" y="621"/>
      <point x="1159" y="629"/>
      <point x="1147" y="629" type="qcurve"/>
      <point x="888" y="629" type="line"/>
      <point x="888" y="743"/>
      <point x="865" y="885"/>
      <point x="805" y="968"/>
      <point x="697" y="1006"/>
      <point x="611" y="1012" type="qcurve"/>
      <point x="611" y="1204" type="line"/>
      <point x="611" y="1250"/>
      <point x="571" y="1296"/>
      <point x="505" y="1296" type="qcurve"/>
      <point x="435" y="1296"/>
      <point x="391" y="1250"/>
      <point x="391" y="1204" type="qcurve"/>
      <point x="391" y="1006" type="line"/>
      <point x="301" y="993"/>
      <point x="181" y="943"/>
      <point x="108" y="846"/>
      <point x="76" y="691"/>
      <point x="76" y="571" type="qcurve"/>
      <point x="76" y="59" type="line"/>
      <point x="76" y="14"/>
      <point x="120" y="-32"/>
      <point x="190" y="-32" type="qcurve"/>
      <point x="256" y="-32"/>
      <point x="295" y="14"/>
      <point x="295" y="59" type="qcurve"/>
      <point x="295" y="617" type="line"/>
      <point x="295" y="719"/>
      <point x="314" y="859"/>
      <point x="356" y="947"/>
      <point x="429" y="987"/>
      <point x="484" y="987" type="qcurve"/>
      <point x="539" y="987"/>
      <point x="611" y="947"/>
      <point x="653" y="859"/>
      <point x="669" y="719"/>
      <point x="669" y="617" type="qcurve"/>
      <point x="669" y="59" type="line"/>
      <point x="669" y="14"/>
      <point x="713" y="-32"/>
      <point x="783" y="-32" type="qcurve"/>
      <point x="848" y="-32"/>
      <point x="888" y="14"/>
      <point x="888" y="59" type="qcurve"/>
      <point x="888" y="599" type="line"/>
    </contour>
  </outline>
</glyph>
<glyph name="uni1232" format="2">
  <advance width="623"/>
  <unicode hex="1232"/>
  <outline>
    <contour>
      <point x="445" y="57" type="qcurve"/>
      <point x="445" y="310" type="line"/>
      <point x="445" y="368"/>
      <point x="434" y="442"/>
      <point x="404" y="485"/>
      <point x="350" y="504"/>
      <point x="306" y="507" type="qcurve"/>
      <point x="306" y="603" type="line"/>
      <point x="306" y="626"/>
      <point x="286" y="649"/>
      <point x="253" y="649" type="qcurve"/>
      <point x="218" y="649"/>
      <point x="196" y="626"/>
      <point x="196" y="603" type="qcurve"/>
      <point x="196" y="504" type="line"/>
      <point x="151" y="497"/>
      <point x="91" y="472"/>
      <point x="54" y="424"/>
      <point x="38" y="346"/>
      <point x="38" y="286" type="qcurve"/>
      <point x="38" y="30" type="line"/>
      <point x="38" y="7"/>
      <point x="60" y="-16"/>
      <point x="95" y="-16" type="qcurve"/>
      <point x="128" y="-16"/>
      <point x="148" y="7"/>
      <point x="148" y="30" type="qcurve"/>
      <point x="148" y="309" type="line"/>
      <point x="148" y="360"/>
      <point x="157" y="430"/>
      <point x="178" y="474"/>
      <point x="215" y="494"/>
      <point x="242" y="494" type="qcurve"/>
      <point x="270" y="494"/>
      <point x="306" y="474"/>
      <point x="327" y="430"/>
      <point x="335" y="360"/>
      <point x="335" y="309" type="qcurve"/>
      <point x="335" y="41" type="line"/>
      <point x="335" y="12"/>
      <point x="354" y="-16"/>
      <point x="383" y="-16" type="qcurve"/>
      <point x="481" y="-16" type="line"/>
      <point x="481" y="-61" type="line"/>
      <point x="566" y="-61" type="line"/>
      <point x="589" y="-61"/>
      <point x="612" y="-39"/>
      <point x="612" y="-4" type="qcurve"/>
      <point x="612" y="29"/>
      <point x="589" y="49"/>
      <point x="566" y="49" type="qcurve"/>
      <point x="481" y="49" type="line"/>
      <point x="481" y="0" type="line"/>
      <point x="473" y="0" type="line"/>
      <point x="453" y="0"/>
      <point x="445" y="22"/>
    </contour>
  </outline>
</glyph>
